<svg width="120" height="150" viewBox="0 0 120 150" fill="none" xmlns="http://www.w3.org/2000/svg">
    <g clip-path="url(#clip0_18_102912)">
        <path d="M105.431 69.6476C104.966 70.701 104.481 71.7649 103.966 72.8472C102.334 76.3016 107.431 79.0599 105.431 82.5905C89.2624 111.198 56.4375 141.441 56.4375 141.441L56.4375 112.766C66.1359 107.163 78.7031 97.0386 87.7059 82.0047C91.3175 75.9864 93.2415 86.1106 96.588 78.6764C99.8033 81.2613 100.423 65.5969 103.105 67.7615C103.819 68.3421 104.58 68.9594 105.431 69.6476Z"
              fill="#E9E9E9"/>
        <path d="M96.6013 88.3934L86.4121 84.1141L88.7192 80.6781L99.3153 83.6833L96.6013 88.3934Z" fill="#9EA2A0"/>
        <path d="M104.575 40.7252C97.5986 46.6883 91.3229 52.3651 82.2991 57.6663C77.7478 60.3405 68.2069 72.2825 68.2069 72.2825C68.2069 72.2825 63.4929 63.7345 63.4824 63.7397L63.4824 55.218C65.8263 53.8625 68.1728 52.4177 70.5272 50.8862C77.7714 46.1656 85.1023 40.5755 92.8033 33.9451C98.0737 37.7384 104.575 40.7252 104.575 40.7252Z"
              fill="#E9E9E9"/>
        <path d="M49.3922 64.11L49.3922 79.1334C49.1953 79.2149 46.3737 80.3313 42.3474 81.8628C37.0848 83.8645 35.5021 95.2522 29.2185 97.3354C29.2185 97.3354 18.8639 93.6446 17.4492 90.5553C17.4492 90.5553 18.3705 85.727 18.7458 83.6806C19.1527 81.5817 19.5464 79.5012 20.0713 76.7193C27.7618 74.4575 35.0927 71.5731 42.3474 67.9165C44.7018 66.7422 47.0457 65.4655 49.3922 64.11Z"
              fill="#6C6C6C"/>
        <path d="M56.4478 30.6273L56.4374 30.6325C53.3192 32.4346 50.6288 31.8751 49.3926 29.545L49.3926 68.4839L49.3926 125.296L63.4847 117.153L63.4847 43.402C62.2354 47.1454 59.5555 28.8331 56.4478 30.6273Z"
              fill="#6C6C6C"/>
        <path d="M81.2808 8.67671C81.1312 8.5874 80.3858 8.13819 79.3254 7.49722C79.3096 7.46833 79.2808 7.45256 79.265 7.46833C76.2964 6.21528 72.4328 6.66186 68.2096 9.09702C58.8866 14.4875 51.3379 27.5223 51.3379 38.227C51.3379 43.3784 53.0991 47.0666 55.9627 48.887C56.1123 48.9921 56.275 49.0814 56.4404 49.155C56.4404 49.155 53.9206 42.5404 56.4404 41.093C57.7081 40.3627 61.5875 40.3023 65.4222 40.1236C69.2569 39.945 73.0444 39.6613 74.1205 38.4818C79.9396 32.0616 81.3123 8.6951 81.3123 8.6951C81.2965 8.67671 81.2965 8.67671 81.2808 8.67671ZM75.2544 28.2368C73.9998 31.9696 71.3305 35.6132 68.2123 37.4048L68.2123 37.4205C65.0941 39.2121 62.3932 38.6604 61.157 36.3303C60.9024 35.8522 60.7108 35.3006 60.5901 34.6728C58.01 35.6736 55.876 34.9854 54.8025 32.9705C54.3406 32.0905 54.086 30.9688 54.086 29.6264C54.086 24.6852 57.5611 18.6669 61.8578 16.1897C65.6164 14.0251 68.7503 15.265 69.4669 18.9375C73.1678 17.5032 76.0025 19.5496 76.0025 23.9838C75.9998 25.3393 75.7321 26.8025 75.2544 28.2368Z"
              fill="#626363"/>
        <path d="M79.2674 7.4657C76.2988 6.21266 72.4352 6.65924 68.212 9.09439C58.889 14.4848 51.3403 27.5196 51.3403 38.2244C51.3403 43.3758 53.1015 47.064 55.965 48.8844C53.8023 47.676 45.1039 42.7926 43.7312 41.7917C41.1353 39.8793 39.5684 36.3277 39.5684 31.4443C39.5684 20.7396 47.1328 7.70475 56.4401 2.3143C61.0203 -0.328382 65.1673 -0.627851 68.212 1.00084C70.464 2.21185 76.1781 5.61635 79.2674 7.4657Z"
              fill="url(#paint0_linear_18_102912)"/>
        <path d="M75.2543 28.2289L75.2543 123.933L61.1621 132.076L61.1621 36.3251C62.3984 38.6551 65.0913 39.2147 68.2069 37.4126L68.2174 37.4074C71.3251 35.6132 74.0075 31.9722 75.2543 28.2289Z"
              fill="#B9BBBA"/>
        <path d="M68.2069 37.4152L68.2069 97.3853C65.8604 98.7408 63.5165 91.9134 61.1621 93.0929L61.1621 36.3251C62.3984 38.6578 65.0913 39.2147 68.2069 37.4152Z"
              fill="#929595"/>
        <path d="M61.1621 89.2077C65.1911 87.6762 68.01 86.5571 68.2069 86.4783L68.2069 128.005L61.1621 132.076L61.1621 89.2077Z"
              fill="#929595"/>
        <path d="M81.3116 8.69247C81.2959 8.67671 81.2959 8.67671 81.2828 8.67671C80.6843 8.16972 80.0281 7.78093 79.3273 7.49722C79.3116 7.46833 79.2827 7.45256 79.267 7.46833C76.2984 6.21528 72.4348 6.66186 68.2116 9.09702C58.8886 14.4875 51.3398 27.5223 51.3398 38.227C51.3398 43.3784 53.101 47.0666 55.9646 48.887C56.1142 48.9921 56.277 49.0814 56.4423 49.155C57.7993 49.9168 59.3951 50.2609 61.1563 50.1716C63.306 50.0665 65.6919 49.3205 68.2116 47.873C70.734 46.4099 73.1198 44.395 75.2538 42.036C81.057 35.6158 85.086 26.5529 85.086 18.73C85.086 14.0961 83.6686 10.6627 81.3116 8.69247ZM75.9992 23.9812C75.9992 25.3393 75.7315 26.8025 75.2538 28.2368C73.9991 31.9696 71.3298 35.6132 68.2116 37.4048L68.2116 37.4205C65.0934 39.2121 62.3926 38.6604 61.1563 36.3303C60.9017 35.8522 60.7101 35.3006 60.5894 34.6728C60.5001 34.15 60.4398 33.5826 60.4398 32.9705C60.4398 28.0424 63.9149 22.0267 68.2116 19.5469C68.6447 19.3079 69.062 19.1003 69.4636 18.9349C73.1645 17.5006 75.9992 19.5469 75.9992 23.9812Z"
              fill="#C0C3C2"/>
        <path d="M52.9147 39.9056C52.9147 29.2009 60.4634 16.1661 69.7864 10.7756C74.007 8.34309 77.8732 7.89389 80.8418 9.14693C80.8575 9.13117 80.8864 9.14693 80.9022 9.17583C81.5794 9.44903 82.2119 9.8273 82.7946 10.3107C82.3536 9.69596 81.8628 9.14956 81.3116 8.69247C81.2959 8.67671 81.2959 8.67671 81.2828 8.67671C80.6843 8.16972 80.0281 7.78093 79.3273 7.49722C79.3116 7.46833 79.2827 7.45256 79.267 7.46833C76.2984 6.21528 72.4348 6.66186 68.2116 9.09702C58.8886 14.4875 51.3398 27.5223 51.3398 38.227C51.3398 42.9213 52.8123 46.381 55.2376 48.3406C53.7703 46.3074 52.9147 43.4651 52.9147 39.9056Z"
              fill="#D5D8D7"/>
        <path d="M75.9996 23.9812C75.9996 25.3393 75.7319 26.8025 75.2542 28.2368C73.9996 31.9696 71.3302 35.6132 68.2121 37.4047L68.2121 37.4205C65.0939 39.2121 62.393 38.6604 61.1568 36.3303C60.9022 35.8522 60.7106 35.3006 60.5898 34.6727C60.9914 34.5099 61.4114 34.3155 61.8418 34.0607L61.8576 34.0607C64.96 32.2691 67.6451 28.6256 68.8997 24.8769C69.3617 23.4426 69.632 21.9952 69.632 20.6371C69.632 20.025 69.5717 19.4576 69.4667 18.9348C73.1649 17.5005 75.9996 19.5469 75.9996 23.9812Z"
              fill="url(#paint1_linear_18_102912)"/>
        <path d="M49.3938 64.1101L61.1631 70.8902C60.9663 70.9716 54.0212 75.2667 46.4856 78.2508C39.8608 80.8725 38.8188 81.4137 31.8423 83.5021C31.8423 83.5021 19.548 79.5013 20.073 76.722C27.7634 74.4602 35.0943 71.5758 42.3491 67.9191C44.7034 66.7423 47.0473 65.4656 49.3938 64.1101Z"
              fill="#E9E9E9"/>
        <path d="M107.208 51.5218C100.221 57.5926 89.3755 66.1223 82.2992 71.6073C78.1233 74.8384 75.2623 77.0135 75.2623 77.0135C75.2623 77.0135 75.2623 77.0135 75.2518 77.0187L68.207 73.8034L75.2518 61.9927C77.5983 60.6373 79.9422 59.1924 82.2966 57.6609C89.5408 52.9404 96.8717 47.3503 104.573 40.7199C105.098 42.895 105.494 44.5184 105.898 46.1471C106.287 47.7601 106.683 49.3704 107.208 51.5218Z"
              fill="#BDBFBE"/>
        <path d="M105.901 46.1524C98.9242 52.1155 88.9503 59.9464 82.2992 65.1083C78.1233 68.3394 75.2623 70.5145 75.2623 70.5145C75.2623 70.5145 68.2175 73.8008 68.207 73.806L75.2518 61.9954C77.5983 60.6399 79.9422 59.1951 82.2966 57.6636C89.5408 52.943 96.8717 47.3529 104.573 40.7225C105.098 42.9003 105.494 44.5237 105.901 46.1524Z"
              fill="#D5D8D7"/>
        <path d="M61.1617 70.8901L68.2065 73.806L61.1617 85.9135C60.9648 85.995 58.1433 87.1114 54.1169 88.6429C47.0328 91.3381 36.1953 95.3494 29.2187 97.3354C29.7437 94.5771 30.14 92.5071 30.5154 90.4607C30.9222 88.3618 31.3159 86.2813 31.8409 83.502C39.5287 81.2402 46.8622 78.3559 54.1169 74.6992C56.4713 73.5223 58.8152 72.2456 61.1617 70.8901Z"
              fill="#A9ACAC"/>
        <path d="M61.1626 70.8901L68.2074 73.806C68.0079 73.8875 58.1442 80.6124 54.1152 82.1439C47.4563 84.6736 37.4902 88.3749 30.5137 90.4633C30.9205 88.3644 31.3142 86.2839 31.8392 83.5046C39.527 81.2428 46.8605 78.3585 54.1152 74.7018C56.4722 73.5223 58.8161 72.2456 61.1626 70.8901Z"
              fill="#C1C3C2"/>
        <path d="M49.3693 111.904L61.1386 118.684C61.1386 118.684 18.4185 142.947 4.38672 127.201C8.45242 119.215 6.47075 113.428 10.5391 105.453C22.2349 117.946 35.7942 119.748 49.3693 111.904Z"
              fill="#E9E9E9"/>
        <path d="M68.2127 149.997C68.2127 149.997 37.8393 148.518 20.1145 138.381C19.621 138.113 19.146 137.829 18.6814 137.53C16.4897 136.172 14.5186 134.648 12.8781 132.975C12.6235 132.707 12.3847 132.452 12.1484 132.184C16.117 124.361 18.1459 120.374 22.0542 112.729C22.1434 112.564 22.2169 112.401 22.3088 112.235C22.5476 112.49 22.8022 112.758 23.0384 112.997C23.0831 113.042 23.1119 113.071 23.1592 113.115L23.1749 113.115C26.3089 116.31 29.574 118.745 32.9599 120.447C33.4822 120.715 34.0203 120.954 34.54 121.177C43.0441 124.85 52.0837 123.909 61.139 118.684L68.2127 149.997Z"
              fill="#8A8D8D"/>
        <path d="M10.9746 109.997C10.9746 109.997 25.5392 137.53 46.6316 134.089C57.2801 132.352 68.2068 120.434 68.2068 120.434L68.2068 149.995C68.2068 149.995 56.4192 141.741 46.6316 140.835C20.1165 138.381 10.9746 109.997 10.9746 109.997Z"
              fill="#747775"/>
        <path d="M24.511 129.641L18.6841 137.53C16.4925 136.172 14.5213 134.648 12.8809 132.975C16.9387 124.942 19.1172 120.673 23.0412 112.997C23.0858 113.042 23.1147 113.071 23.1619 113.115L23.1777 113.115C26.3116 116.31 29.5768 118.745 32.9627 120.447C33.4824 120.718 24.511 129.641 24.511 129.641Z"
              fill="#636565"/>
        <path d="M37.5551 111.865C29.1271 114.016 17.8617 110.013 9.16602 104.189C17.5652 109.64 23.518 107.533 25.7858 105.085L30.5156 107.801L37.5551 111.865Z"
              fill="#F9F9F9"/>
        <path d="M37.5554 111.865C37.0042 112.671 36.1669 113.478 35.1537 114.253C28.7546 119.181 14.8934 123.271 14.8934 123.271L9.34476 147.518L3.55724 139.784C3.55724 139.784 -0.306366 133.842 0.0217256 131.974C1.82754 121.582 4.36303 111.996 8.39199 103.664C8.64659 103.842 8.89856 104.021 9.16891 104.186C17.862 110.013 29.1273 114.014 37.5554 111.865Z"
              fill="#6C6C6C"/>
        <path d="M37.5544 111.865C36.8694 112.537 36.0478 113.344 35.1528 114.253C29.528 119.882 20.8323 128.929 20.8323 128.929C20.8323 128.929 14.029 140.785 9.34647 147.518C6.68762 139.022 6.27029 117.135 8.38844 103.666C8.64304 103.845 8.89501 104.024 9.16536 104.189C17.8611 110.013 29.1264 114.014 37.5544 111.865Z"
              fill="#B6B9B8"/>
        <path d="M37.5474 111.86C32.4895 116.769 20.8331 128.927 20.8331 128.927C17.9827 128.084 8.39453 103.666 8.39453 103.666C17.1952 109.766 28.87 114.066 37.5474 111.86Z"
              fill="#DDDFDE"/>
        <path d="M80.0293 78.679L91.7986 85.4591C92.8353 83.9539 102.993 80.8042 106.161 75.4637C111.702 66.1223 110.972 53.2215 110.972 53.2215C97.6727 67.4857 95.5178 72.0355 80.0293 78.679Z"
              fill="#858585"/>
        <path d="M117.205 76.4356C116.743 77.4811 116.25 78.5424 115.743 79.6299C115.728 79.6588 115.715 79.6746 115.699 79.7035C114.237 82.7796 112.612 85.9135 110.851 89.079C110.657 89.4231 110.449 89.7804 110.255 90.1402C94.0842 118.747 68.2148 149.997 68.2148 149.997L75.257 114.61C84.9527 108.996 87.5801 103.44 96.5908 88.4065L96.5908 88.3907C96.6065 88.3907 96.6065 88.3907 96.6065 88.3907C100.202 82.3724 103.693 75.6554 107.05 68.2186C109.914 70.5171 111.764 72.0118 114.032 73.8323C114.316 74.0714 114.583 74.2946 114.883 74.5337C115.594 75.1195 116.355 75.7316 117.205 76.4356Z"
              fill="#BBBEBC"/>
        <path d="M113.127 60.8395C113.127 60.8395 103.806 97.254 82.7165 118.185C72.068 128.753 68.207 120.437 68.207 120.437L68.207 149.997C68.207 149.997 72.8948 135.801 82.7165 124.931C108.518 96.3739 113.127 60.8395 113.127 60.8395Z"
              fill="#9EA2A0"/>
        <path d="M115.698 79.7035C114.236 82.7796 112.612 85.9135 110.851 89.079C108.717 87.9888 107.181 87.0773 107.181 87.0773C107.181 87.0773 101.69 87.7051 96.6035 88.3907C100.199 82.3724 103.69 75.6554 107.047 68.2186C109.911 70.5171 111.761 72.0118 114.029 73.8323C114.593 75.792 115.16 77.749 115.698 79.7035Z"
              fill="#6C6E6E"/>
        <path d="M91.7988 85.4591C96.8541 84.5266 108.513 83.2105 108.513 83.2105C108.513 83.2105 115.322 87.1981 120.002 88.5274C118.151 77.2999 113.101 64.2309 110.975 53.2215C102.177 69.49 100.479 77.6361 91.7988 85.4591Z"
              fill="#DDDFDE"/>
        <path d="M91.7988 85.4591C96.8541 84.5266 108.513 83.2105 108.513 83.2105C111.364 79.0757 110.975 53.2215 110.975 53.2215C102.177 69.49 100.479 77.6361 91.7988 85.4591Z"
              fill="#BFC2C1"/>
    </g>
    <defs>
        <linearGradient id="paint0_linear_18_102912" x1="68.111" y1="0.906275" x2="44.2491" y2="42.2019"
                        gradientUnits="userSpaceOnUse">
            <stop offset="0.1261" stop-color="#E9E9E9"/>
            <stop offset="0.1272" stop-color="#CFCFCF"/>
            <stop offset="0.4378" stop-color="#CFCFCF"/>
            <stop offset="0.4407" stop-color="#ACACAC"/>
            <stop offset="0.8367" stop-color="#ACACAC"/>
            <stop offset="0.8387" stop-color="#868686"/>
        </linearGradient>
        <linearGradient id="paint1_linear_18_102912" x1="63.8773" y1="38.6468" x2="74.8551" y2="19.6484"
                        gradientUnits="userSpaceOnUse">
            <stop offset="0.1261" stop-color="#E9E9E9"/>
            <stop offset="0.1272" stop-color="#CFCFCF"/>
            <stop offset="0.4378" stop-color="#CFCFCF"/>
            <stop offset="0.4407" stop-color="#ACACAC"/>
            <stop offset="0.8367" stop-color="#ACACAC"/>
            <stop offset="0.8387" stop-color="#868686"/>
        </linearGradient>
        <clipPath id="clip0_18_102912">
            <rect width="120" height="150" fill="white"/>
        </clipPath>
    </defs>
</svg>
