<svg width="1177" height="1080" viewBox="0 0 1177 1080" fill="none" xmlns="http://www.w3.org/2000/svg">
    <g clip-path="url(#clip0_15_3609)">
        <path d="M589.39 1164.83H587.632C512.647 1164.59 437.689 1145.86 364.817 1109.19C297.13 1075.1 232.321 1025.3 177.411 965.156C150.426 935.606 126.091 904.009 104.404 870.372C82.7176 836.741 63.9841 801.533 48.2 764.748C16.2466 689.452 0.0335353 613.775 0.0605807 539.917C0.0605807 389.723 63.8232 233.757 174.977 112C230.182 51.5641 293.139 3.6649 362.095 -30.355C435.107 -66.3696 510.997 -84.7513 587.632 -85H589.51C753.358 -85 919.608 -16.5504 1023.8 93.9057C1075.57 148.798 1114.95 218.777 1140.87 301.939C1163.36 374.112 1175.31 456.421 1175.31 539.917C1175.31 718.701 1121.55 874.231 1023.88 977.841C915.013 1093.29 748.683 1164.83 589.39 1164.83ZM589.511 -83.7784H587.633C286.257 -82.8326 1.27504 220.287 1.27504 539.917C1.27504 686.413 65.7962 841.111 178.311 964.324C293.509 1090.49 442.727 1163.13 587.633 1163.61H589.391C748.37 1163.61 914.331 1092.22 1022.91 977.015C1120.26 873.619 1174.03 718.405 1174.03 539.917C1174.03 433.481 1154.38 234.146 1022.91 94.7382C918.951 -15.477 753.037 -83.7784 589.511 -83.7784Z" fill="#1773FC"/>
        <path d="M593.622 1134.32H591.696C456.671 1133.83 314.944 1062.36 202.866 938.25C95.8524 819.948 31.9894 670.606 31.9688 539.137C31.9688 471.635 47.7117 398.83 77.5002 328.602C92.5323 293.568 110.32 259.998 130.88 227.898C151.44 195.798 174.486 165.603 200.023 137.301C216.202 119.341 233.301 102.294 251.304 86.1678C118.491 205.63 33.1562 382.024 33.1832 539.091C33.1832 670.265 96.9458 819.123 203.699 937.37C315.656 1061.24 456.94 1132.56 591.631 1133.05H593.623C749.899 1133.05 911.339 1064.38 1015.43 953.538C1126.83 834.901 1150.17 662.667 1150.12 539.091C1150.12 410.226 1126.68 231.757 1015.43 113.341C917.783 9.52921 756.249 -54.8252 593.427 -54.8252H591.629C503.525 -54.5572 420.336 -28.0407 346.369 15.9399C356.961 9.59107 367.646 3.65199 378.418 -1.88506C448.124 -37.6098 519.85 -55.8239 591.628 -56.0455H593.426C756.497 -56.0455 918.44 8.46356 1016.23 112.537C1127.77 231.275 1151.24 410.052 1151.26 539.138C1151.26 662.937 1127.9 835.513 1016.23 954.418C911.942 1065.5 750.146 1134.32 593.622 1134.32Z" fill="#1773FC"/>
        <path d="M600.559 1102.42C487.239 1102.42 368.252 1046.15 265.229 943.773C236.459 915.163 210.272 884.358 186.675 851.351C163.077 818.344 142.391 783.6 124.623 747.116C89.528 674.357 70.9337 601.694 70.8809 536.997C70.8809 470.393 88.7965 396.756 122.825 324.046C140.01 287.589 160.213 252.891 183.435 219.952C206.65 187.006 232.535 156.316 261.089 127.879C362.603 26.9663 482.812 -28.4763 599.806 -28.4763H602.577C640.146 -28.2417 677.421 -24.8528 714.414 -18.3158C751.407 -11.7723 787.595 -2.17497 822.964 10.4828C899.411 38.3149 962.886 78.6631 1011.66 130.65C1056.95 178.892 1090.2 243.985 1110.48 324.119C1126.2 386.36 1134.2 458.052 1134.27 537.07C1134.27 656.848 1113.2 822.337 1011.66 930.505C961.887 983.518 896.876 1027.44 823.716 1057.49C788.621 1071.94 752.481 1082.94 715.286 1090.5C678.099 1098.06 640.529 1102.03 602.577 1102.42H600.559ZM599.806 -27.2895C483.126 -27.2895 363.233 28.0397 261.941 128.703C144.725 245.2 72.1005 401.629 72.1005 536.97C72.2215 666.567 148.353 825.895 266.099 942.901C368.853 1045.05 487.58 1101.18 600.557 1101.18H602.577C755.913 1100.26 912.237 1034.5 1010.76 929.532C1112.03 821.728 1133.15 656.56 1133.06 536.997C1132.89 354.098 1091.69 217.636 1010.76 131.436C918.588 33.4222 766.009 -26.0202 602.577 -27.2624L599.806 -27.2895Z" fill="#1773FC"/>
        <path d="M618.225 1069.33C512.499 1069.33 400.474 1015.75 302.535 918.349C189.384 805.855 116.203 654.802 116.03 533.608C115.881 408.81 187.54 256.838 298.565 146.435C395.021 50.5629 508.072 -2.10797 617.159 -2.10797H619.762C655.513 -1.9134 691.011 1.23462 726.239 7.32189C761.474 13.4156 795.958 22.3751 829.706 34.2005C903.035 60.4012 963.711 98.7031 1010.03 148.039C1052.77 193.549 1083.83 255.575 1102.32 332.421C1116.41 390.864 1123.32 456.757 1123.42 533.608C1123.42 605.735 1116.12 671.191 1101.51 728.197C1082.83 801.251 1052.01 861.028 1009.98 905.814C962.591 956.318 900.458 998.13 830.456 1026.74C796.985 1040.45 762.528 1050.89 727.071 1058.06C691.621 1065.22 655.809 1068.97 619.641 1069.33H618.225V1069.33ZM619.789 1068.11C766.257 1067.38 915.477 1004.8 1009.2 904.962C1084.43 824.775 1122.47 699.829 1122.25 533.589C1122.01 357.919 1083.97 228.47 1009.2 148.846C922.238 56.3074 776.648 0.301674 619.789 -0.913461H617.207C508.442 -0.913461 395.726 51.6569 299.47 147.307C188.606 257.448 117.102 409.132 117.249 533.607C117.417 654.585 190.484 805.29 303.414 917.571C401.077 1014.69 512.841 1068.11 618.225 1068.11H619.789V1068.11Z" fill="#1773FC"/>
        <path d="M641.012 1035.14C541.638 1035.14 436.125 984.632 343.714 892.76C236.358 786.056 166.872 643.331 166.705 529.151C166.511 411.735 234.58 268.112 340.091 163.281C431.087 72.8451 537.451 23.147 639.864 23.147H642.52C676.32 23.3145 709.878 26.2615 743.189 31.9854C776.506 37.7041 809.126 46.1198 841.047 57.2339C910.438 81.9244 967.848 118.113 1011.68 164.791C1052.06 207.77 1081.32 266.482 1098.67 339.293C1111.76 394.253 1118.14 456.32 1118.31 529.058C1118.31 597.091 1111.54 658.795 1097.91 712.493C1080.34 781.721 1051.33 838.237 1011.68 880.513C966.83 928.291 908.097 967.835 841.799 994.962C810.159 1007.9 777.579 1017.75 744.061 1024.51C710.549 1031.26 676.703 1034.81 642.52 1035.14H641.012V1035.14ZM639.866 24.3621C537.789 24.3621 431.747 73.9185 340.965 164.134C235.681 268.844 167.752 412.051 167.947 529.151C168.114 643.016 237.452 785.418 344.592 891.981C436.782 983.611 541.999 1033.99 641.011 1033.99H642.493C781.1 1033.29 922.216 974.235 1010.78 879.853C1081.56 804.364 1117.34 686.458 1117.09 529.204C1116.83 360.52 1082.05 241.642 1010.78 165.762C928.839 78.4955 791.156 25.6507 642.494 24.5296L639.866 24.3621Z" fill="#1773FC"/>
        <path d="M670.653 1000.15H669.949C564.927 999.975 452.043 940.485 360.27 836.995C339.778 813.961 321.138 789.518 304.335 763.667C287.532 737.822 272.755 710.862 260.018 682.781C235.293 627.385 222.193 572.473 222.126 523.942C222.126 469.056 237.164 407.836 265.934 346.89C280.477 316.219 297.514 287.01 317.06 259.259C336.606 231.515 358.366 205.635 382.346 181.616C468.721 95.2472 570.671 47.6907 669.536 47.6907H670.1C701.847 47.6701 733.366 50.3477 764.658 55.7237C795.949 61.0932 826.556 69.0799 856.479 79.6836C921.174 103.039 974.91 137.227 1016.24 181.227C1054.6 222.112 1082.44 277.193 1098.99 345.011C1111.62 396.83 1117.82 455.319 1117.92 523.842C1118.12 654.949 1066.23 782.157 975.568 872.867C956.022 892.551 934.785 910.215 911.858 925.839C888.938 941.469 864.744 954.786 839.275 965.785C812.639 977.215 785.123 985.825 756.723 991.611C728.326 997.398 699.637 1000.24 670.653 1000.15ZM669.412 48.8311C570.917 48.8311 469.255 96.2471 383.095 182.421C285.887 279.629 223.191 413.756 223.338 523.869C223.633 726.613 444.503 998.564 669.975 998.927H670.625C784.85 998.927 892.763 953.881 974.563 872.035C1065.01 781.552 1116.77 654.66 1116.58 523.823C1116.36 366.247 1083.21 254.454 1015.26 182.059C937.161 98.8513 808.066 49.0256 669.948 48.7847L669.412 48.8311Z" fill="#1773FC"/>
        <path d="M702.025 964.108H701.469C601.679 963.987 495.563 908.706 410.188 812.478C391.01 790.941 373.598 768.062 357.935 743.855C342.273 719.64 328.556 694.372 316.777 668.05C293.796 616.01 281.628 563.976 281.582 517.561C281.582 465.38 295.527 407.642 322.083 350.589C335.526 321.939 351.336 294.65 369.506 268.737C387.677 242.817 407.935 218.656 430.291 196.254C511.045 115.51 607.18 71.0398 701.027 71.0398H701.47C716.301 70.9599 731.091 71.6712 745.847 73.1737C760.597 74.6839 775.226 76.9789 789.736 80.0599C804.245 83.1473 818.545 86.9989 832.637 91.6172C846.73 96.2419 860.534 101.604 874.05 107.718C899.278 119.282 923.043 133.322 945.345 149.846C967.649 166.363 988.006 185.006 1006.43 205.778C1080.39 288.57 1121.21 399.367 1121.36 517.467C1121.5 640.218 1072.82 759.439 987.759 844.546C969.44 863.049 949.539 879.653 928.054 894.351C906.562 909.055 883.884 921.593 860.004 931.969C835.052 942.666 809.267 950.72 782.665 956.136C756.055 961.552 729.178 964.209 702.025 964.108ZM701.026 72.3812C607.494 72.3812 511.675 116.697 431.162 197.253C339.529 288.91 282.701 411.687 282.701 517.681C282.916 609.922 332.056 722.545 411.087 811.673C496.268 907.639 602.068 962.645 701.469 962.887H702.006C808.945 962.887 910.098 920.592 986.881 843.766C1071.73 758.901 1120.28 639.996 1120.14 517.466C1119.82 264.045 939.838 72.6029 701.469 72.3812H701.026Z" fill="#1773FC"/>
        <path d="M736.636 927.532H736.294C641.495 927.532 541.952 876.639 463.171 788.123C388.836 704.599 344.419 600.916 344.352 510.742C344.352 409.91 396.651 294.824 481.108 210.354C556.167 135.281 646.606 93.9315 735.98 93.9315H736.295C750.073 93.858 763.817 94.5294 777.52 95.9378C791.231 97.3539 804.82 99.4943 818.289 102.374C831.765 105.253 845.046 108.844 858.133 113.16C871.219 117.469 884.039 122.475 896.588 128.167C920.145 138.998 942.341 152.133 963.181 167.569C984.015 183.005 1003.04 200.415 1020.28 219.803C1037.58 239.259 1052.93 260.165 1066.31 282.507C1079.69 304.856 1090.87 328.258 1099.86 352.707C1109.26 377.983 1116.34 403.889 1121.11 430.432C1125.87 456.976 1128.24 483.727 1128.22 510.693C1128.22 625.143 1082.83 736.35 1003.41 815.812C986.303 833.067 967.716 848.549 947.661 862.261C927.605 875.965 906.436 887.664 884.153 897.335C860.857 907.368 836.79 914.926 811.945 920.013C787.098 925.102 761.992 927.605 736.636 927.532ZM735.98 95.1466C646.995 95.1466 556.798 136.348 481.959 211.226C397.744 295.461 345.472 410.225 345.666 510.742C345.666 600.621 390.031 704.017 464.164 787.317C542.73 875.565 641.836 926.122 736.394 926.317H736.71C836.493 926.317 930.903 886.793 1002.66 815.009C1081.85 735.767 1127.19 624.876 1127.1 510.621C1126.83 306.663 980.601 95.4146 736.267 95.1466H735.98Z" fill="#1773FC"/>
        <path d="M773.73 890.565C726.95 890.565 680.171 878.585 634.706 855.014C592.965 833.391 552.88 801.787 518.758 763.625C450.608 687.31 409.792 590.076 409.745 503.486C409.745 455.93 421.382 404.815 443.478 355.654C454.552 331.151 467.726 307.836 482.992 285.702C498.265 263.575 515.384 242.985 534.359 223.938C603.622 154.516 688.542 116.214 773.461 116.214H773.728C875.678 116.214 969.117 157.831 1036.78 233.099C1052.93 251.159 1067.26 270.574 1079.78 291.334C1092.29 312.091 1102.77 333.83 1111.21 356.555C1120 380.032 1126.62 404.105 1131.06 428.776C1135.5 453.448 1137.69 478.32 1137.63 503.393C1137.63 602.185 1100.27 700.319 1035 772.661C966.442 848.64 873.661 890.565 773.73 890.565ZM773.361 117.623C688.784 117.623 604.161 155.683 535.065 224.77C458.376 301.475 410.745 408.279 410.792 503.44C410.792 677.063 578.289 889.23 773.556 889.304H773.73C873.224 889.304 965.656 847.613 1034 771.881C1099.18 699.734 1136.37 601.889 1136.37 503.393C1136.37 287.153 976.925 117.678 773.73 117.529L773.361 117.623Z" fill="#1773FC"/>
        <path d="M812.89 853.043C801.634 852.996 790.426 852.284 779.265 850.915C768.096 849.547 757.043 847.533 746.115 844.868C735.181 842.197 724.449 838.902 713.905 834.976C703.361 831.049 693.078 826.52 683.07 821.385C662.819 811.049 643.71 798.922 625.732 785.003C607.756 771.084 591.228 755.614 576.149 738.593C560.916 721.62 547.212 703.5 535.031 684.218C522.851 664.935 512.36 644.775 503.572 623.734C486.099 581.487 476.803 537.211 476.803 495.694C476.803 410.466 512.575 321.781 574.982 252.185C590 235.185 606.495 219.749 624.451 205.89C642.414 192.031 661.524 179.997 681.774 169.783C691.889 164.675 702.265 160.165 712.905 156.259C723.542 152.353 734.376 149.078 745.39 146.434C756.41 143.789 767.545 141.79 778.795 140.434C790.043 139.085 801.339 138.386 812.668 138.346C824.065 138.292 835.434 138.85 846.77 140.004C858.106 141.158 869.354 142.909 880.51 145.252C891.658 147.601 902.658 150.534 913.499 154.044C924.345 157.561 934.97 161.635 945.38 166.279C955.79 170.917 965.925 176.098 975.785 181.809C985.645 187.528 995.183 193.749 1004.38 200.473C1013.58 207.198 1022.41 214.392 1030.85 222.057C1039.29 229.721 1047.3 237.808 1054.88 246.318C1069.85 262.99 1083.15 280.902 1094.77 300.062C1106.39 319.224 1116.14 339.297 1124 360.277C1132.19 381.907 1138.37 404.101 1142.52 426.86C1146.66 449.618 1148.71 472.559 1148.68 495.693C1148.68 587.034 1114.12 677.692 1053.76 744.436C990.676 814.472 905.153 853.043 812.89 853.043ZM812.89 851.828C904.718 851.828 989.999 813.398 1053.08 743.633C1113.23 677.11 1147.69 586.741 1147.66 495.695C1147.66 296.019 1000.56 139.636 812.863 139.563C725.71 139.563 641.596 179.844 576.001 252.992C513.794 322.368 478.136 410.837 478.136 495.695C478.062 660.379 624.336 851.828 812.862 851.828H812.89Z" fill="#1773FC"/>
        <path d="M854.947 815.425H853.143C832.396 815.231 811.924 812.741 791.734 807.942C771.544 803.144 752.139 796.171 733.519 787.003C714.993 777.922 697.492 767.17 681.017 754.742C664.536 742.319 649.384 728.447 635.559 713.125C578.048 650.178 545.065 568.044 545.065 487.783C545.065 407.012 577.946 324.629 635.263 261.999C694.821 196.838 772.22 160.678 853.141 160.167H854.946C932.44 160.167 1005.84 190.872 1062.16 246.785C1125.12 309.361 1161.22 397.22 1161.22 487.857C1161.21 499.004 1160.66 510.125 1159.57 521.22C1158.48 532.313 1156.84 543.326 1154.67 554.26C1152.49 565.194 1149.79 575.999 1146.56 586.663C1143.33 597.334 1139.59 607.818 1135.33 618.118C1131.07 628.421 1126.32 638.494 1121.07 648.327C1115.83 658.165 1110.12 667.723 1103.94 676.998C1097.76 686.273 1091.14 695.226 1084.08 703.851C1077.02 712.482 1069.56 720.743 1061.7 728.635C1005.33 784.62 931.924 815.425 854.947 815.425ZM854.947 161.381H853.17C689.69 162.408 546.286 314.917 546.286 487.682C546.286 660.452 689.69 813.083 853.168 813.982H854.946C931.635 813.982 1004.69 783.305 1060.82 727.492C1068.66 719.627 1076.1 711.391 1083.13 702.794C1090.16 694.197 1096.76 685.277 1102.92 676.035C1109.07 666.794 1114.77 657.271 1119.99 647.465C1125.22 637.666 1129.95 627.632 1134.19 617.365C1138.44 607.102 1142.17 596.653 1145.39 586.022C1148.61 575.392 1151.3 564.627 1153.47 553.734C1155.64 542.836 1157.27 531.862 1158.35 520.809C1159.45 509.755 1160 498.668 1160 487.56C1160 397.32 1124.03 309.803 1061.31 247.413C1005.33 191.966 932.098 161.381 854.947 161.381Z" fill="#1773FC"/>
        <path d="M895.542 777.701H893.792C820.094 777.19 749.657 744.151 695.48 684.661C643.495 627.581 613.679 552.924 613.679 479.816C613.679 406.716 643.374 331.622 695.137 274.737C749.148 215.395 819.678 182.421 893.792 181.912H895.542C964.516 181.912 1030.74 210.012 1082.24 261.173C1096.56 275.515 1109.37 291.099 1120.68 307.918C1131.99 324.736 1141.58 342.488 1149.46 361.159C1157.44 379.924 1163.48 399.3 1167.6 419.273C1171.71 439.246 1173.82 459.427 1173.92 479.816C1173.92 559.298 1139.51 640.923 1081.87 698.225C1030.23 749.526 964.127 777.701 895.542 777.701ZM895.542 183.126H893.811C745.35 184.153 614.892 322.783 614.892 479.816C614.892 636.856 745.229 775.439 893.811 776.485H895.542C963.812 776.485 1029.6 748.432 1081.02 697.344C1138.44 640.291 1172.71 558.983 1172.71 479.816C1172.71 400.267 1138.64 318.858 1081.37 262.052C1030.11 211.18 964.174 183.126 895.542 183.126Z" fill="#1773FC"/>
        <path d="M931.393 740.083C870.226 740.083 811.326 715.096 765.231 669.466C713.051 617.889 681.895 544.011 681.895 471.829C681.895 399.656 713.025 325.73 765.184 274.199C811.964 227.931 871.984 202.904 934.07 203.582C1001 204.415 1064.59 234.341 1113.15 287.836C1159.59 338.97 1186.16 406.037 1186.16 471.761C1186.16 537.479 1159.54 604.418 1113.15 655.633C1064.47 709.203 1000.95 739.129 934.07 739.935L931.393 740.083ZM931.393 204.944C870.541 204.944 811.964 229.81 766.109 275.126C714.172 326.462 683.162 400.024 683.189 471.903C683.21 543.788 714.219 617.325 766.157 668.661C812.694 714.66 872.346 739.64 934.09 738.861C1067.78 737.157 1185.04 612.507 1185.04 471.903C1185.04 331.307 1067.73 206.603 934.07 204.944H931.393Z" fill="#1773FC"/>
        <path d="M971.673 702.653C916.69 702.653 863.826 680.224 822.648 639.339C776.546 593.607 749.024 528.159 748.997 464.213C748.97 400.267 776.498 334.737 822.648 288.885C864.215 247.711 917.641 225.308 973.302 225.791C1031.98 226.301 1088.47 253.771 1132.4 303.133C1173.14 348.911 1197.48 409.132 1197.53 464.213C1197.58 519.293 1173.19 579.487 1132.3 625.365C1088.22 674.748 1031.71 702.191 973.302 702.653H971.673ZM971.424 226.986C916.857 226.986 864.336 249.268 823.501 289.837C777.593 335.394 750.192 400.582 750.213 464.213C750.24 527.836 777.647 592.977 823.501 638.487C864.873 679.494 918.005 701.802 973.229 701.44C1098.91 700.46 1196.31 573.104 1196.24 464.213C1196.24 353.193 1100.76 228.153 973.229 227.013L971.424 226.986Z" fill="#1773FC"/>
        <path d="M1010.59 665.613C957.044 665.613 907.099 642.728 869.864 601.23C865.477 596.311 861.325 591.204 857.401 585.915C853.477 580.621 849.801 575.157 846.367 569.532C842.932 563.908 839.766 558.136 836.848 552.231C833.937 546.317 831.301 540.284 828.933 534.136C826.564 527.982 824.479 521.74 822.675 515.398C820.871 509.062 819.355 502.652 818.127 496.184C816.9 489.707 815.968 483.191 815.33 476.627C814.686 470.069 814.344 463.492 814.297 456.902C814.351 449.849 814.74 442.808 815.478 435.789C816.216 428.769 817.296 421.803 818.719 414.889C820.134 407.97 821.884 401.144 823.971 394.4C826.057 387.662 828.465 381.031 831.194 374.527C833.931 368.017 836.969 361.662 840.324 355.447C843.678 349.239 847.327 343.206 851.264 337.353C855.208 331.5 859.428 325.856 863.922 320.413C868.416 314.97 873.158 309.762 878.162 304.783C914.672 268.259 961.572 248.192 1010.25 248.192H1010.59C1059.87 248.192 1110.37 273.346 1148.88 316.909C1185.12 357.843 1206.8 410.177 1206.85 456.902C1206.85 508.379 1181.13 566.217 1139.58 607.882C1102.3 645.09 1056.51 665.613 1010.59 665.613ZM1010.2 249.415C961.861 249.415 915.282 269.381 878.967 305.663C873.989 310.61 869.274 315.79 864.8 321.199C860.332 326.609 856.14 332.226 852.223 338.045C848.298 343.864 844.677 349.857 841.343 356.031C838.008 362.206 834.983 368.527 832.267 374.997C829.551 381.467 827.155 388.057 825.083 394.763C823.011 401.469 821.266 408.253 819.858 415.132C818.449 422.004 817.377 428.93 816.639 435.91C815.907 442.89 815.518 449.89 815.465 456.904C815.465 557.058 893.959 664.353 1010.54 664.399C1056.15 664.399 1101.64 643.989 1138.61 606.977C1179.98 565.582 1205.59 508.091 1205.54 456.904C1205.54 363.079 1118.41 249.609 1010.49 249.415H1010.2Z" fill="#1773FC"/>
        <path d="M1046.78 629.064H1045.24C999.712 628.48 956.997 608.662 924.988 573.278C923.083 571.205 921.218 569.084 919.414 566.923C917.603 564.769 915.839 562.568 914.135 560.319C912.425 558.077 910.767 555.796 909.171 553.481C907.568 551.158 906.019 548.803 904.53 546.414C903.035 544.025 901.599 541.595 900.217 539.139C898.841 536.683 897.52 534.192 896.253 531.669C894.992 529.152 893.784 526.602 892.638 524.031C891.498 521.454 890.411 518.85 889.385 516.226C888.358 513.603 887.399 510.951 886.493 508.28C885.594 505.608 884.756 502.918 883.978 500.205C883.2 497.493 882.489 494.769 881.839 492.024C881.195 489.279 880.605 486.527 880.089 483.755C879.566 480.984 879.11 478.205 878.713 475.413C878.324 472.621 877.996 469.815 877.735 467.01C877.473 464.205 877.279 461.393 877.145 458.574C877.017 455.762 876.95 452.943 876.95 450.124C876.95 447.306 877.017 444.487 877.145 441.669C877.279 438.857 877.473 436.044 877.735 433.232C877.996 430.427 878.324 427.628 878.713 424.836C879.109 422.044 879.565 419.265 880.089 416.494C880.605 413.722 881.195 410.963 881.839 408.218C882.489 405.48 883.2 402.748 883.978 400.037C884.756 397.333 885.594 394.641 886.493 391.971C887.399 389.299 888.358 386.649 889.385 384.024C890.411 381.393 891.498 378.796 892.638 376.219C893.785 373.642 894.992 371.098 896.253 368.575C897.52 366.059 898.841 363.569 900.217 361.105C901.599 358.649 903.035 356.227 904.53 353.836C906.019 351.441 907.568 349.084 909.171 346.77C910.768 344.448 912.425 342.166 914.135 339.925C915.839 337.683 917.603 335.482 919.414 333.321C921.218 331.16 923.083 329.045 924.988 326.972C957.138 291.368 999.852 271.523 1045.3 271.107H1046.32C1083.48 271.107 1121.33 288.329 1153.04 319.69C1189.72 355.999 1213.45 407.18 1213.52 450.086C1213.59 492.992 1189.91 544.226 1153.14 580.582C1121.5 611.896 1083.77 629.064 1046.78 629.064ZM1046.32 272.327H1045.2C945.119 273.253 877.995 364.856 878.089 450.085C878.21 545.272 954.73 626.681 1045.2 627.849H1046.73C1083.41 627.849 1120.82 610.802 1152.24 579.728C1188.75 543.567 1212.38 492.675 1212.31 450.085C1212.23 407.494 1188.65 356.656 1152.19 320.561C1120.77 289.421 1083.22 272.327 1046.32 272.327Z" fill="#1773FC"/>
        <path d="M1075.23 593.171C1041.38 593.171 1008.71 579.319 983.111 554.037C953.906 525.159 936.332 483.983 936.285 443.924C936.285 404.965 954.054 364.226 984.01 334.616C1010.61 308.367 1043.49 294.166 1076.64 294.657C1110.72 295.167 1146.18 313.261 1174.22 344.261C1200.99 373.844 1216.95 411.1 1217 443.925C1217 510.797 1154.55 592.273 1076.64 593.173H1075.23V593.171ZM1074.99 295.871C1042.74 295.871 1010.79 309.897 984.935 335.495C955.192 364.856 937.478 405.38 937.551 443.924C937.551 483.669 954.977 524.5 984.009 553.185C1009.74 578.561 1042.67 592.366 1076.69 591.958C1153.92 591.079 1215.95 510.26 1215.83 443.925C1215.83 411.395 1199.92 374.456 1173.37 345.087C1145.57 314.309 1110.33 296.389 1076.69 295.872H1074.99V295.871Z" fill="#1773FC"/>
        <path d="M1102.3 558.083C1095.47 558.029 1088.72 557.311 1082.03 555.935C1075.35 554.559 1068.86 552.546 1062.57 549.894C1056.28 547.244 1050.31 544.008 1044.65 540.184C1039 536.364 1033.77 532.029 1028.96 527.177C1027.49 525.748 1026.05 524.271 1024.64 522.767C1023.24 521.257 1021.87 519.713 1020.54 518.136C1019.21 516.559 1017.92 514.954 1016.68 513.31C1015.43 511.672 1014.23 510.001 1013.06 508.296C1011.9 506.598 1010.78 504.867 1009.7 503.108C1008.63 501.35 1007.6 499.565 1006.61 497.76C1005.62 495.948 1004.68 494.115 1003.79 492.262C1002.89 490.403 1002.03 488.524 1001.24 486.625C1000.43 484.725 999.681 482.806 998.976 480.873C998.272 478.933 997.615 476.98 997.004 475.013C996.4 473.041 995.838 471.06 995.328 469.06C994.824 467.06 994.362 465.054 993.96 463.033C993.55 461.013 993.195 458.98 992.887 456.946C992.578 454.906 992.323 452.859 992.122 450.813C991.915 448.759 991.767 446.705 991.666 444.645C991.566 442.585 991.512 440.524 991.518 438.464C991.518 436.404 991.572 434.343 991.679 432.283C991.78 430.222 991.941 428.168 992.149 426.122C992.356 424.068 992.619 422.022 992.927 419.988C993.236 417.949 993.598 415.922 994.014 413.901C994.424 411.881 994.886 409.874 995.402 407.874C995.912 405.881 996.475 403.894 997.086 401.928C997.696 399.961 998.361 398.008 999.071 396.068C999.782 394.135 1000.54 392.223 1001.35 390.324C1002.15 388.424 1003 386.552 1003.9 384.693C1004.8 382.84 1005.75 381.009 1006.74 379.203C1007.73 377.398 1008.76 375.613 1009.84 373.861C1010.93 372.102 1012.05 370.378 1013.22 368.679C1014.38 366.981 1015.59 365.31 1016.85 363.673C1018.09 362.036 1019.39 360.431 1020.72 358.854C1022.05 357.283 1023.42 355.74 1024.83 354.237C1026.24 352.733 1027.68 351.264 1029.16 349.834C1034.05 344.887 1039.37 340.485 1045.15 336.613C1050.91 332.741 1057.01 329.486 1063.43 326.834C1069.86 324.19 1076.48 322.209 1083.3 320.895C1090.12 319.579 1097.01 318.962 1103.95 319.029C1164.33 320.244 1216.22 385.774 1216.35 438.545C1216.47 491.31 1164.63 557.082 1103.95 558.082H1102.3V558.083ZM1101.96 320.226C1095.26 320.287 1088.63 321.004 1082.07 322.367C1075.51 323.735 1069.14 325.722 1062.97 328.333C1056.8 330.95 1050.94 334.131 1045.4 337.897C1039.85 341.655 1034.72 345.917 1030.01 350.688C1028.54 352.104 1027.11 353.561 1025.72 355.05C1024.32 356.54 1022.97 358.064 1021.65 359.621C1020.33 361.177 1019.05 362.769 1017.81 364.392C1016.58 366.016 1015.37 367.668 1014.22 369.352C1013.06 371.03 1011.95 372.741 1010.88 374.479C1009.81 376.218 1008.78 377.983 1007.8 379.774C1006.82 381.559 1005.88 383.378 1004.99 385.211C1004.1 387.05 1003.25 388.909 1002.46 390.788C1001.66 392.666 1000.91 394.566 1000.2 396.479C999.504 398.399 998.847 400.332 998.243 402.278C997.633 404.232 997.077 406.19 996.567 408.171C996.063 410.144 995.601 412.137 995.191 414.137C994.789 416.137 994.426 418.143 994.118 420.164C993.809 422.184 993.554 424.211 993.347 426.238C993.146 428.271 992.985 430.305 992.884 432.346C992.778 434.386 992.724 436.427 992.724 438.467C992.724 440.506 992.77 442.548 992.872 444.587C992.972 446.627 993.12 448.661 993.321 450.695C993.522 452.73 993.777 454.749 994.08 456.77C994.389 458.79 994.737 460.803 995.14 462.803C995.549 464.803 995.999 466.79 996.501 468.769C997.004 470.748 997.561 472.715 998.165 474.662C998.762 476.615 999.413 478.548 1000.12 480.467C1000.82 482.387 1001.56 484.286 1002.35 486.165C1003.15 488.051 1003.99 489.909 1004.87 491.748C1005.76 493.587 1006.7 495.399 1007.67 497.191C1008.65 498.984 1009.67 500.748 1010.74 502.494C1011.81 504.232 1012.91 505.943 1014.07 507.628C1015.22 509.312 1016.42 510.97 1017.65 512.594C1018.88 514.217 1020.16 515.815 1021.47 517.372C1022.79 518.936 1024.14 520.459 1025.53 521.955C1026.93 523.445 1028.36 524.909 1029.82 526.325C1034.66 531.23 1039.94 535.607 1045.66 539.453C1051.38 543.298 1057.42 546.534 1063.79 549.164C1070.16 551.795 1076.73 553.768 1083.49 555.077C1090.26 556.393 1097.09 557.023 1103.98 556.964C1164 555.964 1215.3 491.072 1215.18 438.642C1215.06 386.212 1163.73 321.542 1103.98 320.347L1101.96 320.226Z" fill="#1773FC"/>
        <path d="M1127.44 523.917H1126.63C1120.91 523.795 1115.26 523.084 1109.68 521.789C1104.11 520.494 1098.73 518.635 1093.54 516.219C1088.35 513.809 1083.46 510.883 1078.88 507.454C1074.29 504.031 1070.11 500.165 1066.33 495.869C1062.52 491.668 1059.13 487.165 1056.15 482.352C1053.17 477.54 1050.64 472.493 1048.58 467.218C1046.52 461.949 1044.95 456.533 1043.88 450.97C1042.8 445.413 1042.23 439.802 1042.18 434.138C1042.18 391.253 1076.09 344.937 1126.63 344.333C1145.2 344.111 1164.21 352.709 1180.18 368.515C1198.87 386.944 1210.97 412.709 1211.04 434.138C1211.11 455.567 1198.99 481.111 1180.18 499.668C1164.26 515.346 1145.6 523.917 1127.44 523.917ZM1127.22 345.548H1126.63C1076.79 346.159 1043.34 391.816 1043.37 434.138C1043.37 481.4 1081.53 521.97 1126.63 522.701C1144.67 522.969 1163.46 514.493 1179.38 498.789C1197.94 480.473 1209.92 454.957 1209.87 434.138C1209.82 413.32 1197.85 387.601 1179.38 369.387C1163.65 353.997 1145.2 345.548 1127.22 345.548Z" fill="#1773FC"/>
        <path d="M1141.43 490.896C1138.18 490.884 1134.95 490.554 1131.76 489.909C1128.57 489.259 1125.47 488.312 1122.46 487.057C1119.46 485.808 1116.61 484.272 1113.9 482.459C1111.19 480.647 1108.68 478.587 1106.38 476.284C1104.85 474.814 1103.4 473.27 1102.03 471.653C1100.65 470.036 1099.36 468.358 1098.16 466.605C1096.96 464.861 1095.84 463.055 1094.81 461.196C1093.79 459.336 1092.87 457.424 1092.04 455.471C1091.21 453.517 1090.47 451.525 1089.84 449.498C1089.22 447.471 1088.69 445.417 1088.27 443.337C1087.85 441.256 1087.53 439.162 1087.32 437.049C1087.12 434.936 1087.01 432.821 1087.01 430.694C1087.01 428.573 1087.13 426.452 1087.34 424.345C1087.56 422.23 1087.88 420.136 1088.31 418.057C1088.74 415.977 1089.27 413.923 1089.91 411.896C1090.54 409.876 1091.28 407.882 1092.12 405.936C1092.95 403.983 1093.88 402.077 1094.92 400.218C1095.94 398.365 1097.06 396.559 1098.28 394.821C1099.48 393.076 1100.78 391.398 1102.16 389.781C1103.54 388.171 1105 386.633 1106.53 385.164C1108.96 382.748 1111.62 380.6 1114.49 378.734C1117.37 376.862 1120.4 375.305 1123.6 374.063C1126.79 372.821 1130.08 371.915 1133.46 371.358C1136.85 370.794 1140.25 370.587 1143.67 370.727C1175.9 372.089 1200.09 403.573 1200.16 430.774C1200.23 457.974 1176.12 489.484 1143.67 490.848L1141.43 490.896ZM1141.43 371.897C1138.27 371.918 1135.13 372.24 1132.03 372.87C1128.93 373.494 1125.92 374.42 1123 375.635C1120.07 376.857 1117.3 378.346 1114.67 380.105C1112.04 381.864 1109.6 383.856 1107.36 386.092C1105.85 387.529 1104.42 389.038 1103.07 390.623C1101.71 392.206 1100.45 393.851 1099.26 395.562C1098.07 397.267 1096.97 399.038 1095.97 400.857C1094.95 402.675 1094.04 404.541 1093.22 406.461C1092.4 408.373 1091.67 410.32 1091.05 412.306C1090.43 414.293 1089.91 416.306 1089.49 418.347C1089.07 420.386 1088.75 422.44 1088.53 424.507C1088.32 426.581 1088.21 428.655 1088.21 430.743C1088.21 432.824 1088.31 434.897 1088.51 436.971C1088.72 439.044 1089.02 441.098 1089.44 443.138C1089.85 445.178 1090.37 447.198 1090.98 449.185C1091.6 451.172 1092.31 453.124 1093.13 455.044C1093.94 456.956 1094.85 458.83 1095.85 460.655C1096.85 462.481 1097.95 464.245 1099.13 465.964C1100.31 467.675 1101.57 469.326 1102.92 470.917C1104.27 472.501 1105.69 474.017 1107.19 475.461C1109.56 477.83 1112.15 479.937 1114.95 481.769C1117.76 483.608 1120.73 485.131 1123.85 486.353C1126.97 487.575 1130.18 488.46 1133.49 489.01C1136.8 489.56 1140.13 489.769 1143.48 489.634C1175.27 488.318 1198.9 457.465 1198.8 430.775C1198.7 404.083 1175.07 373.285 1143.5 371.896C1142.82 371.896 1142.12 371.896 1141.41 371.896H1141.43V371.897Z" fill="#1773FC"/>
        <path d="M1154.09 459.025C1150.47 459.025 1147 458.326 1143.66 456.937C1140.32 455.555 1137.39 453.575 1134.84 451.011C1131.9 448.038 1129.65 444.622 1128.06 440.749C1126.48 436.883 1125.7 432.863 1125.71 428.681C1125.71 412.078 1138.53 398.46 1154.28 398.339H1154.48C1158.08 398.352 1161.55 399.05 1164.88 400.439C1168.2 401.822 1171.13 403.795 1173.68 406.353C1176.62 409.325 1178.88 412.741 1180.47 416.607C1182.05 420.479 1182.84 424.5 1182.83 428.681C1182.83 445.554 1170.3 458.902 1154.29 459.023H1154.09V459.025ZM1154.48 399.562H1154.28C1139.19 399.562 1126.93 412.736 1126.93 428.783C1126.92 432.797 1127.67 436.655 1129.18 440.374C1130.7 444.091 1132.87 447.373 1135.69 450.233C1138.12 452.689 1140.93 454.575 1144.12 455.904C1147.31 457.239 1150.63 457.904 1154.09 457.904H1154.28C1169.62 457.783 1181.64 444.997 1181.62 428.682C1181.62 424.662 1180.87 420.796 1179.34 417.079C1177.81 413.368 1175.63 410.079 1172.8 407.233C1170.38 404.777 1167.58 402.89 1164.4 401.562C1161.23 400.225 1157.92 399.562 1154.48 399.562Z" fill="#1773FC"/>
        <path d="M588.242 1164.25H587.028C589.604 1088.76 649.724 1020.89 689.494 976.042C741.479 917.424 799.989 863.245 856.574 810.842L873.075 795.553L887.436 782.23C941.125 732.485 996.637 681.055 1046.66 626.043C1093.78 574.205 1158.27 503.393 1157.42 427.903H1158.63C1159.51 503.708 1094.8 574.835 1047.55 626.801C997.488 681.834 941.949 733.283 888.26 783.062L873.899 796.377L857.378 811.673C800.839 864.049 742.329 918.209 690.391 976.773C650.744 1021.53 590.799 1089.1 588.242 1164.25Z" fill="#1773FC"/>
        <path d="M773.729 1132.64C769.396 1010.89 864.8 898.043 941.468 807.365C949.451 797.916 956.969 789.003 964.341 780.164C975.637 766.601 989.461 751.211 1004.06 734.943C1081.41 648.769 1187.36 530.763 1157.39 428.126L1158.56 427.783C1188.63 531.051 1082.41 649.373 1004.87 735.748C990.265 752.037 976.461 767.406 965.172 780.943C957.867 789.808 950.274 798.715 942.291 808.143C865.77 898.679 770.534 1011.32 774.841 1132.62L773.729 1132.64Z" fill="#1773FC"/>
        <path d="M950.228 1041.54C938.811 991.7 944.561 938.928 967.776 880.196C987.758 829.619 1018.2 780.988 1047.7 735.552C1056.69 721.673 1067 707.063 1077.91 691.6C1132.79 613.848 1201.08 517.097 1157.47 428.199L1158.56 427.662C1202.38 517.198 1133.98 614.312 1078.91 692.305C1068 707.768 1057.7 722.352 1048.72 736.137C996.591 816.492 925.181 926.586 951.373 1041.18L950.228 1041.54Z" fill="#1773FC"/>
        <path d="M1080.12 903.572C1075.25 894.33 1071.22 884.739 1068.03 874.786C1064.84 864.84 1062.55 854.686 1061.14 844.337C1059.74 833.982 1059.24 823.586 1059.66 813.15C1060.09 802.713 1061.41 792.392 1063.65 782.184C1072.04 741.687 1092.14 702.653 1112.64 666.54C1118.77 655.727 1125.44 644.868 1132.5 633.352C1172.66 567.923 1218.15 493.769 1157.57 428.367L1158.47 427.541C1219.68 493.627 1173.92 568.191 1133.54 633.982C1126.49 645.5 1119.82 656.365 1113.71 667.123C1073.02 738.861 1036.99 816.176 1081.22 903.035L1080.12 903.572Z" fill="#1773FC"/>
        <path d="M1150.77 732.291C1087.23 684.318 1114.05 634.882 1152.7 579.801C1155.6 575.693 1158.5 571.641 1161.39 567.627C1185.24 534.19 1207.78 502.633 1201.08 473.997C1197.07 456.957 1182.88 441.977 1157.74 428.561L1158.32 427.467C1183.78 441.077 1198.17 456.199 1202.28 473.729C1209.09 502.95 1186.41 534.608 1162.39 568.333C1159.49 572.38 1156.6 576.466 1153.7 580.507C1131.99 611.413 1117.87 635.299 1114.49 658.776C1110.55 686.238 1122.3 709.279 1151.51 731.339L1150.77 732.291Z" fill="#1773FC"/>
        <path d="M1174.58 540.528C1140.99 537.823 1123.69 532.347 1121.62 523.749C1118.92 512.428 1141.99 498.279 1166.42 483.299C1189.35 469.252 1213.06 454.716 1210.55 444.34C1208.63 436.307 1191.42 431.145 1157.98 428.534V427.34C1192.05 429.971 1209.55 435.427 1211.65 444.051C1214.35 455.3 1191.32 469.421 1166.96 484.347C1144.09 498.521 1120.31 513.132 1122.81 523.454C1124.74 531.468 1141.7 536.656 1174.68 539.306L1174.58 540.528Z" fill="#1773FC"/>
        <path d="M1158.27 428.488L1157.79 427.394C1186.67 414.776 1200.89 405.475 1200.02 399.656C1199.06 393.106 1179.13 390.723 1159.86 388.435C1137.41 385.751 1116.24 383.22 1114.71 374.476C1113.52 367.562 1125.01 358.335 1150.88 345.428L1151.41 346.522C1126.8 358.697 1114.9 368.127 1115.92 374.26C1117.29 382.099 1139.97 384.831 1160.01 387.213C1180.64 389.65 1200.14 392.085 1201.23 399.388C1202.2 405.984 1188.55 415.293 1158.27 428.488Z" fill="#1773FC"/>
        <path d="M1158.47 428.367L1157.59 427.515C1177.75 405.985 1186.46 388.696 1185.05 373.112C1182.91 351.005 1160.37 334.737 1131.82 314.139C1125.74 309.729 1119.43 305.173 1113.01 300.354C1083.65 278.22 1068.69 260.884 1062.97 242.401C1056.57 221.649 1062.04 198.347 1080.25 169.079L1081.29 169.711C1043.64 230.274 1062.67 260.884 1113.74 299.381C1120.14 304.253 1126.44 308.756 1132.53 313.139C1161.31 333.93 1184.07 350.347 1186.27 372.991C1187.7 388.944 1178.91 406.548 1158.47 428.367Z" fill="#1773FC"/>
        <path d="M1158.56 428.192L1157.47 427.681C1194.98 347.326 1133.13 298.816 1073.38 251.823C1064.84 245.079 1055.98 238.138 1047.78 231.32C978.1 173.489 934.848 117.335 950.202 31.1801L951.423 31.4017C936.136 116.965 979.192 172.83 1048.53 230.367C1056.76 237.186 1065.57 244.125 1074.13 250.85C1103.66 274.078 1134.18 298.065 1152.65 326.333C1173.61 358.602 1175.53 391.891 1158.56 428.192Z" fill="#1773FC"/>
        <path d="M1158.62 428.051L1157.42 427.856C1173.92 326.065 1076.49 261.709 998.202 210.012C986.296 202.12 975.027 194.697 964.416 187.314L953.636 179.844C875.68 125.951 768.86 51.9726 773.73 -54.8729H774.944C770.075 51.2948 876.653 124.979 954.387 178.89L965.173 186.367C975.758 193.669 987.073 201.173 998.933 209.038C1077.47 260.884 1175.31 325.481 1158.62 428.051Z" fill="#1773FC"/>
        <path d="M1157.42 427.903C1156.66 315.89 1010.25 241.864 913.357 192.816C898.754 185.514 885.151 178.548 873.199 172.145C861.246 165.742 847.354 158.702 832.771 151.299C783.583 126.414 722.376 95.4404 673.551 56.8164C616.086 11.5008 587.807 -34.7671 587.029 -84.3647H588.244C589.975 27.0849 736.416 101.212 833.308 150.298C847.911 157.607 861.708 164.667 873.755 171.143C885.808 177.62 899.412 184.391 913.894 191.7C963.034 216.56 1024.17 247.511 1072.89 286.156C1130.26 331.76 1158.27 378.129 1158.64 427.9H1157.42V427.903Z" fill="#1773FC"/>
        <path d="M1157.45 428.125C1137.75 360.695 1058.02 318.4 999.805 287.521L997.37 286.232C940.053 255.816 879.523 229.42 820.992 203.924C808.355 198.42 795.738 192.904 783.148 187.367C769.343 181.3 755.351 175.192 740.554 168.931C618.279 116.434 479.693 56.9182 410.986 -54.5378L412.012 -55.1693C480.545 55.9441 618.883 115.286 741.017 167.81C755.841 174.165 769.834 180.179 783.632 186.246C796.243 191.796 808.86 197.313 821.484 202.803C880.042 228.326 940.591 254.722 997.935 285.157L1000.37 286.425C1058.78 317.418 1138.78 359.868 1158.56 427.659L1157.45 428.125Z" fill="#1773FC"/>
        <path d="M1157.52 428.293C1118.19 370.414 1036.02 341.462 969.99 318.207C963.323 315.77 956.802 313.556 950.524 311.287C890.067 289.569 827.659 270.207 767.303 251.483C746.201 244.96 724.394 238.187 702.997 231.416L685.96 226.06C536.452 178.893 381.882 130.121 260.378 31.7663L261.137 30.8127C382.465 129.021 536.936 177.751 686.329 224.893L703.367 230.248C724.757 237.02 746.565 243.785 767.666 250.336C828.029 269.041 890.457 288.423 950.933 310.148C957.239 312.41 963.758 314.698 970.406 317.061C1036.58 340.363 1118.87 369.389 1158.52 427.591L1157.52 428.293Z" fill="#1773FC"/>
        <path d="M1157.66 428.413C1099.84 383.877 1015.7 368.218 941.489 354.414C929.831 352.246 918.811 350.172 908.005 348.058C842.022 335.005 774.603 323.709 709.377 312.629C686.014 308.683 661.847 304.588 638.088 300.454L611.319 295.85C448.932 267.964 281.046 239.159 130.708 169.904L131.218 168.81C281.409 237.964 449.228 266.776 611.514 294.628L638.284 299.26C662.043 303.347 686.211 307.414 709.573 311.434C774.778 322.441 842.217 333.836 908.2 346.891C919.007 349.005 930.101 351.052 941.685 353.246C1016.04 367.071 1100.33 382.756 1158.3 427.488L1157.66 428.413Z" fill="#1773FC"/>
        <path d="M1157.84 428.514C1084.82 404.286 1003.33 401.165 924.578 398.171C912.404 397.682 899.826 397.218 887.652 396.661C806.342 392.956 723.589 390.963 643.567 389.017L594.889 387.843C563.001 387.044 530.22 386.508 498.506 386.017C344.008 383.581 184.252 381.004 34.4492 346.567L34.7171 345.379C184.392 379.782 344.082 382.339 498.533 384.802C530.173 385.286 563.027 385.823 594.908 386.628L643.586 387.796C723.616 389.742 806.362 391.741 887.705 395.44C899.873 396.004 912.457 396.467 924.624 396.95C1003.48 399.95 1084.99 403.064 1158.27 427.366L1157.84 428.514Z" fill="#1773FC"/>
        <path d="M0.664551 540.528V539.306C195.06 538.944 391.614 510.696 581.455 483.326C770.028 456.199 964.999 428.124 1157.98 427.319V428.534C965.073 429.313 770.148 457.366 581.623 484.541C391.614 511.863 195.153 540.158 0.664551 540.528Z" fill="#1773FC"/>
        <path d="M34.8126 732.291L34.4507 731.117C204.55 677.768 381.15 635.01 551.933 593.682C752.453 545.132 959.794 494.944 1157.96 427.273L1158.35 428.413C960.256 496.11 752.894 546.298 552.321 594.848C381.438 636.298 204.866 679.03 34.8126 732.291Z" fill="#1773FC"/>
        <path d="M131.196 903.84L130.558 902.794C277.49 815.64 438.856 748.802 594.89 684.144L637.94 666.299C661.276 656.561 684.625 646.882 707.989 637.272C773.852 610.024 841.974 581.85 908.562 553.185C921.267 547.709 934.434 542.159 947.185 536.777C1020.21 506.072 1095.49 474.293 1157.65 427.469L1158.37 428.442C1096.09 475.36 1020.64 507.166 947.648 538.018C934.924 543.373 921.756 548.931 909.024 554.407C842.457 583.065 774.335 611.239 708.451 638.487L638.402 667.514L595.353 685.366C439.366 749.896 278.053 816.733 131.196 903.84Z" fill="#1773FC"/>
        <path d="M261.183 1041.86L260.332 1040.98C378.91 925.049 526.546 838.627 669.339 755.031L702.857 735.38C724.174 722.843 745.906 710.179 766.916 697.931C827.64 662.528 890.403 625.925 951.128 588.355C960.478 582.536 969.99 576.764 980.065 570.65C1043.88 531.905 1116.22 488.006 1157.52 427.684L1158.52 428.395C1117.1 488.785 1044.61 532.783 980.601 571.576C970.526 577.69 961.007 583.456 951.664 589.254C890.939 626.952 828.149 663.549 767.424 698.951C746.417 711.132 724.682 723.891 703.366 736.408C692.231 742.897 681.062 749.448 669.847 756.059C527.23 839.626 379.641 926.049 261.183 1041.86Z" fill="#1773FC"/>
        <path d="M412.032 1132.93L410.965 1132.32C481.886 1004.65 613.383 906.687 729.405 820.27C747.999 806.439 765.572 793.338 782.952 780.063C795.851 770.325 808.756 760.546 821.676 750.72C880.253 706.405 940.931 660.626 997.907 612.459C1002.9 608.244 1008.06 603.935 1013.32 599.553C1068.22 553.747 1136.56 496.721 1157.38 427.755L1158.54 428.123C1137.61 497.425 1069.12 554.572 1014.09 600.478C1008.83 604.881 1003.68 609.169 998.685 613.384C941.663 661.524 881.087 707.35 822.401 751.767C809.422 761.504 796.509 771.25 783.658 780.988C766.204 794.263 748.637 807.364 730.111 821.216C614.215 907.612 482.812 1005.48 412.032 1132.93Z" fill="#1773FC"/>
        <g opacity="0.7" filter="url(#filter0_f_15_3609)">
            <circle cx="811.5" cy="463.5" r="358.5" fill="#048BED"/>
        </g>
    </g>
    <defs>
        <filter id="filter0_f_15_3609" x="153" y="-195" width="1317" height="1317" filterUnits="userSpaceOnUse" color-interpolation-filters="sRGB">
            <feFlood flood-opacity="0" result="BackgroundImageFix"/>
            <feBlend mode="normal" in="SourceGraphic" in2="BackgroundImageFix" result="shape"/>
            <feGaussianBlur stdDeviation="150" result="effect1_foregroundBlur_15_3609"/>
        </filter>
        <clipPath id="clip0_15_3609">
            <rect width="1217" height="1250" fill="white" transform="translate(0 -85)"/>
        </clipPath>
    </defs>
</svg>
