<svg width="188" height="224" viewBox="0 0 188 224" fill="none" xmlns="http://www.w3.org/2000/svg">
    <g clip-path="url(#clip0_18_103016)">
        <path d="M114.364 59.837L157.832 53.4237L162.221 74.12L108.447 77.6082L114.364 59.837Z" fill="#F8633E"/>
        <path d="M114.364 62.7377L157.832 56.3366L162.221 77.0207L108.447 80.5211L114.364 62.7377Z" fill="#B03C2B"/>
        <path d="M178.576 152.267V158.325C178.601 144.838 178.601 131.436 178.601 131.436C178.601 136.613 178.601 144.409 178.576 152.267Z"
              fill="#DEF2FD"/>
        <path d="M178.576 179.829L178.601 179.854C178.662 186.022 174.64 192.191 166.536 196.854C150.363 206.204 124.106 206.143 107.86 196.744C99.2913 191.787 95.2085 185.202 95.6608 178.728H95.6363V154.91L95.6608 124.961L105.44 124.288C106.137 123.811 106.87 123.333 107.665 122.881C123.837 113.53 150.094 113.591 166.34 122.966C167.074 123.382 167.77 123.835 168.418 124.288L178.564 125.39H178.589C178.589 125.39 178.589 138.791 178.564 152.267V179.829H178.576Z"
              fill="url(#paint0_linear_18_103016)"/>
        <path d="M178.601 156.036C178.601 156.257 178.601 156.514 178.577 156.771C178.357 162.682 174.335 168.545 166.548 173.073C150.376 182.387 124.119 182.363 107.873 172.963C99.8296 168.312 95.759 162.242 95.6489 156.134V155.461C95.6489 155.29 95.6489 155.094 95.6734 154.923H95.6367L95.6612 124.974L105.44 124.3C106.137 123.823 106.871 123.346 107.665 122.893C123.838 113.542 150.095 113.603 166.341 122.979C167.074 123.395 167.771 123.848 168.419 124.3L178.565 125.402V156.061H178.601V156.036Z"
              fill="url(#paint1_linear_18_103016)"/>
        <path d="M169.53 151.141C151.744 161.434 122.798 161.385 104.889 151.031C93.0199 144.164 88.986 134.496 92.7877 125.769C94.7313 121.338 98.6919 117.128 104.694 113.665C113.752 108.414 125.731 105.868 137.662 105.991C149.128 106.101 160.558 108.708 169.335 113.775C187.231 124.129 187.328 140.86 169.53 151.141Z"
              fill="#59B0FC"/>
        <path d="M188.001 134.398V134.373C187.988 133.284 188.001 129.294 188.001 129.294L175.544 127.935C174.725 127.385 173.882 126.846 172.989 126.332C153.052 114.803 120.829 114.754 101.014 126.197C100.049 126.76 99.144 127.336 98.2638 127.935L86.2476 128.78L86.2109 133.015H86.2598C85.6975 140.97 90.6972 149.048 101.234 155.131C121.172 166.66 153.394 166.709 173.209 155.265C183.16 149.513 188.086 141.961 188.001 134.398Z"
              fill="url(#paint2_linear_18_103016)"/>
        <path d="M173.198 150.137C153.37 161.581 121.16 161.532 101.235 150.002C88.1797 142.463 83.6568 131.852 87.6418 122.256C87.6662 122.134 87.7151 122.024 87.7763 121.901C88.3997 120.494 89.2065 119.086 90.2211 117.728V117.703C91.1623 116.406 92.2991 115.121 93.6071 113.897C95.6363 111.939 98.1178 110.091 101.027 108.426C101.602 108.083 102.201 107.778 102.8 107.435C106.137 105.685 109.78 104.253 113.667 103.102C121.172 100.887 129.472 99.8221 137.736 99.8955C149.532 100.03 161.279 102.502 170.716 107.325C171.059 107.484 171.425 107.692 171.755 107.875C172.171 108.083 172.587 108.316 172.978 108.549C192.891 120.078 193.001 138.693 173.198 150.137Z"
              fill="#D43F2F"/>
        <path d="M166.547 146.294C150.399 155.645 124.117 155.596 107.859 146.196C97.0776 139.966 93.4226 131.191 96.8698 123.248C98.63 119.221 102.224 115.402 107.676 112.257C115.903 107.496 126.77 105.183 137.6 105.293C148.015 105.391 158.381 107.753 166.363 112.355C182.621 121.767 182.707 136.955 166.547 146.294Z"
              fill="#F86352"/>
        <path d="M159.947 135.156C147.418 142.414 127.016 142.377 114.4 135.083C106.039 130.248 103.191 123.431 105.88 117.275C107.249 114.154 110.036 111.192 114.266 108.744C120.647 105.048 129.082 103.249 137.492 103.335C145.572 103.42 153.615 105.244 159.813 108.818C172.428 116.125 172.501 127.911 159.947 135.156Z"
              fill="#FF816B"/>
        <path d="M151.145 153.013C149.812 153.796 104.106 130.689 87.6406 122.269C87.6651 122.134 87.714 122.024 87.7751 121.901C88.3985 120.494 89.2053 119.086 90.2199 117.728V117.703C90.4033 117.814 90.6355 117.911 90.8433 118.022C90.9778 118.071 91.0756 118.132 91.1856 118.181C107.541 126.161 149.837 147.493 150.472 147.861C152.074 148.791 152.758 152.071 151.145 153.013Z"
              fill="#C23A2B"/>
        <path d="M95.6848 119.784C95.4526 119.919 93.8146 119.319 91.1864 118.169C91.0764 118.12 90.9786 118.071 90.8441 118.009C90.6363 117.912 90.4285 117.826 90.2207 117.728V117.703C91.162 116.406 92.2988 115.121 93.6068 113.897C94.4624 114.338 94.9636 114.595 95.0125 114.631C96.6506 115.562 97.2984 118.854 95.6848 119.784Z"
              fill="#AB2B0E"/>
        <path d="M171.877 112.563C170.728 113.212 128.188 109.797 102.799 107.423C106.136 105.672 109.779 104.24 113.666 103.09C136.513 104.657 166.486 106.798 170.703 107.312C170.997 107.337 171.168 107.361 171.192 107.386C171.4 107.521 171.584 107.667 171.742 107.851C172.94 109.124 173.283 111.755 171.877 112.563Z"
              fill="#C23A2B"/>
        <path d="M137.258 125.647C133.469 127.837 125.743 123.627 121.917 121.424C119.387 119.955 118.519 117.899 119.338 116.039C119.753 115.096 120.597 114.191 121.88 113.456C123.812 112.33 126.366 111.792 128.909 111.816C131.354 111.841 133.786 112.392 135.669 113.481C139.483 115.684 141.048 123.456 137.258 125.647Z"
              fill="#C23A2B"/>
        <path d="M145.816 121.143C145.816 120.935 145.816 114.056 145.816 114.056L143.432 113.799C143.273 113.689 143.114 113.591 142.943 113.493C139.117 111.278 132.944 111.278 129.154 113.469C128.971 113.579 128.8 113.689 128.629 113.799L126.331 113.958L126.318 120.873H126.331C126.221 122.403 127.174 123.945 129.203 125.108C133.029 127.311 139.202 127.323 142.992 125.133C144.887 124.031 145.828 122.587 145.816 121.143Z"
              fill="url(#paint3_linear_18_103016)"/>
        <path d="M142.979 118.046C139.19 120.237 133.004 120.237 129.19 118.022C126.66 116.553 125.792 114.497 126.611 112.636C127.027 111.694 127.87 110.788 129.154 110.054C131.085 108.928 133.64 108.39 136.183 108.414C138.627 108.438 141.06 108.989 142.942 110.079C146.756 112.282 146.769 115.855 142.979 118.046Z"
              fill="#F8887A"/>
        <path d="M152.515 35.9829L143.384 53.7664L140.902 29.9368L146.318 18.1016L152.515 35.9829Z" fill="#CF3E1D"/>
        <path d="M146.317 18.1016L140.902 29.9368L127.92 24.7597L146.317 18.1016Z" fill="#F8633E"/>
        <path d="M143.384 53.7664L122.15 41.4783L127.92 24.7597L140.902 29.9368L143.384 53.7664Z" fill="#9A2100"/>
        <path d="M147.857 151.079L139.373 45.0766L145.546 44.5748L153.956 149.537C154.103 151.434 152.697 153.087 150.815 153.234L150.436 153.258C149.103 153.368 147.954 152.389 147.857 151.079Z"
              fill="#CF3E1D"/>
        <path d="M150.705 151.079L142.221 45.0766L145.558 44.8074L145.546 44.5748L139.373 45.0766L147.857 151.079C147.967 152.389 149.116 153.38 150.424 153.27L150.803 153.234C151.206 153.197 151.573 153.074 151.915 152.915C151.255 152.536 150.766 151.887 150.705 151.079Z"
              fill="#9A2100"/>
        <path d="M168.59 109.589L144.973 23.3277L158.211 6.54791L163.076 10.391L151.769 24.7107L175.056 109.772C175.374 110.923 174.689 112.11 173.552 112.428C171.401 113.016 169.176 111.743 168.59 109.589Z"
              fill="#CF3E1D"/>
        <path d="M171.804 110.47L146.708 24.772L160.619 8.46948L158.211 6.56018L145.645 23.34L153.994 54.721L168.589 109.589C169.139 111.621 171.144 112.796 173.173 112.453C172.55 111.939 172.036 111.302 171.804 110.47Z"
              fill="#9A2100"/>
        <path d="M148.188 77.6081L156.231 60.0328L159.8 58.9068L148.701 84.1438L148.188 77.6081Z" fill="#F8633E"/>
        <path d="M148.701 84.1438L159.801 58.9068L164.177 76.4087L150.156 107.692L148.701 84.1438Z" fill="#EA5F4E"/>
        <path d="M128.299 26.3018L99.1442 118.181C98.6796 119.637 97.1272 120.408 95.697 119.98L94.9513 119.735C94.6457 119.637 94.3646 119.49 94.1201 119.27C93.2522 118.609 92.8488 117.459 93.2155 116.345L121.135 28.3702L106.454 15.9965L107.823 14.3565L110.451 11.2477L128.299 26.3018Z"
              fill="#CF3E1D"/>
        <path d="M110.45 11.2477L109.057 12.8878L126.879 27.9174L97.7129 119.796V119.809C98.3608 119.49 98.8986 118.927 99.1431 118.181L128.31 26.3018L110.45 11.2477Z"
              fill="#EA5F4E"/>
        <path d="M123.287 27.3789L94.1201 119.258C93.2522 118.609 92.8488 117.459 93.2155 116.345L121.135 28.3703L106.454 15.9965L107.823 14.3565L123.287 27.3789Z"
              fill="#9A2100"/>
        <path d="M141.941 29.9368L145.461 42.2738L139.924 42.7634L139.361 29.9368C139.361 29.9368 140.963 29.3249 141.941 29.9368Z"
              fill="#EA5F4E"/>
        <path d="M175.361 22.1038V25.9224C175.422 31.6013 171.73 37.2803 164.237 41.6252C149.36 50.217 125.157 50.1925 110.158 41.5273C102.249 36.9376 98.5083 30.8548 98.9117 24.8943H98.875L98.9117 22.9973V21.6999L103.777 21.3572L104.987 21.296C104.889 21.4184 104.828 21.5775 104.767 21.6999C104.4 22.5077 104.144 23.3399 103.96 24.1844C104.804 28.3702 107.994 32.4336 113.593 35.7014C126.672 43.2774 147.808 43.3019 160.79 35.7626C166.303 32.5927 169.432 28.5905 170.276 24.4415C170.056 23.4134 169.713 22.422 169.249 21.4307L170.459 21.5898L175.361 22.1038Z"
              fill="url(#paint4_linear_18_103016)"/>
        <path d="M164.078 6.48674C156.744 2.27649 147.16 0.0979315 137.589 1.86739e-05C127.614 -0.122372 117.603 2.01947 109.999 6.38883C104.987 9.31397 101.663 12.8266 100.049 16.5106C99.3277 18.2118 98.9488 19.9498 98.9121 21.6999V22.9973C99.34 28.0888 102.812 33.119 109.29 37.0845C109.29 37.1212 109.327 37.1212 109.327 37.1212C109.608 37.3048 109.889 37.4639 110.195 37.6475C125.169 46.3372 149.373 46.3617 164.25 37.7454C164.47 37.623 164.677 37.5006 164.898 37.3782C171.865 33.1313 175.374 27.6971 175.374 22.2017V22.1038C175.337 16.4494 171.547 10.8071 164.078 6.48674ZM160.802 35.7504C147.821 43.2897 126.685 43.2652 113.605 35.6892C107.982 32.4336 104.792 28.3703 103.961 24.1722C104.144 23.34 104.401 22.4955 104.767 21.6877C104.829 21.5653 104.89 21.4062 104.987 21.2838C106.418 18.2118 109.266 15.2989 113.447 12.8388C120.084 9.02024 128.824 7.15989 137.528 7.2578C145.889 7.319 154.226 9.24054 160.644 12.9367C164.885 15.3846 167.746 18.3097 169.261 21.4062C169.726 22.3976 170.068 23.3889 170.288 24.417C169.445 28.5906 166.316 32.5927 160.802 35.7504Z"
              fill="#F8633E"/>
        <path d="M170.471 21.5775C170.532 22.5077 170.471 23.4746 170.288 24.4292C170.068 23.4011 169.726 22.4098 169.261 21.4184C167.745 18.3219 164.885 15.3968 160.643 12.949C154.225 9.25275 145.889 7.33121 137.527 7.27002C128.824 7.1721 120.084 9.04468 113.446 12.851C109.265 15.2989 106.417 18.224 104.987 21.296C104.889 21.4184 104.828 21.5775 104.767 21.6999C104.4 22.5077 104.144 23.34 103.96 24.1845C103.777 23.2543 103.716 22.2874 103.777 21.3572C103.838 19.962 104.18 18.5912 104.767 17.2326C106.161 14.0015 109.07 10.9295 113.446 8.38377C120.084 4.56517 128.824 2.70483 137.527 2.80274C145.889 2.86394 154.225 4.78548 160.643 8.48169C166.938 12.1412 170.215 16.8288 170.471 21.5775Z"
              fill="url(#paint5_linear_18_103016)"/>
        <path d="M128.493 22.4588V19.448H130.425C130.62 19.3133 130.792 19.1665 131.012 19.0318C134.336 17.1103 139.678 17.0736 142.942 18.9706C143.199 19.1175 143.395 19.2889 143.615 19.448H145.375V22.4588H145.363C145.326 23.6949 144.495 24.9311 142.857 25.8857C139.532 27.8073 134.19 27.8317 130.926 25.9469C129.264 24.98 128.457 23.7194 128.493 22.4588Z"
              fill="url(#paint6_linear_18_103016)"/>
        <path d="M128.493 19.4479L129.911 4.79773H143.92L145.338 19.2643C145.338 19.3133 145.35 19.3745 145.35 19.4235V19.4357C145.314 20.6718 144.482 21.908 142.844 22.8626C139.519 24.7842 134.178 24.8087 130.914 22.9238C129.263 21.9692 128.457 20.7086 128.493 19.4479Z"
              fill="#83AFE8"/>
        <path d="M141.965 16.5228C139.227 14.9318 134.74 14.9562 131.953 16.5718C129.166 18.1874 129.13 20.782 131.88 22.3609C134.618 23.952 139.104 23.9275 141.891 22.3119C144.679 20.7086 144.715 18.1139 141.965 16.5228Z"
              fill="#4989DF"/>
        <path d="M133.31 8.89782C135.082 5.81357 137.991 5.85029 139.801 8.9835C141.61 12.1167 141.634 17.147 139.862 20.219C138.089 23.3032 135.18 23.2665 133.371 20.1333C131.562 17.0123 131.525 11.9821 133.31 8.89782Z"
              fill="#4397E0"/>
        <path d="M141.94 21.9569C140.644 22.7035 139.043 23.1564 137.368 23.3277C137.282 23.2665 137.197 23.1564 137.111 23.0829C136.83 22.7402 136.561 22.3731 136.304 21.9447C133.909 17.8079 133.872 11.1376 136.231 7.06196C136.818 6.05836 137.49 5.29953 138.211 4.79773H142.734C142.844 4.87116 142.942 4.96908 143.052 5.06699C143.089 5.10371 143.125 5.14042 143.162 5.18938L144.433 18.3587C144.433 18.4076 144.446 18.4688 144.446 18.5178V18.53C144.421 19.7784 143.578 21.0145 141.94 21.9569Z"
              fill="#5079F7"/>
        <path d="M137.538 10.44C138.834 8.188 140.949 8.22472 142.269 10.5012C143.589 12.7777 143.601 16.4494 142.306 18.6891C141.01 20.9411 138.895 20.9044 137.575 18.6279C136.267 16.3515 136.243 12.6797 137.538 10.44Z"
              fill="#50BCF7"/>
        <path d="M141.916 1.90933C139.202 0.342722 134.765 0.3672 132.002 1.95828C129.252 3.5616 129.215 6.11958 131.929 7.69842C134.642 9.26503 139.08 9.25279 141.842 7.64946C144.605 6.04614 144.629 3.47593 141.916 1.90933Z"
              fill="#9FD6FF"/>
        <path d="M112.92 65.3201L116.379 63.9004L143.871 79.7133L145.46 84.0215L112.92 65.3201Z" fill="#F8633E"/>
        <path d="M107.004 83.0912L112.92 65.3201L145.461 84.0214L146.659 105.991L107.004 83.0912Z" fill="#9A2100"/>
        <path d="M146.708 24.7597L145.645 23.34L158.211 6.54791L160.643 8.48169L146.708 24.7597Z" fill="#EA5F4E"/>
    </g>
    <defs>
        <linearGradient id="paint0_linear_18_103016" x1="95.6302" y1="159.866" x2="178.607" y2="159.866"
                        gradientUnits="userSpaceOnUse">
            <stop offset="0.1613" stop-color="#B52E1F"/>
            <stop offset="0.1633" stop-color="#CC2F1C"/>
            <stop offset="0.5593" stop-color="#CC2F1C"/>
            <stop offset="0.5622" stop-color="#EB604E"/>
            <stop offset="0.8728" stop-color="#EB604E"/>
            <stop offset="0.8739" stop-color="#DD432E"/>
        </linearGradient>
        <linearGradient id="paint1_linear_18_103016" x1="95.6355" y1="147.967" x2="178.606" y2="147.967"
                        gradientUnits="userSpaceOnUse">
            <stop offset="0.1613" stop-color="#CC9C97"/>
            <stop offset="0.1633" stop-color="#E2A79F"/>
            <stop offset="0.5593" stop-color="#E2A79F"/>
            <stop offset="0.5622" stop-color="#FFE9E6"/>
            <stop offset="0.8728" stop-color="#FFE9E6"/>
            <stop offset="0.8739" stop-color="#F2C2BC"/>
        </linearGradient>
        <linearGradient id="paint2_linear_18_103016" x1="86.2097" y1="140.734" x2="188.003" y2="140.734"
                        gradientUnits="userSpaceOnUse">
            <stop offset="0.1613" stop-color="#D15345"/>
            <stop offset="0.1633" stop-color="#E55544"/>
            <stop offset="0.5593" stop-color="#E55544"/>
            <stop offset="0.5622" stop-color="#FF8C7D"/>
            <stop offset="0.8728" stop-color="#FF8C7D"/>
            <stop offset="0.8739" stop-color="#F36C59"/>
        </linearGradient>
        <linearGradient id="paint3_linear_18_103016" x1="126.309" y1="119.297" x2="145.816" y2="119.297"
                        gradientUnits="userSpaceOnUse">
            <stop offset="0.1613" stop-color="#B52E1F"/>
            <stop offset="0.1633" stop-color="#CC2F1C"/>
            <stop offset="0.5593" stop-color="#CC2F1C"/>
            <stop offset="0.5622" stop-color="#EB604E"/>
            <stop offset="0.8728" stop-color="#EB604E"/>
            <stop offset="0.8739" stop-color="#DD432E"/>
        </linearGradient>
        <linearGradient id="paint4_linear_18_103016" x1="98.875" y1="34.666" x2="175.365" y2="34.666"
                        gradientUnits="userSpaceOnUse">
            <stop offset="0.1613" stop-color="#D15345"/>
            <stop offset="0.1633" stop-color="#E55544"/>
            <stop offset="0.5593" stop-color="#E55544"/>
            <stop offset="0.5622" stop-color="#FF8C7D"/>
            <stop offset="0.8728" stop-color="#FF8C7D"/>
            <stop offset="0.8739" stop-color="#F36C59"/>
        </linearGradient>
        <linearGradient id="paint5_linear_18_103016" x1="103.749" y1="13.6099" x2="170.49" y2="13.6099"
                        gradientUnits="userSpaceOnUse">
            <stop offset="0.1261" stop-color="#F36C59"/>
            <stop offset="0.1272" stop-color="#FF8C7D"/>
            <stop offset="0.4378" stop-color="#FF8C7D"/>
            <stop offset="0.4407" stop-color="#E55544"/>
            <stop offset="0.8367" stop-color="#E55544"/>
            <stop offset="0.8387" stop-color="#D15345"/>
        </linearGradient>
        <linearGradient id="paint6_linear_18_103016" x1="128.49" y1="22.4527" x2="145.365" y2="22.4527"
                        gradientUnits="userSpaceOnUse">
            <stop offset="0.1613" stop-color="#D15345"/>
            <stop offset="0.1633" stop-color="#E55544"/>
            <stop offset="0.5593" stop-color="#E55544"/>
            <stop offset="0.5622" stop-color="#FF8C7D"/>
            <stop offset="0.8728" stop-color="#FF8C7D"/>
            <stop offset="0.8739" stop-color="#F36C59"/>
        </linearGradient>
        <clipPath id="clip0_18_103016">
            <rect width="201" height="224" fill="white" transform="translate(-13)"/>
        </clipPath>
    </defs>
</svg>
