<svg width="104" height="115" viewBox="0 0 104 115" fill="none" xmlns="http://www.w3.org/2000/svg">
    <path d="M70.9244 86.0475L70.9182 86.0537C69.0863 87.1316 66.2638 87.63 62.7497 87.4119C62.3385 87.6487 61.8774 87.9166 61.3665 88.2094C61.354 88.2157 61.3353 88.2281 61.3228 88.2344C59.8773 89.0692 58.1078 90.0848 56.3258 91.1128L54.0578 92.4212V92.4336C54.0204 92.4585 53.9706 92.471 53.9332 92.4959L47.8707 95.9974V96.0098C45.9953 97.1126 42.8612 97.4864 38.9234 96.8696C31.0539 95.636 22.9478 90.9383 20.8106 86.3715C19.6766 83.9603 20.443 82.0663 22.5677 81.0009L22.5615 80.9947L28.7548 77.4184L29.8764 76.7705L35.6959 73.4123L35.9015 73.2939L36.0635 73.2005L37.1912 72.5525C36.8049 70.4031 37.7956 68.6959 39.8829 67.6492L39.8704 67.643L41.1852 66.8954L41.1914 66.9016C41.8768 66.5215 42.6868 66.21 43.6151 65.992C43.665 65.9733 43.7148 65.967 43.7646 65.9484C44.3877 65.8113 45.0731 65.7054 45.8021 65.6431L45.8083 65.6368C46.5 65.5745 47.2477 65.5496 48.0265 65.5683C48.1324 65.5683 48.2445 65.5745 48.3505 65.5808L76.3265 57.2508C75.9277 56.7336 75.5975 56.2165 75.3545 55.6994C74.3202 53.4752 75.0305 51.7244 76.9807 50.7463L76.9745 50.74L77.5602 50.4036L77.9589 50.1731C78.5072 49.8678 79.1552 49.631 79.9029 49.4566C81.5354 49.089 83.6351 49.0578 86.0838 49.4379C89.7724 50.0173 93.5295 51.4254 96.5763 53.2322C99.511 54.958 101.804 57.0514 102.782 59.1136C103.767 61.2133 103.206 62.8892 101.48 63.8923L101.449 63.911L100.302 64.5714C98.5764 65.587 95.6978 65.9359 92.0404 65.3689C90.9998 65.2069 89.9531 64.9702 88.9125 64.6836L74.4635 79.381C74.4572 79.3872 74.4386 79.3935 74.4323 79.4059C75.3545 81.9043 74.5756 83.9043 72.4696 85.1441L72.4759 85.1503C72.4883 85.1441 71.2546 85.8544 70.9244 86.0475ZM78.2082 55.2757C78.3951 55.6745 78.6443 56.0732 78.9434 56.472L82.7877 55.3256L82.1148 50.9768C81.3235 50.9893 80.5945 51.0516 79.959 51.1886C79.8904 51.1949 79.8281 51.2073 79.7658 51.2198C79.4045 51.2945 79.068 51.4005 78.7564 51.5188C77.7346 52.4035 77.4729 53.6932 78.2082 55.2757ZM99.8039 62.6836C100.277 61.8799 100.29 60.8831 99.7665 59.7242L93.38 60.1417L90.3705 63.2008C91.1743 63.4126 91.9781 63.5808 92.7818 63.7054C95.4611 64.1291 97.6543 63.9796 99.1933 63.3939C99.4425 63.1821 99.6419 62.9453 99.8039 62.6836ZM73.9089 67.9109L73.7469 67.8299L73.8155 67.9732L73.9089 67.9109ZM73.3606 77.3437L78.4636 72.1476L70.2017 73.9481C71.4914 75.0509 72.5693 76.1911 73.3606 77.3437ZM61.9833 63.2755L52.7058 66.0356C52.7556 66.0418 52.7992 66.0543 52.849 66.0605C54.4192 66.3471 55.9831 66.7396 57.5346 67.2318C60.3446 68.1165 63.055 69.319 65.4663 70.6897L61.9833 63.2755ZM84.8688 65.6368L86.5511 63.9235C85.9779 63.7117 85.4109 63.4874 84.8626 63.2444L84.146 63.3752L82.389 64.5652L84.8688 65.6368ZM98.8319 58.2165C98.1714 57.3816 97.2991 56.5592 96.2586 55.7866L93.2803 57.88L93.7227 58.0046L93.2367 58.5841L98.8319 58.2165ZM77.5851 58.6339L72.2578 60.2164L80.2082 63.6369L81.417 62.8207L80.5447 60.9578C79.4169 60.2227 78.4262 59.4376 77.5851 58.6339ZM91.7413 53.1886C89.6727 52.2665 87.4109 51.5562 85.1679 51.2011C85.062 51.1824 84.9622 51.1762 84.8563 51.1637L85.604 56.0047L85.9903 55.8988L86.4826 56.0296C86.5386 55.8489 86.6695 55.6994 86.8751 55.5873L87.7972 55.0515L91.7413 53.1886Z"
          fill="#2874A6"/>
    <path d="M38.3496 30.4602L16.1868 27.1955L13.9562 37.7311L41.3652 39.5067L38.3496 30.4602Z" fill="#F8633E"/>
    <path d="M38.3496 31.9368L16.1868 28.6783L13.9562 39.2077L41.3652 40.9895L38.3496 31.9368Z" fill="#B03C2B"/>
    <path d="M5.62006 101.81L5.60756 101.823C5.5764 104.963 7.62636 108.097 11.7573 110.477C20.0006 115.237 33.3842 115.206 41.6648 110.421C46.0388 107.897 48.1136 104.545 47.8831 101.25H47.8956V89.1253L47.8831 73.8796L42.8985 73.5369C42.5433 73.2939 42.1695 73.051 41.7645 72.8204C33.5212 68.0604 20.1377 68.0916 11.857 72.864C11.4832 73.0821 11.128 73.3064 10.7978 73.5369L5.62629 74.0977H5.61383C5.61383 74.0977 5.61383 80.9199 5.62629 87.7858V101.81H5.62006Z"
          fill="url(#paint0_linear_18_125310)"/>
    <path d="M5.62109 77.5119V80.5959C5.60863 73.7301 5.60859 66.9078 5.60859 66.9078C5.60859 69.5433 5.60863 73.512 5.62109 77.5119Z"
          fill="#DEF2FD"/>
    <path d="M5.62006 91.5427L5.60756 91.5551C5.5764 94.6952 7.62636 97.8353 11.7573 100.209C20.0006 104.969 33.3842 104.938 41.6648 100.153C46.0388 97.6297 48.1136 94.2778 47.8831 90.9819H47.8956V78.8576L47.8831 63.612L42.8985 63.2693C42.5433 63.0263 42.1695 62.7833 41.7645 62.5528C33.5212 57.7928 20.1377 57.824 11.857 62.5964C11.4832 62.8082 11.128 63.0388 10.7978 63.2693L5.62629 63.83H5.61383C5.61383 63.83 5.61383 70.6523 5.62629 77.5119V91.5427H5.62006Z"
          fill="url(#paint1_linear_18_125310)"/>
    <path d="M5.60068 79.4308C5.60068 79.543 5.60072 79.6738 5.61318 79.8047C5.72533 82.8139 7.7752 85.7983 11.7442 88.1035C19.9874 92.8448 33.3711 92.8324 41.6517 88.0474C45.7515 85.6799 47.8264 82.5896 47.8887 79.4807V79.138C47.8887 79.0508 47.8887 78.9511 47.8762 78.8639H47.8887L47.8762 63.6182L42.8916 63.2755C42.5365 63.0325 42.1626 62.7896 41.7576 62.559C33.5144 57.799 20.1308 57.8302 11.8501 62.6026C11.4763 62.8145 11.1211 63.045 10.7909 63.2755L5.61941 63.8363V79.4433H5.60068V79.4308Z"
          fill="url(#paint2_linear_18_125310)"/>
    <path d="M10.2311 76.9387C19.2968 82.1784 34.0512 82.1535 43.1792 76.8826C49.2292 73.3874 51.2854 68.4654 49.3476 64.0169C48.3569 61.7615 46.3382 59.6183 43.2789 57.8551C38.6619 55.1823 32.5558 53.8864 26.4746 53.9487C20.6302 54.0047 14.8044 55.3318 10.3308 57.9112C1.20897 63.1883 1.15913 71.7052 10.2311 76.9387Z"
          fill="#59B0FC"/>
    <path d="M0.815525 68.4156V68.4031C0.821754 67.8486 0.815525 65.8175 0.815525 65.8175L7.16462 65.1259C7.58208 64.8456 8.01204 64.5714 8.47312 64.3098C18.6354 58.4408 35.0596 58.4158 45.1596 64.2412C45.6519 64.5278 46.113 64.8207 46.5616 65.1259L52.6863 65.5558L52.7051 67.7115H52.6801C52.9605 71.7613 50.4184 75.8733 45.0475 78.9698C34.8852 84.8388 18.4609 84.8637 8.36093 79.0383C3.28289 76.1101 0.771908 72.2659 0.815525 68.4156Z"
          fill="url(#paint3_linear_18_125310)"/>
    <path d="M8.36013 76.4278C18.4602 82.2532 34.8844 82.2283 45.0405 76.3593C51.6887 72.5214 54.0002 67.1197 51.969 62.2351C51.9566 62.1665 51.9316 62.1167 51.9005 62.0481C51.5827 61.3316 51.1715 60.6152 50.6544 59.9236V59.9174C50.1746 59.2569 49.5951 58.6027 48.9284 57.9797C47.8941 56.9829 46.6293 56.0421 45.1464 55.1947C44.8535 55.0203 44.5482 54.8645 44.2429 54.6901C42.5419 53.7991 40.6852 53.0702 38.71 52.4845C34.8844 51.3568 30.6537 50.8148 26.4417 50.8522C20.4291 50.9207 14.4413 52.1792 9.63122 54.634C9.45676 54.715 9.27607 54.8209 9.10161 54.9144C8.88977 55.0203 8.67793 55.1387 8.47855 55.2571C-1.67755 61.126 -1.73365 70.6024 8.36013 76.4278Z"
          fill="#D43F2F"/>
    <path d="M11.751 74.4715C19.9818 79.2315 33.3778 79.2065 41.6647 74.4216C47.1602 71.2504 49.0295 66.7832 47.2662 62.7397C46.3689 60.6899 44.5371 58.746 41.7582 57.1448C37.5649 54.7212 32.0258 53.5437 26.5054 53.5998C21.1968 53.6496 15.9131 54.8521 11.8445 57.1947C3.55759 61.9858 3.51394 69.7177 11.751 74.4715Z"
          fill="#F86352"/>
    <path d="M15.1158 68.8019C21.5023 72.4965 31.9014 72.4778 38.3316 68.7645C42.5934 66.3035 44.0451 62.8332 42.6744 59.6993C41.9765 58.1105 40.5559 56.6028 38.4001 55.3567C35.1476 53.4752 30.8422 52.5593 26.5617 52.6029C22.4432 52.6465 18.3433 53.5748 15.1844 55.3941C8.75425 59.1136 8.71685 65.1135 15.1158 68.8019Z"
          fill="#FF816B"/>
    <path d="M19.6021 77.8919C20.2812 78.2907 43.5779 66.5278 51.9707 62.2413C51.9582 62.1727 51.9333 62.1229 51.9022 62.0544C51.5844 61.3379 51.1732 60.6214 50.656 59.9298V59.9174C50.5626 59.9734 50.4442 60.0233 50.3382 60.0793C50.2697 60.1043 50.2199 60.1354 50.1638 60.1603C41.8271 64.2225 20.2687 75.0821 19.9447 75.269C19.1285 75.7425 18.7796 77.4122 19.6021 77.8919Z"
          fill="#C23A2B"/>
    <path d="M47.8708 60.9765C47.9891 61.045 48.824 60.7398 50.1699 60.1541C50.2197 60.1292 50.2758 60.098 50.3443 60.0731C50.4502 60.017 50.5562 59.9797 50.6621 59.9236V59.9173C50.1823 59.2569 49.6029 58.6027 48.9362 57.9797C48.5 58.204 48.2446 58.3348 48.2197 58.3535C47.3785 58.827 47.0483 60.503 47.8708 60.9765Z"
          fill="#AB2B0E"/>
    <path d="M9.03427 57.3006C9.61996 57.6308 31.2967 55.8925 44.2441 54.6839C42.5432 53.7929 40.6864 53.064 38.7112 52.4783C27.066 53.2758 11.7883 54.3661 9.63865 54.6278C9.49534 54.6402 9.40188 54.6527 9.38942 54.6652C9.28349 54.7337 9.19004 54.8085 9.10904 54.9019C8.4922 55.5499 8.31773 56.8894 9.03427 57.3006Z"
          fill="#C23A2B"/>
    <path d="M26.6784 63.9609C28.61 65.0761 32.5478 62.9329 34.498 61.8114C35.7877 61.0637 36.2301 60.017 35.8127 59.07C35.6008 58.5903 35.1709 58.1293 34.5167 57.7554C33.5323 57.1822 32.23 56.9081 30.934 56.9206C29.6879 56.933 28.4479 57.2134 27.4884 57.7679C25.5444 58.8894 24.7407 62.8456 26.6784 63.9609Z"
          fill="#C23A2B"/>
    <path d="M22.3179 61.6681C22.3179 61.5622 22.3179 58.0607 22.3179 58.0607L23.5329 57.9299C23.6139 57.8738 23.6948 57.824 23.7821 57.7741C25.7323 56.6464 28.8788 56.6402 30.8166 57.7554C30.9101 57.8115 30.9973 57.8676 31.0845 57.9236L32.2559 58.0046V61.5248H32.2496C32.3057 62.3036 31.8135 63.0886 30.7854 63.6805C28.8352 64.802 25.6887 64.8082 23.7572 63.693C22.7914 63.1385 22.3117 62.4033 22.3179 61.6681Z"
          fill="url(#paint4_linear_18_125310)"/>
    <path d="M23.7633 60.0918C25.6948 61.207 28.8476 61.2008 30.7916 60.0793C32.0813 59.3317 32.5175 58.285 32.1063 57.338C31.8944 56.8583 31.4645 56.3972 30.8103 56.0234C29.8258 55.4502 28.5236 55.1761 27.2276 55.1885C25.9814 55.201 24.7415 55.4813 23.782 56.0358C21.838 57.1573 21.8255 58.9766 23.7633 60.0918Z"
          fill="#F8887A"/>
    <path d="M18.9031 18.3172L23.5575 27.37L24.8223 15.2394L22.0559 9.21469L18.9031 18.3172Z" fill="#CF3E1D"/>
    <path d="M22.056 9.21469L24.8224 15.2394L31.4395 12.604L22.056 9.21469Z" fill="#F8633E"/>
    <path d="M23.5581 27.37L34.3809 21.1147L31.44 12.604L24.8229 15.2394L23.5581 27.37Z" fill="#9A2100"/>
    <path d="M21.2771 76.9076L25.6074 22.9464L22.4609 22.691L18.1742 76.1226C18.0994 77.0883 18.8159 77.9294 19.7754 78.0041L19.9686 78.0166C20.6415 78.0727 21.2272 77.5742 21.2771 76.9076Z"
          fill="#CF3E1D"/>
    <path d="M19.8253 76.9076L24.1494 22.9464L22.4484 22.8094L22.4609 22.691L25.6074 22.9464L21.2833 76.9076C21.2272 77.5742 20.6415 78.0789 19.9748 78.0228L19.7817 78.0103C19.576 77.9917 19.3891 77.9293 19.2147 77.8484C19.5449 77.649 19.7941 77.3188 19.8253 76.9076Z"
          fill="#9A2100"/>
    <path d="M10.7102 55.7866L22.748 11.875L16.0002 3.33322L13.5203 5.29578L19.2775 12.5853L7.40795 55.8863C7.24595 56.472 7.59488 57.0763 8.17434 57.2383C9.27718 57.5311 10.4112 56.8832 10.7102 55.7866Z"
          fill="#CF3E1D"/>
    <path d="M9.07049 56.2352L21.8622 12.6103L14.7716 4.31141L15.9991 3.33948L22.4043 11.8813L18.1487 27.8559L10.7092 55.7866C10.4288 56.8209 9.40695 57.419 8.37265 57.2445C8.69042 56.9829 8.9521 56.6589 9.07049 56.2352Z"
          fill="#9A2100"/>
    <path d="M21.1094 39.5067L17.0095 30.5599L15.1902 29.9867L20.8414 42.8337L21.1094 39.5067Z" fill="#F8633E"/>
    <path d="M20.8418 42.8337L15.1905 29.9867L12.9599 38.8961L20.1066 54.8209L20.8418 42.8337Z" fill="#EA5F4E"/>
    <path d="M31.2402 13.3891L46.1067 60.1604C46.3435 60.9018 47.1348 61.2943 47.8576 61.0762L48.2376 60.9516C48.3934 60.9018 48.5367 60.827 48.6613 60.7149C49.1037 60.3847 49.3093 59.799 49.1224 59.232L34.8914 14.4482L42.3807 8.14309L41.6829 7.30822L40.3433 5.72571L31.2402 13.3891Z"
          fill="#CF3E1D"/>
    <path d="M40.3431 5.72571L41.0534 6.56058L31.969 14.2115L46.8356 60.9828L46.8418 60.989C46.5116 60.8332 46.2374 60.5466 46.1128 60.1604L31.2463 13.389L40.3431 5.72571Z"
          fill="#EA5F4E"/>
    <path d="M33.8006 13.9373L48.6672 60.7086C49.1096 60.3784 49.3152 59.7928 49.1282 59.2258L34.8973 14.442L42.3866 8.13684L41.6887 7.30197L33.8006 13.9373Z"
          fill="#9A2100"/>
    <path d="M24.2927 15.2395L22.4983 21.5197L25.3208 21.7689L25.6074 15.2395C25.6074 15.2395 24.7912 14.9279 24.2927 15.2395Z"
          fill="#EA5F4E"/>
    <path d="M7.25848 11.252V13.1959C7.22732 16.0868 9.10898 18.9777 12.9284 21.1894C20.5112 25.5632 32.8481 25.5507 40.4932 21.1396C44.5245 18.8032 46.4311 15.7067 46.2255 12.6725H46.2441L46.2255 11.7068V11.0464L43.7456 10.872L43.1288 10.8408C43.1786 10.9031 43.2098 10.9841 43.2409 11.0464C43.4278 11.4576 43.5587 11.8813 43.6522 12.3112C43.2285 14.442 41.596 16.5104 38.7423 18.174C32.0754 22.0305 21.3025 22.043 14.6855 18.2051C11.8754 16.5914 10.2803 14.5541 9.85041 12.442C9.96257 11.9187 10.1371 11.414 10.3738 10.9094L9.75696 10.9903L7.25848 11.252Z"
          fill="url(#paint5_linear_18_125310)"/>
    <path d="M13.0089 3.30208C16.7474 1.15884 21.6323 0.0498361 26.5109 -6.76862e-06C31.5952 -0.0623104 36.6982 1.028 40.5674 3.25224C43.1283 4.73507 44.8168 6.52318 45.6393 8.39852C46.0131 9.26454 46.2063 10.1493 46.2188 11.034V11.6944C46.0007 14.2862 44.2312 16.8469 40.9289 18.8655C40.9289 18.8842 40.9101 18.8842 40.9101 18.8842C40.7668 18.9777 40.6235 19.0587 40.4678 19.1521C32.8351 23.5757 20.4983 23.5881 12.9155 19.202C12.8033 19.1397 12.6912 19.0774 12.5852 19.0151C9.0275 16.8531 7.24549 14.0868 7.24549 11.2894V11.252C7.27041 8.3736 9.20196 5.5014 13.0089 3.30208ZM14.6788 18.1989C21.2958 22.0368 32.0687 22.0243 38.7356 18.1677C41.5955 16.5104 43.2218 14.442 43.6454 12.305C43.552 11.8813 43.4274 11.4514 43.2342 11.0402C43.2031 10.9779 43.1719 10.8969 43.1221 10.8346C42.3931 9.27077 40.9413 7.78794 38.8104 6.53564C35.4271 4.59177 30.9784 3.64475 26.5358 3.6946C22.2678 3.72575 18.0184 4.70392 14.7535 6.58548C12.5915 7.83156 11.1335 9.32061 10.3609 10.8969C10.1241 11.4016 9.94963 11.9062 9.83748 12.4296C10.2736 14.5541 11.8687 16.5914 14.6788 18.1989Z"
          fill="#F8633E"/>
    <path d="M9.75125 10.9841C9.7201 11.4576 9.75125 11.9498 9.84471 12.4358C9.95686 11.9124 10.1313 11.4078 10.3681 10.9031C11.1407 9.32683 12.5925 7.83778 14.7608 6.5917C18.0319 4.71013 22.2812 3.73197 26.5431 3.70082C30.9794 3.65097 35.4343 4.60422 38.8176 6.54186C40.9485 7.78793 42.4065 9.27699 43.1293 10.8408C43.1791 10.9031 43.2103 10.9841 43.2414 11.0464C43.4284 11.4576 43.5592 11.8813 43.6527 12.3112C43.7461 11.8377 43.7773 11.3455 43.7461 10.872C43.715 10.1617 43.5405 9.4639 43.2414 8.77233C42.5311 7.12751 41.0482 5.56369 38.8176 4.26778C35.4343 2.32391 30.9856 1.37689 26.5431 1.42673C22.275 1.45789 18.0257 2.43605 14.7608 4.31762C11.5519 6.1805 9.8821 8.56673 9.75125 10.9841Z"
          fill="url(#paint6_linear_18_125310)"/>
    <path d="M31.1459 11.4327V9.90005H30.1614C30.0617 9.83152 29.9745 9.75675 29.8623 9.68822C28.1676 8.71005 25.4447 8.69136 23.7811 9.65707C23.6503 9.73183 23.5506 9.81906 23.4385 9.90005H22.5412V11.4327H22.5474C22.5661 12.062 22.9898 12.6913 23.8247 13.1772C25.5195 14.1554 28.2423 14.1678 29.9059 13.2084C30.7533 12.7162 31.1646 12.0744 31.1459 11.4327Z"
          fill="url(#paint7_linear_18_125310)"/>
    <path d="M31.1459 9.90003L30.4231 2.44229H23.2827L22.5661 9.80658C22.5661 9.8315 22.5599 9.86265 22.5599 9.88757V9.8938C22.5786 10.5231 23.0023 11.1523 23.8372 11.6383C25.532 12.6165 28.2548 12.6289 29.9184 11.6695C30.7533 11.1835 31.1646 10.5418 31.1459 9.90003Z"
          fill="#83AFE8"/>
    <path d="M24.2788 8.411C25.6744 7.60105 27.9611 7.61351 29.3817 8.43592C30.8023 9.25833 30.8211 10.5792 29.4191 11.3829C28.0235 12.1928 25.7368 12.1804 24.3162 11.358C22.8956 10.5418 22.8768 9.22095 24.2788 8.411Z"
          fill="#4989DF"/>
    <path d="M28.6902 4.52948C27.7868 2.95943 26.3039 2.97812 25.3817 4.57309C24.4596 6.16807 24.4471 8.72874 25.3506 10.2926C26.2541 11.8564 27.737 11.8439 28.6591 10.249C29.5813 8.66021 29.5937 6.09953 28.6902 4.52948Z"
          fill="#4397E0"/>
    <path d="M24.2917 11.1773C24.9521 11.5573 25.7684 11.7878 26.622 11.8751C26.6656 11.8439 26.7092 11.7878 26.7528 11.7504C26.8962 11.576 27.0332 11.3891 27.1641 11.171C28.3853 9.06516 28.404 5.66962 27.2014 3.59491C26.9024 3.08402 26.5597 2.69774 26.1921 2.44229H23.8867C23.8306 2.47967 23.7808 2.52952 23.7247 2.57936C23.706 2.59805 23.6873 2.61674 23.6686 2.64166L23.0206 9.34553C23.0206 9.37045 23.0144 9.4016 23.0144 9.42652V9.43276C23.0269 10.0683 23.4505 10.6975 24.2917 11.1773Z"
          fill="#5079F7"/>
    <path d="M26.535 5.3145C25.8746 4.16812 24.7966 4.18681 24.1237 5.34565C23.4508 6.5045 23.4446 8.37361 24.105 9.51377C24.7655 10.6602 25.8434 10.6415 26.5163 9.48261C27.183 8.32377 27.1955 6.45466 26.535 5.3145Z"
          fill="#50BCF7"/>
    <path d="M24.3044 0.971939C25.6876 0.174453 27.9494 0.186914 29.3575 0.99686C30.7594 1.80681 30.7781 3.11518 29.3886 3.91267C28.0054 4.71016 25.7437 4.70392 24.3355 3.88775C22.9336 3.0778 22.9212 1.76943 24.3044 0.971939Z"
          fill="#9FD6FF"/>
    <path d="M39.084 33.2514L37.3207 32.5287L23.3078 40.5783L22.4978 42.7714L39.084 33.2514Z" fill="#F8633E"/>
    <path d="M42.0996 42.2979L39.0839 33.2514L22.4978 42.7714L21.8871 53.9549L42.0996 42.2979Z" fill="#9A2100"/>
    <path d="M21.8622 12.604L22.4043 11.8813L15.9991 3.33322L14.7592 4.31762L21.8622 12.604Z" fill="#EA5F4E"/>
    <path d="M5.23271 94.1843C5.24517 94.689 6.07384 95.0504 6.21092 95.6111C6.33554 96.1095 6.49131 96.4958 6.71562 97.0192C6.92746 97.4989 6.60968 98.1967 6.90876 98.6764C7.18914 99.125 7.86211 99.2372 8.21725 99.6671C8.55371 100.072 8.07395 101.274 8.47895 101.648C8.87148 102.01 9.21414 102.583 9.66898 102.901C10.1051 103.206 11.2267 102.446 11.7189 102.701C12.2111 102.957 12.7033 103.162 13.2205 103.393C13.7252 103.623 13.8685 104.714 14.3981 104.919C14.9153 105.119 15.3514 105.642 15.8873 105.823C16.4169 105.997 17.4076 104.695 17.9496 104.844C18.4855 104.994 18.7534 106.159 19.3017 106.29C19.8438 106.415 20.4731 106.196 21.0214 106.296C21.5697 106.402 22.1118 106.545 22.6663 106.626C23.2209 106.707 23.7629 106.944 24.3175 107C24.8782 107.056 25.4826 106.39 26.0372 106.421C26.5979 106.452 27.1275 107.43 27.6883 107.43C28.2491 107.436 28.816 107.075 29.3768 107.05C29.9376 107.025 30.4485 106.396 31.003 106.34C31.5638 106.29 32.0685 106.041 32.6168 105.96C33.1776 105.879 33.9003 106.813 34.4424 106.695C34.9969 106.583 35.3583 105.704 35.8941 105.561C36.4362 105.411 37.3646 106.464 37.888 106.284C38.4238 106.097 38.4612 104.614 38.9721 104.396C39.4893 104.172 40.3865 104.764 40.8787 104.502C41.3772 104.24 41.3024 103.056 41.7697 102.726C42.2308 102.402 42.505 101.954 42.9287 101.58C43.3523 101.2 44.6234 101.704 45.0097 101.287C45.396 100.863 44.8477 99.6858 45.1842 99.2309C45.5331 98.7637 45.8446 98.3774 46.1313 97.8976C46.4366 97.3868 46.6235 96.9444 46.8415 96.446C47.0845 95.8915 47.6079 95.5613 47.7325 95.0504C47.8821 94.446 49.0971 93.9164 49.0597 93.4118C49.0597 93.4056 48.0441 93.4429 48.0441 93.4554C48.0503 94.1719 47.7388 94.1657 47.7388 94.8821C47.7388 95.5986 47.8011 95.5924 47.7948 96.3027C47.7948 96.3089 48.53 96.284 48.53 96.2964C48.5737 96.826 48.4865 97.4179 48.3868 97.9475C48.2871 98.4584 47.1718 98.5892 46.9412 99.0939C46.7294 99.5611 47.0908 100.284 46.7668 100.739C46.4677 101.15 45.9256 101.337 45.5331 101.736C45.1717 102.097 45.2776 103.019 44.8415 103.362C44.4365 103.679 44.1436 104.278 43.6763 104.577C43.2402 104.851 42.1373 104.022 41.6451 104.278C41.1342 104.545 40.7603 105.019 40.2183 105.249C39.6886 105.468 39.508 106.707 38.9472 106.894C38.3989 107.075 37.483 106.059 36.916 106.203C36.3552 106.346 35.7633 106.178 35.1838 106.29C34.6168 106.396 34.243 107.686 33.6636 107.767C33.0903 107.841 32.4735 107.717 31.8878 107.767C31.3083 107.816 30.704 107.592 30.1245 107.611C29.545 107.629 28.9531 108.39 28.3674 108.383C27.7879 108.377 27.2085 107.642 26.6228 107.617C26.0433 107.586 25.3829 108.309 24.8034 108.259C24.224 108.203 23.738 107.193 23.1585 107.112C22.5791 107.031 21.8688 107.735 21.2956 107.636C20.7161 107.53 20.174 107.162 19.607 107.038C19.0338 106.907 18.716 105.779 18.1552 105.63C17.5882 105.474 17.1147 105.131 16.5664 104.957C16.0056 104.776 15.4636 104.67 14.9277 104.464C14.3732 104.253 13.6941 104.452 13.1707 104.215C12.6286 103.972 11.9681 104.016 11.4634 103.748C10.9525 103.48 10.2547 103.605 9.80608 103.349C9.30139 103.063 9.18924 102.184 8.76554 101.898C8.27955 101.574 7.6253 101.53 7.24522 101.2C6.79661 100.813 6.78419 100.109 6.48512 99.7044C6.14865 99.2496 6.35424 98.7387 6.19224 98.2278C6.03024 97.7294 5.2078 97.4304 5.2078 96.8509C5.2078 96.8385 5.93055 96.8572 5.93055 96.8447C5.93678 96.1781 5.16417 96.1718 5.15171 95.5114C5.13925 94.851 5.22648 94.8448 5.23271 94.1843Z"
          fill="#C2F2FD"/>
    <defs>
        <linearGradient id="paint0_linear_18_125310" x1="47.8981" y1="91.6473" x2="5.60382" y2="91.6473"
                        gradientUnits="userSpaceOnUse">
            <stop offset="0.1613" stop-color="#4086A8"/>
            <stop offset="0.1633" stop-color="#4291BF"/>
            <stop offset="0.5593" stop-color="#4291BF"/>
            <stop offset="0.5622" stop-color="#77B9DE"/>
            <stop offset="0.8728" stop-color="#77B9DE"/>
            <stop offset="0.8739" stop-color="#57A2D0"/>
        </linearGradient>
        <linearGradient id="paint1_linear_18_125310" x1="47.8981" y1="81.3803" x2="5.60382" y2="81.3803"
                        gradientUnits="userSpaceOnUse">
            <stop offset="0.1613" stop-color="#B52E1F"/>
            <stop offset="0.1633" stop-color="#CC2F1C"/>
            <stop offset="0.5593" stop-color="#CC2F1C"/>
            <stop offset="0.5622" stop-color="#EB604E"/>
            <stop offset="0.8728" stop-color="#EB604E"/>
            <stop offset="0.8739" stop-color="#DD432E"/>
        </linearGradient>
        <linearGradient id="paint2_linear_18_125310" x1="47.8949" y1="75.3232" x2="5.60317" y2="75.3232"
                        gradientUnits="userSpaceOnUse">
            <stop offset="0.1613" stop-color="#CC9C97"/>
            <stop offset="0.1633" stop-color="#E2A79F"/>
            <stop offset="0.5593" stop-color="#E2A79F"/>
            <stop offset="0.5622" stop-color="#FFE9E6"/>
            <stop offset="0.8728" stop-color="#FFE9E6"/>
            <stop offset="0.8739" stop-color="#F2C2BC"/>
        </linearGradient>
        <linearGradient id="paint3_linear_18_125310" x1="52.6982" y1="71.641" x2="0.813028" y2="71.641"
                        gradientUnits="userSpaceOnUse">
            <stop offset="0.1613" stop-color="#D15345"/>
            <stop offset="0.1633" stop-color="#E55544"/>
            <stop offset="0.5593" stop-color="#E55544"/>
            <stop offset="0.5622" stop-color="#FF8C7D"/>
            <stop offset="0.8728" stop-color="#FF8C7D"/>
            <stop offset="0.8739" stop-color="#F36C59"/>
        </linearGradient>
        <linearGradient id="paint4_linear_18_125310" x1="32.2602" y1="60.7286" x2="22.3173" y2="60.7286"
                        gradientUnits="userSpaceOnUse">
            <stop offset="0.1613" stop-color="#B52E1F"/>
            <stop offset="0.1633" stop-color="#CC2F1C"/>
            <stop offset="0.5593" stop-color="#CC2F1C"/>
            <stop offset="0.5622" stop-color="#EB604E"/>
            <stop offset="0.8728" stop-color="#EB604E"/>
            <stop offset="0.8739" stop-color="#DD432E"/>
        </linearGradient>
        <linearGradient id="paint5_linear_18_125310" x1="46.2429" y1="17.6469" x2="7.25536" y2="17.6469"
                        gradientUnits="userSpaceOnUse">
            <stop offset="0.1613" stop-color="#D15345"/>
            <stop offset="0.1633" stop-color="#E55544"/>
            <stop offset="0.5593" stop-color="#E55544"/>
            <stop offset="0.5622" stop-color="#FF8C7D"/>
            <stop offset="0.8728" stop-color="#FF8C7D"/>
            <stop offset="0.8739" stop-color="#F36C59"/>
        </linearGradient>
        <linearGradient id="paint6_linear_18_125310" x1="43.7592" y1="6.92814" x2="9.74066" y2="6.92814"
                        gradientUnits="userSpaceOnUse">
            <stop offset="0.1261" stop-color="#F36C59"/>
            <stop offset="0.1272" stop-color="#FF8C7D"/>
            <stop offset="0.4378" stop-color="#FF8C7D"/>
            <stop offset="0.4407" stop-color="#E55544"/>
            <stop offset="0.8367" stop-color="#E55544"/>
            <stop offset="0.8387" stop-color="#D15345"/>
        </linearGradient>
        <linearGradient id="paint7_linear_18_125310" x1="31.1465" y1="11.4296" x2="22.5456" y2="11.4296"
                        gradientUnits="userSpaceOnUse">
            <stop offset="0.1613" stop-color="#D15345"/>
            <stop offset="0.1633" stop-color="#E55544"/>
            <stop offset="0.5593" stop-color="#E55544"/>
            <stop offset="0.5622" stop-color="#FF8C7D"/>
            <stop offset="0.8728" stop-color="#FF8C7D"/>
            <stop offset="0.8739" stop-color="#F36C59"/>
        </linearGradient>
    </defs>
</svg>
