<svg width="1920" height="487" viewBox="0 0 1920 487" fill="none" xmlns="http://www.w3.org/2000/svg">
    <g clip-path="url(#clip0_15_3668)">
        <path d="M881.104 239.745C838.14 239.745 793.776 226.459 753.234 214.224C743.119 211.172 733.51 208.318 723.901 205.583C694.687 197.333 662.151 193.385 630.713 189.557C591.656 184.864 551.661 179.979 517.447 166.963C477.14 151.562 444.489 118.338 412.931 86.166C360.441 32.697 310.879 -17.844 230.577 12.327C187.889 28.358 154.223 56.228 121.686 83.197C82.0449 116.03 41.0349 149.957 -16.4181 162.431L-16.8091 160.514C40.1749 148.16 80.8319 114.347 120.436 81.67C153.129 54.623 186.832 26.675 229.795 10.493C311.271 -20.115 361.26 30.859 414.224 84.76C445.469 116.776 478.12 149.88 518.037 165.088C552.016 178.026 592.24 182.911 630.792 187.604C662.349 191.51 694.959 195.422 724.526 203.666C734.135 206.406 743.745 209.255 753.896 212.343C813.422 230.249 880.948 250.572 940.938 227.239C986.323 209.609 1022.57 175.76 1057.56 143.005C1086.54 115.916 1116.5 87.927 1151.61 69.047C1229.21 27.339 1291.01 62.521 1356.42 99.813C1384.27 115.683 1413.09 132.058 1443.79 142.808C1486.09 157.464 1531.24 155.943 1574.91 154.537C1603.84 153.558 1633.84 152.542 1662.86 156.214C1707.5 161.881 1749.84 175.37 1790.77 188.386C1836.97 203.12 1884.74 218.365 1936.06 222.391V224.344C1884.51 220.438 1836.62 205.037 1790.34 190.261C1749.49 177.245 1707.27 163.797 1662.78 158.167C1633.88 154.495 1604 155.511 1575.1 156.49C1531.28 157.974 1485.97 159.537 1443.32 144.761C1412.43 134.053 1383.53 117.402 1355.6 101.766C1290.69 64.787 1229.33 29.844 1152.51 71.042C1117.63 89.802 1087.79 117.714 1058.77 144.683C1023.62 177.558 987.261 211.563 941.604 229.35C931.932 232.959 922.01 235.636 911.838 237.386C901.667 239.13 891.422 239.922 881.104 239.745Z" fill="#0C60DD"/>
        <path d="M881.104 239.589C838.14 239.589 794.323 226.537 753.974 214.573C743.667 211.526 733.938 208.63 724.177 205.896C695.391 198.078 663.286 193.974 632.276 190.261C592.865 185.454 552.13 180.412 517.604 167.12C477.573 151.682 444.958 118.729 413.401 86.834C360.521 33.402 310.604 -17.025 230.463 13.074C187.812 29.064 154.104 56.814 121.494 83.668C81.8119 116.309 40.8009 150.121 -16.4171 162.668L-16.8081 160.751C39.9419 148.282 80.8329 114.668 120.244 82.142C152.973 55.21 186.833 27.418 229.796 11.236C311.114 -19.326 361.457 31.601 414.77 85.507C446.015 117.247 478.666 150.038 518.306 165.325C552.639 178.575 593.217 183.539 632.509 188.387C663.754 192.293 695.78 196.205 724.681 204.022C734.447 206.756 744.212 209.652 754.52 212.699C813.926 230.329 881.301 250.303 940.859 227.163C986.244 209.496 1022.53 175.684 1057.6 143.007C1086.58 115.997 1116.58 88.085 1151.61 69.247C1229.37 27.419 1290.96 62.638 1356.15 99.893C1384.11 115.877 1413.02 132.372 1443.95 142.888C1486.4 157.544 1531.71 156.023 1575.49 154.617C1604.31 153.638 1634.08 152.659 1662.98 156.216C1707.81 161.768 1750.35 175.294 1791.51 188.346C1837.48 202.966 1885.02 218.054 1936.02 222.122V224.075C1884.86 220.164 1837.21 204.841 1791.12 190.226C1750.04 177.169 1707.58 163.684 1662.94 158.174C1634.23 154.617 1604.35 155.591 1575.76 156.57C1531.79 158.054 1486.32 159.58 1443.48 144.841C1412.23 134.091 1383.41 117.482 1355.41 101.492C1290.69 64.518 1229.57 29.57 1152.74 70.888C1117.91 89.612 1088.03 117.44 1059 144.336C1023.85 177.169 987.338 211.096 941.604 228.883C931.943 232.55 922.031 235.284 911.854 237.081C901.682 238.88 891.432 239.719 881.104 239.589Z" fill="#0C60DD"/>
        <path d="M881.068 239.354C838.573 239.354 794.907 226.651 754.834 214.963C744.329 211.916 734.449 209.02 724.527 206.364C696.209 198.546 664.574 194.64 633.996 190.963C594.079 186.041 552.756 180.958 517.881 167.51C478.121 152.072 445.47 119.395 413.871 87.812C360.599 34.495 310.255 -15.854 230.307 14.13C187.693 30.078 153.911 57.672 121.26 84.49C81.5781 116.933 40.5671 150.469 -16.4169 163.094L-16.6099 160.865C39.8641 148.318 80.7181 114.938 120.088 82.688C152.854 55.876 186.755 27.964 229.64 12.094C310.801 -18.312 361.536 32.464 415.275 86.365C446.676 117.87 479.405 150.276 518.463 165.594C553.145 179.042 594.312 184.125 634.109 189.047C664.77 192.958 696.599 196.865 724.916 204.448C734.838 207.146 744.76 210.042 755.265 213.089C814.51 230.365 881.65 249.912 940.781 226.928C986.203 209.298 1022.57 175.563 1057.72 142.964C1086.7 116.073 1116.69 88.24 1151.69 69.438C1229.8 27.537 1291.08 62.792 1356.11 100.162C1384.15 116.266 1413.13 132.917 1444.26 143.667C1486.95 158.407 1532.41 156.839 1576.39 155.396C1604.98 154.417 1634.55 153.401 1663.17 156.802C1708.25 162.234 1751.09 175.76 1792.53 188.854C1838.19 203.318 1885.41 218.25 1935.87 222.354V224.307C1885.09 220.161 1837.88 205.192 1792.06 190.729C1750.74 177.635 1708.01 164.151 1663.17 158.755C1634.63 155.354 1605.14 156.37 1576.63 157.349C1532.49 158.875 1486.79 160.438 1443.83 145.62C1412.58 134.834 1383.45 118.261 1355.33 101.959C1290.81 64.907 1229.84 29.881 1152.82 71.277C1118.02 89.959 1088.14 117.673 1059.08 144.527C1023.93 177.246 987.298 210.98 941.527 228.881C931.86 232.49 921.949 235.178 911.782 236.938C901.62 238.698 891.38 239.505 881.068 239.354Z" fill="#0C60DD"/>
        <path d="M880.948 239.042C838.844 239.042 795.531 226.73 755.734 215.589C745.109 212.579 735.073 209.73 725.036 207.068C697.145 199.683 666.02 195.891 635.906 192.177C595.406 187.057 553.614 181.937 518.463 168.135C478.937 152.5 446.208 120.333 414.536 89.062C360.792 35.901 310.021 -14.286 230.229 15.536C187.734 31.406 153.911 58.807 121.219 85.307C81.5001 117.479 40.4901 150.745 -16.2189 163.484L-16.6099 161.609C39.5931 149.02 80.4421 115.916 120.088 83.901C152.932 57.323 186.874 29.802 229.64 13.818C310.604 -16.401 361.807 34.183 416.057 87.771C447.536 119.042 480.151 151.136 519.323 166.459C554.474 180.136 596.068 185.256 636.495 190.225C666.683 193.897 697.891 197.73 725.854 205.116C735.932 207.772 745.969 210.668 756.63 213.678C815.724 230.485 882.703 249.558 941.406 226.772C986.791 209.178 1023.23 175.564 1058.58 143.043C1087.59 116.267 1117.63 88.553 1152.59 69.793C1230.7 27.85 1292.1 63.262 1356.97 100.751C1385.09 117.011 1414.19 133.819 1445.51 144.647C1488.47 159.459 1534.09 157.819 1578.3 156.371C1606.62 155.319 1635.87 154.262 1664.23 157.543C1709.57 162.746 1752.77 176.309 1794.52 189.481C1839.79 203.71 1886.62 218.445 1936.45 222.59V224.543C1886.38 220.397 1839.47 205.626 1794.09 191.319C1752.42 178.225 1709.3 164.658 1664.15 159.46C1635.87 156.215 1606.7 157.272 1578.46 158.33C1534.13 159.929 1488.32 161.57 1445.04 146.601C1413.56 135.695 1384.35 118.851 1356.15 102.549C1291.74 65.335 1230.93 30.237 1153.68 71.632C1118.92 90.273 1089 117.872 1059.94 144.606C1024.56 177.247 987.997 211.059 942.263 228.726C932.456 232.351 922.398 235.033 912.091 236.768C901.781 238.5 891.401 239.26 880.948 239.042Z" fill="#0C60DD"/>
        <path d="M880.792 238.771C839.12 238.771 796.193 227.042 756.75 215.979C745.969 213.01 735.776 210.198 725.505 207.578C698.161 200.578 667.463 196.864 637.859 193.307C596.812 188.343 554.359 183.187 518.698 169.229C479.406 153.791 446.599 121.776 414.849 90.781C360.599 37.896 309.396 -12.099 229.682 17.489C187.302 33.124 153.442 60.489 120.713 86.713C81.0309 118.572 39.9839 151.484 -16.4171 164.109L-16.8081 162.198C39.1239 149.688 79.9729 116.891 119.499 85.193C152.348 58.808 186.327 31.521 228.858 15.651C309.629 -14.365 361.337 36.021 416.056 89.411C447.691 120.213 480.384 151.953 519.363 167.395C554.785 181.27 597.123 186.39 638.056 191.353C667.738 194.952 698.436 198.665 725.931 205.702C736.124 208.28 746.316 211.134 757.176 214.103C816.114 230.405 882.9 248.853 941.171 226.337C986.556 208.827 1023.19 175.327 1058.34 142.926C1087.4 116.228 1117.47 88.671 1152.43 69.947C1230.9 28.004 1292.06 63.614 1356.85 101.218C1385.09 117.635 1414.3 134.64 1445.79 145.541C1488.98 160.515 1534.83 158.718 1579.2 156.994C1607.17 155.9 1636.07 154.77 1664.15 157.817C1709.88 162.744 1753.47 176.421 1795.61 189.635C1840.41 203.666 1886.73 218.171 1935.86 222.354V224.307C1886.5 220.083 1840.1 205.547 1795.26 191.474C1753.2 178.302 1709.73 164.698 1664.19 159.734C1636.22 156.724 1607.4 157.854 1579.52 158.953C1534.99 160.708 1488.94 162.51 1445.4 147.224C1413.72 136.281 1384.43 119.24 1356.11 102.74C1291.82 65.334 1231.13 30.037 1153.6 71.474C1118.84 90.036 1088.89 117.516 1059.86 144.135C1024.44 176.656 987.808 210.276 942.073 227.942C932.281 231.63 922.234 234.385 911.932 236.208C901.635 238.026 891.25 238.88 880.792 238.771Z" fill="#0C60DD"/>
        <path d="M880.599 238.417C839.391 238.417 796.896 227.084 757.88 216.605C746.906 213.714 736.594 210.938 726.286 208.397C697.916 202.121 669.276 197.574 640.359 194.756C598.724 189.871 555.687 184.787 519.599 170.6C480.542 155.241 447.422 123.694 415.552 92.933C360.87 40.281 308.927 -9.47899 229.448 19.875C187.188 35.51 153.323 62.401 120.594 88.396C80.9109 119.901 39.8649 152.5 -16.1041 165.047L-16.4951 163.136C39.1609 150.704 80.0149 118.261 119.541 86.87C152.385 60.761 186.364 33.75 228.9 18.037C309.551 -11.749 361.692 38.402 417.035 91.527C448.785 122.011 481.634 153.558 520.457 168.803C556.311 182.876 599.233 187.918 640.749 192.839C669.796 195.662 698.567 200.209 727.067 206.485C737.374 209.021 747.723 211.797 758.702 214.73C817.285 230.365 884.03 248.266 941.796 226.027C987.181 208.553 1023.82 175.215 1059.16 142.928C1088.3 116.386 1118.41 88.944 1153.37 70.339C1232.1 28.396 1293.23 64.24 1357.98 102.193C1386.3 118.808 1415.63 135.969 1447.26 146.99C1490.82 162.157 1536.86 160.162 1581.43 158.25C1609.37 156.401 1637.31 156.531 1665.24 158.641C1711.37 163.292 1755.38 177.011 1798.04 190.302C1842.29 204.099 1888.06 218.364 1936.37 222.588V224.499C1887.83 220.28 1841.97 206.015 1797.6 192.176C1755.11 178.926 1711.21 165.202 1665.24 160.593C1637.67 157.817 1609.23 159.031 1581.74 160.202C1537.02 162.155 1490.74 164.108 1446.87 148.863C1415 137.764 1385.63 120.524 1357.05 103.873C1292.8 66.191 1232.07 30.623 1154.34 72.055C1119.62 90.545 1089.59 117.904 1060.61 144.367C1025.07 176.773 988.355 210.232 942.62 227.82C932.703 231.502 922.531 234.237 912.104 236.018C901.677 237.799 891.172 238.599 880.599 238.417Z" fill="#0C60DD"/>
        <path d="M880.286 238.104C839.625 238.104 797.677 227.276 759.208 217.349C748.114 214.495 737.609 211.797 727.182 209.297C699.265 203.417 671.104 199.13 642.703 196.438C600.484 191.631 556.776 186.626 520.302 172.318C481.245 157.037 448.083 125.724 416.021 95.433C360.599 43.053 308.261 -6.19699 228.901 22.688C186.719 38.131 152.854 64.709 120.089 90.506C80.4429 121.776 39.3959 153.87 -16.4171 166.26L-16.8081 164.385C38.5359 152.031 79.3899 119.979 118.916 88.942C151.76 63.145 185.739 36.447 228.275 20.932C308.77 -8.584 361.535 41.297 417.426 94.062C449.332 124.239 482.337 155.432 521.041 170.598C557.322 184.786 600.874 189.791 642.973 194.598C671.447 197.27 699.671 201.567 727.65 207.499C738.119 209.963 748.624 212.655 759.718 215.509C818.301 230.598 884.697 247.717 941.952 225.712C987.296 208.316 1023.97 175.17 1059.47 143.082C1088.69 116.655 1118.84 89.374 1153.8 70.842C1232.85 28.941 1293.97 65.097 1358.69 103.368C1387.12 120.175 1416.53 137.566 1448.51 148.707C1492.42 164.108 1538.7 161.879 1583.49 159.733C1610.98 157.795 1638.46 157.795 1665.95 159.733C1712.54 164.03 1757.06 177.832 1800.14 191.197C1843.22 204.567 1888.84 218.562 1936.33 222.978L1936.14 224.931C1888.45 220.671 1843.26 206.639 1799.44 193.072C1756.48 179.744 1712.03 165.947 1665.67 161.806C1638.26 159.884 1610.86 159.884 1583.46 161.806C1538.5 163.952 1491.99 166.181 1447.77 150.665C1415.75 139.446 1386.26 122.009 1357.71 105.165C1293.5 67.17 1232.73 31.326 1154.62 72.681C1119.86 91.092 1089.78 118.296 1060.69 144.645C1025.03 176.499 988.197 209.963 942.499 227.317C932.551 231.01 922.343 233.765 911.89 235.577C901.432 237.391 890.896 238.234 880.286 238.104Z" fill="#0C60DD"/>
        <path d="M879.932 237.755C839.859 237.755 798.5 227.552 760.422 218.208C749.13 215.432 738.511 212.812 727.922 210.39C700.552 204.874 672.969 200.848 645.162 198.312C602.204 193.624 558.027 188.776 521.006 174.354C481.949 159.146 448.709 128.187 416.449 98.286C360.401 46.26 307.557 -2.91099 228.234 25.896C186.484 41.099 152.505 67.365 119.776 92.735C80.0939 123.5 39.0829 155.276 -16.4171 167.552L-16.8081 165.635C38.2649 153.479 79.0769 121.817 118.562 91.369C151.333 65.723 185.39 39.379 227.572 24.057C307.911 -5.14099 361.26 44.385 417.776 96.839C449.88 126.625 483.078 157.464 521.708 172.516C558.494 186.86 602.672 191.709 645.359 196.396C673.244 198.901 700.911 202.927 728.354 208.474C738.937 210.859 749.599 213.479 760.849 216.292C819.198 230.677 885.359 246.98 942.188 225.323C987.495 208.047 1024.21 175.016 1059.86 143.24C1089.12 117.011 1119.35 89.844 1154.31 71.433C1233.71 29.61 1294.91 66.079 1359.59 104.735C1388.1 121.777 1417.62 139.37 1449.61 150.667C1493.9 166.302 1540.42 163.797 1585.45 161.375C1612.44 159.313 1639.44 159.094 1666.45 160.708C1713.56 164.619 1758.63 178.494 1802.18 191.979C1845.14 205.229 1889.47 218.953 1936.02 223.25L1935.83 225.208C1888.96 220.942 1844.63 207.187 1801.59 193.937C1758.55 180.682 1713.2 166.572 1666.3 162.666C1639.36 161.077 1612.44 161.312 1585.53 163.369C1540.34 165.791 1493.59 168.333 1448.83 152.541C1416.65 141.202 1387.04 123.536 1358.42 106.452C1294.17 68.108 1233.43 31.874 1155.09 73.228C1120.33 91.525 1090.17 118.572 1061 144.759C1025.3 176.775 988.391 209.884 942.698 227.316C932.641 230.951 922.339 233.649 911.792 235.405C901.245 237.161 890.625 237.943 879.932 237.755Z" fill="#0C60DD"/>
        <path d="M879.427 237.443C840.057 237.443 799.318 227.865 761.828 219.068C750.38 216.37 739.604 213.87 728.859 211.563C702.062 206.454 675.078 202.73 647.895 200.386C604.39 196.047 559.473 191.24 521.942 176.501C482.885 161.412 449.452 130.85 417.036 101.298C360.286 49.663 306.697 0.881002 227.651 29.298C185.937 44.308 152.115 70.183 119.385 95.199C79.7389 125.689 38.7699 156.959 -16.4171 169.116L-16.8081 167.199C37.8739 155.199 78.7229 124.006 118.213 93.793C151.057 68.698 185 42.74 226.984 27.615C307.166 -1.192 361.182 47.943 418.364 100.006C450.703 129.438 484.093 159.85 522.682 174.86C559.979 189.324 604.703 193.975 648.13 198.313C675.406 200.688 702.484 204.469 729.37 209.652C740.151 211.954 750.969 214.496 762.412 217.194C820.527 230.798 886.417 246.277 942.698 225.012C988 207.814 1024.71 175.017 1060.57 143.319C1089.9 117.246 1120.21 90.272 1155.17 71.98C1234.96 30.235 1296.12 67.095 1360.92 106.141C1389.54 123.422 1419.19 141.323 1451.33 152.735C1496.01 168.646 1542.76 165.829 1588.03 163.058C1614.48 160.881 1640.96 160.454 1667.47 161.766C1715.12 165.204 1760.73 179.24 1804.83 192.802C1846.97 205.781 1890.56 219.146 1936.14 223.448L1935.94 225.401C1890.21 221.099 1846.5 207.656 1804.24 194.677C1760.27 181.151 1714.77 167.318 1667.35 163.719C1640.92 162.407 1614.52 162.834 1588.15 165.011C1542.72 167.787 1495.74 170.641 1450.67 154.573C1418.33 142.849 1388.65 125.141 1359.9 107.667C1295.61 68.933 1234.92 32.308 1156.1 73.542C1121.34 91.719 1091.11 118.61 1061.86 144.604C1026.04 176.463 989.057 209.333 943.401 226.693C933.156 230.422 922.656 233.193 911.906 235C901.151 236.802 890.328 237.62 879.427 237.443Z" fill="#0C60DD"/>
        <path d="M878.839 237.13C840.172 237.13 800.219 228.255 763.386 220.083C751.672 217.505 740.777 215.083 729.876 212.89C705.079 207.926 678.715 205.39 650.787 202.65C606.657 198.353 560.959 193.936 522.954 179.197C483.902 164.228 450.272 134.051 417.506 104.931C360.089 53.688 305.839 5.333 226.906 33.359C185.427 48.135 151.604 73.583 118.953 98.244C79.3118 128.109 38.3798 158.953 -16.4952 170.797L-16.8862 168.88C37.5198 157.151 78.3328 126.39 117.744 96.682C150.551 71.942 184.489 46.375 226.244 31.521C306.307 3.068 360.947 51.849 418.833 103.485C451.364 132.527 485.229 162.547 523.578 177.402C561.427 191.98 606.927 196.397 650.906 200.657C677.656 203.277 705.312 205.975 730.151 210.938C741.089 213.131 752.099 215.553 763.74 218.131C821.584 230.99 887.198 245.496 942.969 224.542C988.235 207.459 1025.22 174.901 1061 143.433C1090.41 117.516 1120.83 90.74 1155.83 72.568C1235.97 30.938 1297.21 68.229 1362.08 107.745C1390.83 125.255 1420.67 143.354 1452.85 154.964C1498 171.224 1544.99 168.021 1590.45 164.891C1616.34 162.573 1642.28 161.922 1668.25 162.938C1716.48 165.87 1762.65 180.021 1807.29 193.662C1848.65 206.329 1891.42 219.422 1935.94 223.719L1935.75 225.677C1891.03 221.375 1848.18 208.239 1806.86 195.536C1762.3 181.895 1716.25 167.786 1668.25 164.89C1642.36 163.895 1616.53 164.546 1590.72 166.848C1545.07 169.973 1497.85 173.218 1452.31 156.801C1419.85 145.072 1390.01 126.978 1361.19 109.384C1296.82 70.295 1236.21 33.165 1156.84 74.207C1122.04 92.264 1091.73 119.004 1062.4 144.801C1026.51 176.421 989.405 209.098 943.79 226.301C933.379 230.046 922.717 232.827 911.8 234.645C900.891 236.469 889.901 237.292 878.839 237.13Z" fill="#0C60DD"/>
        <path d="M878.099 236.896C840.25 236.896 801.156 228.724 765.068 221.261C753.349 218.797 742.063 216.449 730.933 214.417C706.756 209.886 681.094 207.578 653.876 205.151C609.074 201.245 562.756 196.943 524.048 182.172C485.345 167.396 451.131 137.61 418.168 108.839C360.052 58.026 305.099 10.104 226.281 37.74C185 52.203 151.333 77.255 118.604 101.453C79.0359 130.849 38.0679 161.219 -16.4171 172.786L-16.8081 170.875C37.2859 159.38 78.0199 129.167 117.468 99.891C150.197 75.579 184.098 50.443 225.541 35.782C305.447 7.756 360.755 56.074 419.338 107.24C452.145 135.891 486.088 165.516 524.791 180.256C563.494 194.99 609.426 199.058 654.109 203.084C681.448 205.548 707.067 207.85 731.359 212.344C742.453 214.417 753.661 216.761 765.494 219.224C823.103 231.224 888.369 244.828 943.593 224.188C988.822 207.224 1025.93 174.938 1061.78 143.667C1091.31 117.948 1121.81 91.37 1156.8 73.308C1237.42 31.834 1298.78 69.402 1363.8 109.584C1392.63 127.37 1422.39 145.74 1454.92 157.542C1500.58 174.198 1547.8 170.521 1593.46 167.006C1618.75 164.532 1644.1 163.631 1669.5 164.308C1718.32 166.693 1765.07 180.959 1810.3 194.719C1850.8 207.11 1892.67 219.891 1936.14 224.188V226.146C1892.43 221.807 1850.45 208.985 1809.87 196.594C1764.37 182.912 1717.89 168.683 1669.31 166.339C1643.98 165.667 1618.71 166.563 1593.5 169.037C1547.6 172.594 1500.19 176.23 1454.14 159.459C1421.53 147.735 1391.65 129.167 1362.63 111.344C1298.19 71.63 1237.3 34.141 1157.66 75.146C1122.87 93.047 1092.44 119.589 1063.03 145.229C1027.02 176.5 989.84 209.021 944.221 226.068C933.617 229.844 922.757 232.641 911.648 234.459C900.536 236.281 889.354 237.089 878.099 236.896Z" fill="#0C60DD"/>
        <path d="M877.198 236.698C840.25 236.698 802.13 229.313 766.865 222.469C754.797 220.125 743.433 217.896 732.105 215.979C708.673 212.073 683.595 209.885 657.157 207.734C611.615 203.823 564.553 199.916 525.219 185.296C485.891 170.676 452.068 141.322 418.755 112.905C359.896 62.634 304.276 15.181 225.541 42.546C184.489 56.734 150.786 81.358 118.213 105.088C78.6449 133.973 37.7549 163.718 -16.4171 175.093L-16.8081 173.176C36.9369 161.957 77.6709 132.254 117.041 103.525C149.77 79.64 183.437 54.973 224.874 40.671C304.666 13.072 363.332 63.145 420.155 111.577C453.238 139.837 487.452 169.072 526.04 183.613C564.629 198.155 611.962 202.222 657.425 205.936C683.904 208.082 708.904 210.155 732.529 214.181C743.857 216.134 755.263 218.363 767.368 220.707C824.665 231.811 889.576 244.395 944.18 224.15C989.446 207.343 1026.63 175.291 1062.6 144.291C1092.2 118.765 1122.78 92.343 1157.86 74.479C1238.86 33.125 1300.34 71.39 1365.44 111.927C1394.38 129.984 1424.34 148.63 1456.91 160.63C1503.12 177.672 1550.65 173.531 1596.42 169.541C1621.09 166.911 1645.82 165.775 1670.63 166.145C1720.07 167.822 1767.37 182.249 1813.15 196.161C1852.79 208.239 1893.72 220.708 1936.17 225.01L1935.98 226.963C1893.33 222.624 1852.28 210.119 1812.6 198.041C1766.94 184.161 1719.76 169.775 1670.55 168.098C1645.82 167.733 1621.17 168.864 1596.58 171.499C1550.49 175.405 1502.84 179.666 1456.21 162.468C1423.48 150.39 1393.44 131.708 1364.39 113.609C1299.79 73.349 1238.78 35.432 1158.71 76.203C1123.91 93.984 1093.37 120.292 1063.84 145.739C1027.76 177.01 990.46 209.062 944.881 225.989C934.006 229.765 922.881 232.551 911.511 234.354C900.146 236.151 888.708 236.932 877.198 236.698Z" fill="#0C60DD"/>
        <path d="M876.068 236.578C840.136 236.578 803.11 229.974 768.818 223.797C756.474 221.609 744.839 219.537 733.313 217.703C710.428 214.146 686.214 212.385 660.589 210.51C614.349 207.109 566.506 203.588 526.469 188.698C487.417 174.198 452.891 145.307 419.38 117.323C359.739 67.563 303.38 20.578 224.719 47.354C183.943 61.229 150.318 85.349 117.781 108.682C78.2549 137.021 37.4059 166.302 -16.4171 177.281L-16.8081 175.37C36.6239 164.464 77.2809 135.302 116.65 107.084C149.301 83.631 183.046 59.469 224.093 45.48C303.807 18.391 363.176 67.918 420.624 115.839C453.983 143.667 488.509 172.474 527.134 186.86C566.931 201.678 614.618 205.152 660.743 208.553C686.404 210.433 710.623 212.188 733.587 215.787C745.306 217.584 756.827 219.693 769.165 221.886C826.113 232.084 890.634 243.657 944.649 223.761C989.873 207.11 1027.13 175.329 1063.22 144.568C1092.95 119.24 1123.64 93.089 1158.75 75.344C1240.23 34.183 1301.86 72.995 1367.08 114.078C1396.14 132.411 1426.22 151.37 1458.9 163.562C1505.77 180.994 1551.2 176.578 1599.51 171.89C1623.54 169.072 1647.65 167.666 1671.84 167.666C1721.91 168.682 1769.79 183.301 1816.12 197.296C1854.82 209.02 1894.85 221.218 1936.22 225.556L1936.02 227.509C1894.46 223.134 1854.35 210.936 1815.57 199.17C1769.37 185.139 1721.6 170.639 1671.8 169.618C1647.69 169.628 1623.65 171.024 1599.7 173.806C1553.42 178.337 1505.57 182.988 1458.36 165.4C1425.51 153.124 1395.36 134.129 1366.18 115.759C1301.43 74.947 1240.27 36.41 1159.77 77.098C1124.89 94.687 1094.27 120.801 1064.63 146.051C1028.46 176.931 991.006 208.827 945.465 225.598C934.314 229.457 922.908 232.312 911.251 234.155C899.594 236.005 887.865 236.812 876.068 236.578Z" fill="#0C60DD"/>
        <path d="M874.661 236.578C839.901 236.578 804.125 230.719 770.885 225.286C758.27 223.213 746.359 221.375 734.562 219.614C712.38 216.489 688.984 215.005 664.26 213.442C617.198 210.432 568.572 207.343 527.562 192.333C488.505 178.026 453.588 149.567 419.765 121.974C359.348 72.76 302.286 26.286 223.703 52.594C183.161 66.156 149.495 89.802 117.156 112.63C77.672 140.422 36.859 169.151 -16.61 179.823L-17 177.911C36.078 167.317 76.734 138.822 116.026 111.031C148.599 88.125 182.422 64.396 223.078 50.755C302.677 24.094 362.823 73.073 421.016 120.448C454.724 147.813 489.563 176.266 528.23 190.458C568.772 205.349 617.277 208.437 664.183 211.448C688.949 213.01 712.381 214.537 734.485 217.625C746.204 219.302 758.235 221.26 770.886 223.328C827.443 232.552 891.532 242.875 944.922 223.562C990.073 207.067 1027.49 175.562 1063.66 145.114C1093.49 119.979 1124.31 94.025 1159.46 76.437C1241.48 35.468 1303.19 74.833 1368.61 116.578C1397.78 135.187 1427.97 154.417 1460.74 166.807C1508.2 184.75 1553.85 179.786 1602.17 174.625C1625.51 171.646 1648.94 169.979 1672.47 169.62C1723.24 169.854 1771.59 184.552 1818.46 198.781C1856.23 210.234 1895.29 222.234 1935.63 226.416L1935.44 228.369C1894.93 223.994 1855.8 212.15 1817.92 200.655C1771.05 186.467 1722.93 171.811 1672.47 171.577C1648.94 171.895 1625.5 173.551 1602.17 176.541C1553.58 181.859 1507.69 186.859 1459.84 168.723C1426.84 156.254 1396.61 136.942 1367.32 118.296C1302.41 76.864 1241.05 37.775 1160.08 78.27C1125.17 95.744 1094.43 121.619 1064.67 146.676C1028.39 177.244 990.854 208.864 945.354 225.478C933.979 229.363 922.359 232.238 910.489 234.103C898.615 235.969 886.672 236.792 874.661 236.578Z" fill="#0C60DD"/>
        <path d="M872.979 236.656C839.51 236.656 805.099 231.578 773.151 226.849C760.187 224.974 747.958 223.135 735.891 221.651C714.448 219.031 691.917 217.74 668.089 216.526C620.245 213.948 570.761 211.292 529.089 196.24C490.032 182.131 454.881 154.105 420.589 126.98C359.349 78.35 301.542 32.423 223.042 58.22C182.771 71.475 149.302 94.574 116.922 116.855C77.4739 144.214 36.7029 172.204 -16.4171 182.522L-16.8081 180.605C35.9209 170.365 76.5409 142.339 115.984 115.251C148.479 92.813 182.109 69.636 222.609 56.308C302.13 30.157 363.213 78.548 421.994 125.376C455.973 152.465 491.124 180.412 529.749 194.407C571.15 209.376 620.478 211.996 668.207 214.574C692.072 215.866 714.603 217.074 736.124 219.735C748.233 221.219 760.457 223.016 773.463 224.933C829.552 233.219 893.171 242.6 945.901 223.527C991.047 207.225 1028.54 175.996 1064.83 145.819C1094.78 120.918 1125.71 95.006 1160.91 77.767C1243.35 36.996 1305.42 76.986 1370.95 119.319C1400.24 138.194 1430.51 157.741 1463.44 170.366C1511.48 188.814 1557.17 183.225 1605.8 177.361C1628.49 174.189 1651.29 172.262 1674.19 171.58H1677.23C1727.5 171.58 1775.46 186.122 1821.74 200.189C1858.61 211.371 1896.69 222.903 1935.98 227.278L1935.75 229.236C1896.3 224.856 1858.15 213.246 1821.2 201.871C1773.98 187.564 1725.23 172.788 1674.11 173.335C1651.28 174.012 1628.54 175.929 1605.92 179.085C1557.17 185.023 1511.12 190.616 1462.62 172.007C1429.5 159.304 1399.15 139.721 1369.78 120.762C1304.63 78.741 1243.12 39.028 1161.64 79.33C1126.49 96.606 1095.8 122.325 1065.96 147.111C1029.56 177.403 991.749 208.752 946.447 225.288C934.619 229.288 922.541 232.246 910.202 234.153C897.87 236.062 885.464 236.896 872.979 236.656Z" fill="#0C60DD"/>
        <path d="M870.87 236.854C838.886 236.854 806.115 232.552 775.615 228.568C762.256 226.808 749.677 225.167 737.219 223.839C716.599 221.651 695 220.75 672.151 219.928C623.411 217.819 573.068 215.668 530.495 200.386C491.438 186.469 455.662 158.876 421.136 132.178C359.115 84.178 300.527 38.834 221.948 64.126C181.953 77.022 148.557 99.579 116.26 121.428C76.8492 148.048 36.1141 175.563 -16.5319 185.532L-16.9229 183.615C35.4521 173.724 75.9942 146.329 115.244 119.787C147.661 97.896 181.171 75.225 221.4 62.245C300.838 36.646 362.588 84.412 422.265 130.615C456.635 157.23 492.176 184.709 531.041 198.547C573.301 213.557 623.525 215.708 672.114 217.818C694.999 218.797 716.598 219.735 737.338 221.922C749.755 223.25 762.369 224.891 775.729 226.651C834.078 234.276 894.422 242.286 946.448 223.562C991.557 207.421 1029.17 176.656 1065.57 146.598C1095.64 121.895 1126.69 96.369 1161.92 79.171C1244.88 38.598 1307.06 79.171 1372.83 122.166C1402.2 141.4 1432.62 161.255 1465.63 174.077C1514.37 193.035 1560.3 186.858 1608.92 180.291C1630.94 176.947 1653.07 174.76 1675.32 173.729C1727.34 172.239 1776.87 187.25 1824.59 201.755C1860.53 212.656 1897.67 223.916 1935.91 228.291L1935.67 230.208C1897.28 225.833 1860.02 214.573 1824.05 203.63C1776.36 189.166 1727.07 174.156 1675.4 175.682C1653.22 176.713 1631.15 178.901 1609.2 182.25C1560.3 188.812 1514.17 195.068 1464.92 175.917C1431.72 162.979 1401.22 143.084 1371.73 123.813C1306.39 81.125 1244.68 40.829 1162.7 80.813C1127.55 97.933 1096.7 123.381 1066.74 148.006C1030.22 177.99 992.531 209.022 947.031 225.287C934.76 229.376 922.234 232.391 909.448 234.334C896.661 236.276 883.802 237.115 870.87 236.854Z" fill="#0C60DD"/>
        <path d="M868.724 237.323C838.417 236.693 808.24 234.385 778.193 230.406C764.443 228.802 751.438 227.317 738.625 226.224C718.823 224.464 698.24 223.797 676.406 223.135C626.807 221.531 575.484 219.927 531.901 204.724C492.609 191.005 456.599 163.875 421.76 137.609C358.916 90.234 299.552 45.515 221.166 70.297C181.52 82.688 148.208 104.854 116.182 126.156C76.8121 152.187 36.1141 179.083 -16.2609 188.698L-16.6099 186.781C35.3741 177.245 75.9161 150.469 115.124 124.552C147.426 103.172 180.858 81.088 220.812 68.463C300.177 43.364 362.708 90.505 423.166 136.083C457.885 162.276 493.781 189.323 532.76 202.927C576.031 218.016 627.198 219.615 676.682 221.219C698.515 221.886 719.135 222.547 738.979 224.308C751.828 225.443 764.833 226.928 778.62 228.49C836.386 235.058 896.141 241.896 947.422 223.719C992.531 207.735 1030.26 177.125 1066.78 147.537C1096.93 123.068 1128.14 97.777 1163.41 80.735C1246.87 40.438 1309.28 81.673 1375.33 125.376C1404.85 144.918 1435.35 165.048 1468.47 178.105C1518 197.652 1564.01 190.772 1612.71 183.537C1634.04 179.985 1655.5 177.521 1677.08 176.152C1729.69 173.688 1779.6 188.855 1827.88 203.511C1863.03 214.146 1899.04 225.167 1936.3 229.547L1936.06 231.5C1898.65 227.083 1862.36 216.057 1827.29 205.391C1779.17 190.771 1729.65 175.641 1677.19 178.026C1655.28 179.083 1633.77 182.286 1612.99 185.375C1564.01 192.682 1517.77 199.563 1467.77 179.865C1434.46 166.73 1403.88 146.485 1374.27 126.938C1308.7 83.553 1246.72 42.584 1164.27 82.417C1129.12 99.381 1098.06 124.594 1067.99 148.865C1031.36 178.573 993.512 209.297 948.09 225.365C935.298 229.605 922.241 232.724 908.918 234.735C895.594 236.745 882.193 237.604 868.724 237.323Z" fill="#0C60DD"/>
        <path d="M865.677 237.833C837.792 237.833 809.161 235.057 781 232.317C766.745 230.952 753.271 229.624 740.031 228.723C721.166 227.395 701.599 227.004 680.901 226.614C630.125 225.598 578.026 224.578 533.385 209.296C493.974 195.812 457.614 169.114 422.421 143.275C358.76 96.568 298.615 52.474 220.229 76.828C180.896 88.984 147.661 110.479 115.515 131.239C76.2291 156.525 35.5671 182.796 -16.6099 192.135L-16.9219 190.224C34.6721 181.073 75.1721 155.042 114.307 129.635C146.567 108.802 179.88 87.265 219.484 74.911C298.849 50.364 362.161 96.838 423.401 141.791C458.552 167.51 494.755 194.13 533.854 207.499C578.182 222.702 630.359 223.718 680.781 224.733C701.521 225.129 721.088 225.519 740.031 226.848C753.271 227.786 766.786 229.077 781.041 230.442C838.182 235.994 897.275 241.702 947.775 223.994C992.843 208.359 1030.69 177.911 1067.33 148.629C1097.59 124.395 1128.92 99.343 1164.27 82.494C1248.23 42.426 1310.88 84.333 1377.2 128.697C1406.81 148.515 1437.43 169.036 1470.66 182.327C1520.93 202.457 1566.97 194.874 1615.76 186.858C1635.91 183.535 1656.73 180.134 1678.25 178.728C1731.48 175.212 1781.75 190.457 1830.57 205.389C1864.67 215.743 1899.93 226.493 1936.26 230.91L1936.02 232.827C1899.54 228.447 1864.2 217.66 1830.02 207.223C1781.52 192.447 1731.37 177.166 1678.52 180.681C1657.24 182.092 1636.46 185.488 1616.35 188.775C1567.29 196.827 1520.97 204.41 1470.19 184.124C1436.8 170.754 1406.11 150.197 1376.46 130.338C1310.65 86.286 1248.47 44.656 1165.55 84.255C1130.4 101.021 1099.16 126 1068.97 150.156C1032.22 179.552 994.215 209.963 948.866 225.833C922.661 234.859 894.578 237.833 865.677 237.833Z" fill="#0C60DD"/>
        <path d="M861.891 238.495C836.188 238.495 809.907 236.422 784.011 234.354C769.209 233.182 755.225 232.083 741.516 231.38C723.589 230.442 705.157 230.328 685.625 230.172C634.031 229.818 580.682 229.427 534.906 214.068C495.344 200.776 458.588 174.547 423.047 149.177C361.417 105.167 297.641 59.708 219.25 83.396C180.193 95.12 147.073 116.073 115.047 136.281C75.7969 161.062 35.1769 186.703 -16.4531 195.5L-16.7651 193.583C34.4749 184.828 74.9019 159.302 113.995 134.64C146.136 114.348 179.412 93.4 218.703 81.515C298.031 57.515 362.161 103.327 424.182 147.577C459.604 172.863 496.239 199.015 535.494 212.186C580.994 227.472 634.187 227.821 685.624 228.212C705.155 228.212 723.666 228.488 741.593 229.426C755.343 230.129 769.364 231.223 784.166 232.395C840.604 236.89 898.911 241.504 948.635 224.265C993.666 208.63 1031.67 178.729 1068.38 149.765C1098.81 125.765 1130.24 100.942 1165.67 84.255C1250.19 44.463 1313.07 87.067 1379.62 132.135C1409.34 152.265 1440.08 173.099 1473.36 186.625C1524.41 207.344 1570.53 199.057 1619.35 190.26C1638.88 186.744 1658.88 183.109 1679.66 181.307C1733.47 176.698 1784.13 192.213 1833.11 207.224C1866.34 217.391 1900.68 227.901 1936.1 232.281L1935.87 234.234C1900.29 229.817 1865.84 219.265 1832.56 209.099C1783.7 194.13 1733.16 178.693 1679.85 183.266C1659.15 185.063 1639.07 188.657 1619.66 192.177C1570.57 201.01 1524.21 209.375 1472.61 188.266C1439.1 174.667 1408.29 153.792 1378.49 133.542C1312.41 88.787 1249.95 46.532 1166.45 85.818C1131.3 102.391 1099.86 127.136 1069.55 151.094C1032.68 180.177 994.605 210.235 949.261 225.948C922.073 235.562 892.391 238.495 861.891 238.495Z" fill="#0C60DD"/>
        <path d="M856.969 239.396C833.886 239.396 810.412 237.948 787.25 236.5C771.823 235.562 757.219 234.667 742.964 234.198C726.131 233.651 708.865 233.766 690.589 233.886C637.938 234.157 583.454 234.469 536.391 219.032C496.709 205.975 459.568 180.178 423.636 155.277C361.146 111.928 296.704 67.173 218.277 90.272C179.532 101.725 146.527 122.053 114.579 141.673C75.3291 165.829 34.7871 190.808 -16.6089 199.215L-16.9209 197.257C33.8501 188.934 74.3131 164.075 113.407 140.033C145.433 120.491 178.595 99.929 217.574 88.398C296.897 64.945 361.808 110.091 424.574 153.674C460.35 178.497 497.376 204.216 536.824 217.153C583.689 232.518 637.86 232.205 690.392 231.929C708.673 231.929 725.975 231.695 742.845 232.241C757.142 232.71 771.71 233.611 787.173 234.548C842.793 237.991 900.439 241.548 949.183 224.814C994.173 209.179 1032.29 179.746 1069.13 151.095C1099.67 127.329 1131.26 102.741 1166.77 86.288C1251.83 46.767 1314.94 90.194 1381.77 135.851C1411.61 156.294 1442.47 177.44 1475.86 191.2C1527.73 212.58 1573.85 203.476 1622.67 193.861C1641.42 190.147 1660.83 186.356 1680.99 184.205C1735.31 178.382 1786.44 194.096 1835.61 209.257C1867.99 219.226 1901.46 229.507 1935.99 233.924L1935.75 235.841C1901.03 231.424 1867.48 221.101 1835.02 211.138C1785.89 196.008 1735.12 180.372 1681.18 186.122C1661.14 188.268 1641.77 192.101 1623.06 195.773C1573.93 205.466 1527.53 214.617 1475.12 192.997C1441.53 179.164 1410.59 157.82 1380.68 137.455C1314.28 91.955 1251.79 48.997 1167.58 88.049C1132.43 104.424 1100.8 128.934 1070.33 152.622C1033.39 181.388 995.151 211.252 949.843 226.653C921.214 236.5 889.5 239.396 856.969 239.396Z" fill="#0C60DD"/>
        <path d="M850.443 240.526C830.604 240.526 810.49 239.63 790.651 238.771C774.521 238.068 759.406 237.401 744.406 237.209C728.781 237.209 712.729 237.209 695.781 237.636C641.963 238.693 586.422 239.745 537.916 224.152C498.036 211.329 460.505 186.043 424.218 161.61C361.067 118.928 295.843 74.87 217.296 97.428C178.869 108.449 145.942 128.188 114.108 147.303C75.0569 170.755 34.3959 195.109 -16.4531 203.12L-16.7651 201.167C33.6929 193.349 74.0789 169.037 113.094 145.62C145.047 126.469 178.089 106.531 216.75 95.552C296.078 72.724 361.771 117.047 425.354 159.927C461.521 184.318 498.937 209.573 538.62 222.469C586.698 238.104 642.198 236.854 695.86 235.839C712.808 235.527 728.86 235.214 744.563 235.407C759.443 235.605 774.714 236.266 790.844 236.975C845.526 239.397 902.156 241.897 950.198 225.6C995.188 210.392 1033.39 181.074 1070.33 152.735C1100.99 129.282 1132.82 104.891 1168.25 88.594C1253.86 49.505 1317.25 93.36 1384.35 139.875C1414.27 160.63 1445.24 182.13 1478.75 196.125C1531.47 218.172 1577.56 208.24 1626.38 197.766C1644.46 193.86 1663.13 189.948 1682.66 187.37C1737.34 180.37 1788.74 196.24 1838.3 211.563C1869.86 221.339 1902.51 231.459 1936.25 235.875L1935.98 237.792C1902.08 233.375 1869.35 223.25 1837.72 213.443C1786.08 197.453 1737.34 182.365 1682.94 189.323C1663.41 191.823 1644.82 195.813 1626.81 199.682C1577.68 210.234 1531.28 220.203 1478 197.922C1444.3 183.849 1413.25 162.313 1383.21 141.479C1316.58 95.276 1253.67 51.573 1169.07 90.39C1133.72 106.572 1102.09 130.848 1071.43 154.301C1034.36 182.754 996.009 212.15 950.744 227.473C919.849 237.755 885.594 240.526 850.443 240.526Z" fill="#0C60DD"/>
        <path d="M647.349 242.677C610.089 242.677 573.146 240.099 539.63 229.505C499.599 216.88 461.521 192.057 425 168.021C361.068 126.115 294.906 82.766 216.438 104.735C178.323 115.407 145.511 134.563 113.797 153.089C74.7451 175.954 34.1621 199.605 -16.2969 207.188L-16.6089 205.271C33.5001 197.729 73.8071 174 112.781 151.406C144.656 132.838 177.578 113.609 215.89 102.859C295.255 80.619 361.77 124.239 426.093 166.38C462.614 190.338 500.301 215.12 540.218 227.63C589.78 243.265 646.53 241.349 701.406 239.354C717.026 238.849 731.594 238.338 746.083 238.26C761.708 238.26 777.645 238.572 794.557 239.005C848.297 240.411 903.911 241.896 951.015 226.146C995.968 211.094 1034.29 182.13 1071.35 154.104C1102.17 130.651 1133.84 106.729 1169.61 90.661C1255.78 51.572 1319.4 96.369 1386.77 143.63C1416.84 164.734 1447.89 186.625 1481.52 200.776C1535.07 223.484 1581.16 212.734 1629.94 201.359C1647.32 197.453 1665.32 193.114 1684.22 190.302C1739.53 181.974 1788.66 197.333 1840.72 213.755C1871.5 223.37 1903.21 233.297 1936.33 237.713L1936.06 239.666C1902.9 235.213 1870.99 225.244 1840.14 215.63C1788.31 199.448 1739.37 184.161 1684.5 192.411C1665.71 195.223 1647.74 199.406 1630.36 203.473C1581.27 214.926 1534.91 225.713 1480.74 202.77C1446.96 188.463 1415.79 166.572 1385.63 145.426C1318.73 98.52 1255.58 54.155 1170.44 92.619C1135.01 108.645 1103.22 132.645 1072.52 155.864C1035.34 183.968 996.868 213.046 951.639 228.176C904.144 244.046 848.41 242.598 794.514 241.155C777.603 240.723 761.629 240.29 746.082 240.41C731.634 240.41 716.988 240.999 701.483 241.504C683.401 242.052 665.24 242.677 647.349 242.677Z" fill="#0C60DD"/>
        <path d="M641.729 247.448C606.969 247.448 572.713 244.75 541.036 234.979C500.77 222.588 462.494 198.234 425.468 174.667C360.713 133.464 293.812 90.86 215.265 112.125C177.499 122.401 144.77 140.969 113.135 159.031C74.0779 181.229 33.6149 204.177 -16.4531 211.37L-16.7651 209.453C32.9539 202.302 73.0629 179.432 112.12 157.307C143.834 139.291 176.641 120.682 214.682 110.401C294.047 88.786 361.338 131.63 426.406 172.943C463.354 196.396 501.552 220.75 541.547 233.063C592.708 248.698 650.906 246.001 706.912 243.303C720.933 242.642 734.251 242.017 747.297 241.662C763.662 241.193 780.417 241.35 798.068 241.662C850.756 242.172 905.203 242.641 951.407 227.355C996.324 212.543 1034.76 183.891 1071.93 156.214C1102.87 133.152 1134.85 109.308 1170.55 93.438C1257.22 54.818 1321.11 100.162 1388.8 148.162C1418.95 169.542 1450.12 191.667 1483.82 206.172C1538.27 229.625 1584.32 217.896 1633.02 205.662C1649.78 201.438 1667.08 197.1 1685.36 193.938C1741.05 184.282 1790.38 199.797 1842.56 216.214C1872.64 225.678 1903.68 235.448 1935.99 239.902L1935.75 241.819C1903.29 237.366 1872.13 227.553 1842.01 218.095C1790.07 201.756 1740.98 186.314 1685.79 195.85C1667.59 199.017 1650.32 203.355 1633.61 207.579C1584.55 219.928 1538.23 231.615 1483.2 207.97C1449.3 193.387 1418.02 171.225 1387.79 149.725C1320.57 102.079 1257.14 57.048 1171.46 95.199C1135.99 110.834 1104.08 134.798 1073.23 157.741C1035.92 185.533 997.342 214.262 952.149 229.194C905.633 244.553 850.993 244.085 798.149 243.579C780.42 243.579 763.665 243.267 747.378 243.579C734.295 243.928 721.055 244.553 707.071 245.22C685.432 246.391 663.479 247.448 641.729 247.448Z" fill="#0C60DD"/>
        <path d="M637.625 252.448C604.896 252.448 572.714 249.714 542.563 240.724C502.141 228.568 463.474 204.646 426.058 181.542C360.6 141.089 292.876 99.224 214.251 120.058C176.798 129.985 144.189 147.969 112.704 165.36C73.652 186.902 33.225 209.178 -16.452 216.178L-16.686 214.261C32.6 207.501 72.871 185.297 111.767 163.839C143.408 146.407 176.095 128.344 213.788 118.375C293.267 97.307 361.304 139.406 427.111 180.057C464.413 203.119 502.96 226.963 543.189 239.041C596.111 254.952 655.554 251.197 713.085 247.562C725.465 246.781 737.184 246.041 748.861 245.494C766.043 244.708 783.658 244.551 802.366 244.395C853.882 243.968 907.116 243.536 952.382 228.76C997.653 213.989 1035.81 185.765 1073.11 158.406C1104.36 135.578 1136.3 112.005 1172.08 96.291C1259.29 58.025 1323.46 104.109 1391.38 152.775C1421.65 174.509 1452.97 196.942 1486.76 211.681C1542.06 235.759 1585.92 223.837 1636.69 210.04C1652.78 205.66 1669.42 201.123 1687.04 197.686C1743.12 186.665 1792.49 202.337 1844.87 218.952C1874.24 228.291 1904.59 237.91 1936.26 242.405L1935.99 244.316C1904.15 239.821 1873.73 230.17 1844.28 220.863C1792.22 204.332 1743.05 188.696 1687.43 199.639C1669.85 203.082 1653.25 207.457 1637.2 211.951C1588.19 225.284 1541.9 237.868 1485.98 213.519C1452 198.701 1420.6 176.186 1390.25 154.415C1322.76 105.983 1259.06 60.29 1172.86 98.129C1137.28 113.764 1105.25 137.218 1074.28 160.004C1036.86 187.369 998.201 215.863 953.008 230.639C907.82 245.415 854.039 245.92 802.367 246.274C783.7 246.274 766.086 246.586 748.976 247.368C737.262 247.915 725.544 248.654 713.2 249.441C688.125 250.771 662.74 252.448 637.625 252.448Z" fill="#0C60DD"/>
        <path d="M634.5 257.651C603.839 258.24 573.714 254.5 544.125 246.432C503.469 234.703 464.411 211.25 426.641 188.422C360.245 148.672 291.974 107.589 213.24 127.839C176.136 137.412 143.521 154.808 112.276 171.615C73.2192 192.526 32.7972 214.146 -16.6088 220.553L-16.8428 218.642C32.0952 212.267 72.2822 190.731 111.183 169.897C142.704 153.012 175.277 135.579 212.73 125.959C292.251 105.516 361.147 146.798 427.543 186.745C465.194 209.334 504.132 232.709 544.71 244.552C599.392 260.661 660.434 255.849 719.413 251.24C730.074 250.381 740.189 249.599 750.304 248.896C768.387 247.682 786.981 247.25 806.627 246.745C856.893 245.495 908.835 244.162 953.127 229.896C998.002 215.432 1036.63 187.448 1074.2 160.438C1105.45 137.844 1137.67 114.506 1173.49 98.99C1261.28 60.995 1325.8 107.745 1393.88 157.193C1424.27 179.24 1455.67 201.99 1489.57 216.959C1545.77 241.782 1589.55 228.995 1640.25 214.147C1655.67 209.652 1671.69 204.959 1688.68 201.246C1745.08 188.777 1794.56 204.647 1846.93 221.454C1875.68 230.678 1905.52 240.214 1936.41 244.709L1936.14 246.626C1904.9 242.131 1875.13 232.553 1846.31 223.173C1794.17 206.444 1744.96 190.652 1689.03 202.965C1672.12 206.876 1656.18 211.371 1640.76 215.866C1589.71 230.798 1545.62 243.694 1488.75 218.6C1454.65 203.553 1423.17 180.725 1392.71 158.6C1324.95 109.465 1260.97 63.105 1174.23 100.631C1138.61 116.032 1106.43 139.329 1075.3 161.845C1037.8 188.97 998.982 217.038 953.831 231.579C909.305 245.964 857.206 247.214 806.821 248.543C787.295 249.053 768.587 249.481 750.581 250.694C740.425 251.397 730.347 252.178 719.685 253.038C691.328 255.38 662.698 257.651 634.5 257.651Z" fill="#0C60DD"/>
        <path d="M632.042 263.042C602.797 263.521 574.052 259.964 545.802 252.37C504.99 240.646 465.542 217.703 427.422 195.5C360.479 156.411 291.271 116.229 212.615 135.891C175.782 145.073 143.407 161.881 112.12 178.146C72.7501 198.391 32.4061 219.5 -16.6089 225.401V223.406C31.9381 217.427 72.1251 196.552 110.985 176.5C142.235 160.161 174.886 143.318 211.912 134.052C291.506 114.193 361.068 154.729 428.36 193.896C466.365 216.021 505.652 238.927 546.271 250.573C603.099 266.912 665.667 260.974 726.167 255.224C734.839 254.406 743.391 253.583 751.828 252.844C770.849 251.198 790.453 250.38 811.193 249.521C860.094 247.485 910.672 245.375 953.943 231.578C998.782 217.312 1037.53 189.677 1075.02 162.937C1106.27 140.619 1138.76 117.515 1174.65 102.192C1262.96 64.515 1327.64 111.926 1396.1 162.119C1426.57 184.437 1458.13 207.536 1492.1 222.744C1549.21 248.265 1592.91 234.468 1643.49 218.833C1658.33 214.182 1673.64 209.375 1690.01 205.349C1746.68 191.474 1796.2 207.537 1848.57 224.5C1876.73 233.651 1905.79 243.068 1936.3 247.604L1936.02 249.521C1905.37 244.985 1876.19 235.526 1847.99 226.38C1795.85 209.495 1746.64 193.505 1690.47 207.265C1674.15 211.171 1658.88 216.057 1644.07 220.671C1593.1 236.655 1549.09 250.457 1491.29 224.577C1457.11 209.296 1425.52 186.119 1394.93 163.718C1326.94 113.958 1262.61 66.702 1175.32 103.916C1139.62 119.161 1107.32 142.182 1076.07 164.463C1038.42 191.275 999.526 219.187 954.412 233.374C910.907 247.213 860.172 249.322 811.157 251.395C790.417 252.254 770.85 253.077 751.865 254.718C743.433 255.458 734.875 256.28 726.245 257.103C695.036 260.031 663.286 263.042 632.042 263.042Z" fill="#0C60DD"/>
        <path d="M630.167 268.672C602.026 269.13 574.349 265.766 547.131 258.589C506.084 246.86 466.287 224.579 427.855 202.849C360.209 164.62 290.256 125.063 211.287 144.214C174.766 153.047 142.506 169.115 111.297 184.829C72.2451 204.37 32.0161 224.734 -16.4949 230.406L-16.6099 228.489C31.5831 222.822 71.6971 202.614 110.52 183.067C141.765 167.432 174.218 151.015 210.931 142.14C290.645 122.874 360.947 162.588 428.905 201.01C467.259 222.703 507.02 245.14 547.754 256.593C606.77 273.129 671.056 265.973 733.197 259.015L753.233 256.791C773.306 254.64 793.967 253.468 815.723 252.213C863.176 249.479 912.312 246.624 954.53 233.338C999.327 219.265 1038.23 191.942 1075.84 165.515C1107.32 143.432 1139.85 120.567 1175.79 105.479C1264.64 68.109 1329.55 116.151 1398.41 167.041C1429.03 189.713 1460.67 213.124 1494.72 228.525C1552.76 254.796 1596.27 240.254 1646.85 223.291C1661.06 218.562 1675.75 213.635 1691.45 209.374C1748.4 194.015 1797.88 210.275 1850.25 227.431C1877.83 236.499 1906.34 245.842 1936.37 250.379L1936.06 252.332C1905.91 247.759 1877.47 238.379 1849.67 229.311C1797.57 212.228 1748.32 196.082 1691.96 211.29C1676.33 215.509 1661.65 220.394 1647.47 225.165C1596.7 242.17 1552.64 256.905 1493.94 230.326C1459.65 214.691 1427.94 191.237 1397.24 168.602C1328.96 118.06 1264.44 70.336 1176.68 107.274C1140.79 122.284 1108.22 145.227 1076.98 167.118C1039.25 193.623 1000.23 221.019 955.116 235.212C912.663 248.582 863.413 251.394 815.804 254.17C793.971 255.42 773.351 256.592 753.314 258.743L733.314 260.972C699.073 265.427 664.688 267.995 630.167 268.672Z" fill="#0C60DD"/>
        <path d="M628.76 274.417C601.593 274.766 574.864 271.511 548.578 264.646C507.333 253.349 467.224 231.344 428.437 209.922C360.088 172.396 289.395 133.62 210.307 152.188C174.14 160.865 141.958 176.5 110.833 191.667C71.776 210.625 31.625 230.287 -16.495 235.605L-16.729 233.688C31.078 228.37 71.188 208.829 110.011 189.912C141.256 174.704 173.48 158.954 209.881 150.433C289.673 131.745 360.714 170.678 429.376 208.36C468.084 229.584 508.074 251.355 549.084 262.771C610.48 279.615 676.563 271.094 740.464 262.771L754.521 260.932C775.651 258.276 797.485 256.672 820.49 254.989C866.495 251.63 914.224 248.15 955.271 235.447C1000.03 221.53 1039.05 194.52 1076.74 168.411C1108.33 146.562 1141.03 123.927 1177.04 108.994C1266.36 71.978 1331.54 120.723 1400.56 172.239C1431.26 195.223 1463.05 219.145 1497.18 234.781C1556.08 261.755 1599.59 246.234 1649.97 228.291C1663.6 223.447 1677.66 218.406 1692.93 213.989C1750.07 197.14 1799.48 213.52 1851.85 230.911C1878.92 239.901 1906.89 249.166 1936.45 253.739L1936.18 255.692C1906.42 251.083 1878.38 241.781 1851.23 232.749C1799.17 215.473 1750.04 199.171 1693.48 215.822C1678.48 220.28 1664.42 225.286 1650.83 230.129C1600.06 248.228 1556.2 263.863 1496.56 236.582C1462.19 220.947 1430.35 197.02 1399.58 174.04C1331.04 122.832 1266.28 74.441 1177.97 111.066C1142.16 125.878 1109.55 148.436 1078.07 170.248C1040.22 196.472 1001.09 223.524 956.017 237.519C914.616 250.378 866.928 253.894 820.84 257.259C797.798 258.936 776.043 260.54 754.955 263.197L740.891 265C703.708 269.531 665.943 274.417 628.76 274.417Z" fill="#0C60DD"/>
        <path d="M627.823 280.323C601.505 280.625 575.599 277.511 550.099 270.979C508.661 259.875 468.083 238.338 429.026 217.505C360.01 180.76 288.422 142.771 209.37 160.75C173.479 168.88 141.412 184.005 110.401 198.625C71.3441 216.995 31.2711 235.995 -16.4949 241L-16.6099 239.042C30.8431 234.078 70.9161 215.162 109.697 196.865C140.942 182.209 172.968 167.006 209.056 158.834C289.004 140.699 360.712 178.886 430.077 215.787C469.134 236.542 509.442 258.042 550.645 269.063C614.583 286.224 682.619 276.214 748.39 266.563L755.968 265.428C778.307 262.183 802.286 260.074 825.525 258.001C869.973 254.095 915.942 250.183 956.051 237.756C1000.81 224.032 1039.91 197.376 1077.75 171.537C1109.47 149.922 1142.28 127.527 1178.32 112.907C1268.16 76.162 1333.61 125.49 1402.82 177.756C1433.63 201.204 1465.5 225.053 1499.8 240.923C1559.59 268.595 1603.03 252.178 1653.33 233.105C1666.34 228.178 1679.81 223.058 1694.22 218.444C1751.48 200.111 1800.85 216.684 1853.15 234.079C1879.74 243.032 1907.24 252.256 1936.41 256.871L1936.1 258.824C1906.77 254.173 1879.19 244.907 1852.52 235.954C1800.54 218.485 1751.48 201.99 1694.85 220.319C1680.44 224.892 1667 230.017 1654 234.939C1603.22 254.132 1559.52 270.705 1498.98 242.757C1464.49 226.809 1432.58 202.695 1401.65 179.398C1332.87 127.487 1267.92 78.471 1179.03 114.783C1143.14 129.439 1110.44 151.762 1078.81 173.413C1040.89 199.293 1001.63 226.069 956.599 239.866C916.255 252.257 870.208 256.283 825.646 260.189C802.485 262.225 778.5 264.335 756.24 267.616L748.428 268.715C708.672 274.224 667.932 280.323 627.823 280.323Z" fill="#0C60DD"/>
        <path d="M627.042 286.417C601.438 286.657 576.219 283.646 551.391 277.391C509.792 266.485 469.058 245.417 429.651 225.047C359.932 189.047 287.875 151.797 208.432 169.229C172.854 177.047 140.906 191.63 109.974 205.739C71.1091 223.406 30.8801 241.859 -16.6089 246.546V244.593C30.2561 239.942 70.4481 221.65 109.151 203.864C140.161 189.713 172.229 175.057 208.042 167.197C288.146 149.645 360.365 187.015 430.667 223.213C469.959 243.499 510.615 264.526 552.016 275.354C618.724 292.87 688.714 281.26 756.594 270.042H757.297C780.729 266.131 806.078 263.552 830.526 261.089C873.49 256.714 917.698 252.178 956.719 240.37C1001.47 226.808 1040.69 200.422 1078.62 174.901C1110.44 153.516 1143.37 131.354 1179.5 116.776C1269.91 80.344 1335.49 130.302 1404.97 183.224C1435.87 206.677 1467.85 231.109 1502.22 247.172C1562.92 275.589 1606.23 258.198 1656.45 238.104C1668.92 233.104 1681.77 227.943 1695.51 223.172C1752.85 203.354 1802.14 220.083 1854.28 237.833C1880.44 246.744 1907.51 255.968 1936.3 260.583L1935.99 262.536C1907.01 257.843 1879.86 248.619 1853.62 239.708C1801.79 222.078 1752.81 205.39 1696.1 225.01C1682.35 229.781 1669.5 234.901 1657.04 239.901C1606.27 260.187 1562.72 277.703 1501.28 248.932C1466.72 232.786 1434.65 208.359 1403.64 184.75C1334.75 132.214 1269.49 82.688 1180.12 118.609C1144.15 133.073 1111.34 155.161 1079.59 176.541C1041.55 202.145 1002.18 228.603 957.188 242.249C918.131 253.973 873.527 258.666 830.605 263.004C806.194 265.504 780.964 268.082 757.49 271.952H756.829C714.021 279.146 670.276 286.417 627.042 286.417Z" fill="#0C60DD"/>
        <path d="M626.729 292.516C601.693 292.761 577.021 289.881 552.719 283.875C510.964 273.167 469.959 252.604 430.276 232.672C359.974 197.495 287.208 160.943 207.651 177.948C172.5 185.412 140.474 199.484 109.661 213.125C70.6039 230.286 30.5669 247.995 -16.4541 252.214V250.261C30.4109 245.886 70.2909 228.214 108.994 211.172C139.926 197.531 171.874 183.422 207.379 175.995C287.676 158.953 360.712 195.537 431.369 231.031C470.734 250.771 511.666 271.328 553.223 282.041C622.744 299.864 698.004 285.947 758.468 274.848C783.265 270.312 809.786 267.223 835.447 264.291C876.692 259.562 919.301 254.64 957.265 243.265C1001.98 229.895 1041.31 203.822 1079.32 178.572C1111.26 157.384 1144.31 135.577 1180.51 121.072C1271.36 84.916 1337.17 135.457 1406.84 188.968C1438.09 212.812 1469.96 237.442 1504.48 253.739C1566.04 282.822 1607.24 265.468 1659.42 243.343C1671.33 238.301 1683.64 233.103 1696.8 228.213C1754.18 206.911 1803.35 223.838 1855.41 241.781C1881.19 250.651 1907.86 259.838 1936.33 264.526L1936.02 266.443C1907.4 261.755 1880.64 252.526 1854.79 243.615C1803.04 225.834 1754.18 208.985 1697.46 230.053C1684.34 234.938 1672.08 240.136 1660.2 245.142C1609.63 266.522 1566 284.975 1503.67 255.501C1468.99 239.121 1436.8 214.418 1405.71 190.537C1336.51 137.376 1271.08 87.146 1181.26 122.876C1145.28 137.22 1112.32 159.069 1080.45 180.215C1042.29 205.507 1002.85 231.694 957.851 245.142C919.773 256.553 877.007 261.481 835.684 266.251C810.101 269.183 783.58 272.23 758.861 276.803C719.214 284.031 673.286 292.516 626.729 292.516Z" fill="#0C60DD"/>
        <path d="M626.141 298.885C601.75 299.067 577.703 296.27 554.006 290.484C512.136 279.927 470.855 259.838 430.902 240.411C359.897 205.817 286.392 170.052 206.714 186.468C171.563 193.661 139.891 207.223 109.073 220.359C70.3281 236.932 30.2551 254.093 -16.6089 258.198V256.24C29.7501 252.334 69.7821 235.094 108.37 218.563C139.188 205.391 171.058 191.787 206.287 184.553C286.704 168.058 360.443 204.1 431.719 238.652C471.558 258.199 512.761 278.095 554.438 288.569C621.183 305.34 689.61 294.001 759.641 279.814C785.766 274.538 813.573 270.981 840.448 267.58C880.052 262.538 921.021 257.299 957.849 246.392C1002.53 233.184 1041.98 207.303 1080.1 182.408C1112.16 161.455 1145.32 139.762 1181.65 125.533C1273.04 89.648 1339.01 140.778 1408.88 194.877C1440.12 218.992 1472.19 243.893 1506.79 260.387C1569.28 290.173 1610.37 271.84 1662.47 248.658C1673.8 243.616 1685.52 238.382 1698.09 233.418C1755.46 210.668 1804.52 227.746 1856.46 245.845C1881.89 254.72 1908.21 263.902 1936.41 268.637L1936.06 270.548C1907.7 265.782 1881.38 256.595 1855.84 247.72C1804.25 229.741 1755.5 212.543 1698.79 235.215C1686.29 240.179 1674.58 245.418 1663.25 250.46C1610.68 273.913 1569.16 292.319 1505.97 262.184C1471.17 245.611 1438.91 220.632 1407.7 196.439C1338.26 142.694 1272.69 91.918 1182.39 127.371C1146.34 141.517 1113.26 163.173 1081.27 184.085C1043.03 209.142 1003.47 234.903 958.515 248.309C921.525 259.252 880.4 264.491 840.796 269.533C813.963 272.976 786.119 276.491 760.145 281.767C714.76 290.911 670.12 298.885 626.141 298.885Z" fill="#0C60DD"/>
        <path d="M626.375 305.495C602.333 305.662 578.63 302.927 555.255 297.287C513.229 286.964 471.713 267.303 431.562 248.344C359.932 214.459 285.88 179.474 205.895 195.344C171.135 202.261 139.499 215.354 108.76 227.979C69.9368 244.005 29.7858 260.583 -16.5322 264.448V262.495C29.4728 258.589 69.3898 242.172 108.176 226.182C138.91 213.521 170.666 200.385 205.817 193.427C286.468 177.401 360.791 212.578 432.734 246.588C472.765 265.505 514.208 285.088 556.036 295.406C625.088 312.411 695.234 299.666 761.203 285.166C788.542 279.109 817.677 275.083 845.797 271.171C883.797 265.937 923.052 260.463 958.787 250.025C1003.47 236.973 1042.99 211.405 1081.23 186.744C1113.38 165.947 1146.65 144.489 1182.78 130.416C1274.56 94.807 1340.72 146.442 1410.79 201.124C1442.04 225.478 1474.33 250.692 1509.02 267.379C1572.29 297.79 1613.38 278.598 1665.44 254.327C1676.26 249.285 1687.43 244.046 1699.38 239.004C1756.71 214.848 1805.65 232.124 1857.44 250.379C1882.55 259.249 1908.53 268.395 1936.49 273.165L1936.14 275.082C1908.06 270.311 1882.01 261.129 1856.82 252.212C1805.34 234.077 1756.79 217.035 1700.12 240.801C1688.21 245.843 1677.04 251.041 1666.26 256.082C1613.73 280.592 1572.25 299.978 1508.2 269.139C1473.28 252.368 1440.9 227.082 1409.58 202.691C1339.98 148.394 1274.25 97.149 1183.48 132.332C1147.39 146.322 1114.19 167.785 1081.93 188.499C1043.58 213.244 1003.82 238.884 958.986 252.02C923.132 262.494 883.762 267.968 845.72 273.244C817.637 277.155 788.579 281.062 761.241 287.161C717.651 296.505 672.193 305.495 626.375 305.495Z" fill="#0C60DD"/>
        <path d="M626.651 311.865C602.906 312.058 579.474 309.448 556.349 304.047C514.287 293.844 472.573 274.693 432.229 256.162C360.01 222.98 285.297 188.657 205.073 204.1C170.547 210.746 138.953 223.371 108.333 235.371C69.5471 251.006 29.3951 266.876 -16.6509 270.548V268.595C29.0471 264.96 69.0421 249.053 107.708 233.418C138.364 221.178 170.198 208.517 204.76 201.835C285.609 186.2 360.599 220.752 433.125 254.054C473.354 272.544 515.146 291.658 556.896 301.783C628.214 319.017 700.193 304.83 762.057 290.054C790.765 283.252 821.114 278.721 850.442 274.419C886.843 268.987 924.458 263.398 959.062 253.393C1003.74 240.45 1043.39 215.164 1081.7 190.851C1113.96 170.289 1147.31 148.986 1183.64 135.07C1275.85 99.893 1342.21 151.877 1412.39 207.07C1443.64 231.695 1476.13 257.185 1510.97 274.07C1575.02 305.106 1616.11 285.054 1668.14 259.643C1678.41 254.643 1689.03 249.445 1700.4 244.398C1757.65 218.836 1806.47 236.231 1858.15 254.679C1882.98 263.554 1908.65 272.7 1936.25 277.507L1935.94 279.46C1908.06 274.616 1882.28 265.429 1857.36 256.517C1806.08 238.225 1757.61 220.944 1701.14 246.158C1689.81 251.2 1679.22 256.398 1668.92 261.403C1616.42 287.044 1574.98 307.294 1510.07 275.825C1474.92 258.861 1442.58 233.299 1411.18 208.632C1341.38 153.908 1275.5 101.96 1184.3 136.908C1148.17 150.747 1114.9 172.085 1082.75 192.491C1044.28 216.996 1004.64 242.366 959.608 255.382C924.884 265.429 887.197 271.017 850.717 276.455C821.425 280.83 791.155 285.325 762.488 292.085C720.698 302.172 674.339 311.865 626.651 311.865Z" fill="#0C60DD"/>
        <path d="M627.042 318.625C603.547 318.75 580.365 316.146 557.48 310.807C515.339 300.765 473.47 282.078 433.011 263.901C360.167 231.38 284.829 197.729 204.37 212.734C170.12 219.145 138.563 231.224 108.021 242.953C69.2342 257.922 29.1252 273.401 -16.5308 276.88V274.927C28.8492 271.484 68.8082 256.047 107.474 241.115C138.094 229.391 169.729 217.073 204.177 210.667C285.219 195.537 360.833 229.313 433.948 261.948C474.37 280.005 515.964 298.651 558.068 308.62C624.193 324.255 687.891 314.875 763.229 295.797C793.265 288.219 824.823 283.214 855.328 278.406C890.167 272.896 926.177 267.187 959.687 257.609C1004.36 244.828 1044.09 219.77 1082.52 195.578C1114.86 175.172 1148.33 154.104 1184.65 140.344C1277.29 105.167 1343.77 157.818 1414.15 213.521C1445.4 238.38 1478.05 264.136 1513 281.182C1577.87 312.843 1618.92 291.927 1670.91 265.547C1680.71 260.583 1690.82 255.422 1701.57 250.38C1758.78 223.484 1807.45 241.036 1858.96 259.64C1883.57 268.515 1908.96 277.702 1936.49 282.546L1936.18 284.463C1908.49 279.578 1882.98 270.39 1858.3 261.479C1807.17 243.031 1758.9 225.599 1702.43 252.135C1691.68 257.182 1681.57 262.338 1671.8 267.302C1619.31 294 1577.87 315.109 1512.14 282.937C1476.99 265.781 1444.42 239.942 1412.94 215.041C1343.03 159.692 1276.98 107.432 1185.35 142.182C1149.19 155.864 1115.83 176.89 1083.57 197.218C1045.03 221.494 1005.15 246.624 960.234 259.484C926.604 269.104 890.515 274.807 855.599 280.317C825.177 285.129 793.656 290.129 763.698 297.713C714.411 310.26 670.198 318.625 627.042 318.625Z" fill="#0C60DD"/>
        <path d="M627.823 325.271C604.427 325.339 581.328 322.735 558.537 317.453C516.433 307.562 474.448 289.349 433.87 271.719C360.401 239.823 284.438 206.875 203.787 221.495C169.73 227.63 138.209 239.396 107.745 250.807C68.9639 265.271 28.8489 280.281 -16.4531 283.562V281.609C28.6149 278.328 68.5729 263.395 107.24 248.974C137.782 237.557 169.375 225.755 203.589 219.536C284.865 204.838 361.105 237.947 434.808 269.963C475.308 287.51 517.214 305.729 559.162 315.536C631.141 332.385 700.313 318.822 764.287 301.661C795.532 293.26 828.303 287.822 859.938 282.588C893.761 277.609 927.204 270.781 960.271 262.104C1004.91 249.443 1044.75 224.656 1083.26 200.656C1115.68 180.448 1149.23 159.578 1185.59 145.932C1278.66 111.031 1345.21 164.073 1415.67 220.203C1447.19 245.338 1479.8 271.292 1514.87 288.531C1580.49 320.739 1621.58 299.041 1673.6 271.526C1682.86 266.599 1692.46 261.521 1702.66 256.516C1759.8 228.37 1808.31 246.042 1859.67 264.802C1884.04 273.677 1909.23 282.859 1936.61 287.786L1936.22 289.859C1908.68 284.932 1883.41 275.708 1858.96 266.797C1807.99 248.188 1759.87 230.641 1703.48 258.391C1693.32 263.433 1683.72 268.516 1674.46 273.401C1621.97 301.156 1580.49 323.12 1513.98 290.443C1478.83 273.089 1446.02 247.058 1414.42 221.886C1344.4 166.105 1278.27 113.412 1186.25 147.928C1150.05 161.49 1116.61 182.329 1084.24 202.652C1045.61 226.694 1005.66 251.59 960.739 264.334C927.604 273.022 894.093 279.86 860.208 284.855C828.458 289.86 795.765 295.251 764.52 303.657C721.089 315.302 675.276 325.271 627.823 325.271Z" fill="#0C60DD"/>
        <path d="M628.839 332.151C605.391 332.198 582.245 329.589 559.396 324.333C517.292 314.599 475.266 296.974 434.651 279.692C360.443 248.421 284.005 216.057 203.042 230.286C169.219 236.229 137.74 247.64 107.318 258.625C68.5732 272.661 28.4592 287.198 -16.5308 290.365V288.412C28.2242 285.245 68.1832 270.782 106.808 256.792C137.313 245.766 168.87 234.354 202.886 228.37C284.396 214.026 361.225 246.469 435.547 277.896C476.125 295.016 518.073 312.766 559.979 322.417C633.917 339.464 702.265 325.391 765.146 307.683C797.766 299.074 830.74 292.183 864.078 287.006C896.599 281.938 928.781 275.24 960.625 266.912C1005.27 254.365 1045.18 229.782 1083.81 205.974C1116.3 185.964 1149.93 165.245 1186.29 151.76C1279.71 117.01 1346.42 170.442 1416.92 227.005C1448.52 252.333 1481.21 278.521 1516.44 295.916C1582.83 328.713 1623.92 306.156 1675.98 277.661C1684.77 272.817 1693.87 267.849 1703.52 262.885C1760.54 233.531 1808.97 251.354 1860.14 270.234C1884.31 279.145 1909.31 288.333 1936.53 293.296L1936.18 295.213C1908.84 290.249 1883.72 280.984 1859.47 272.072C1808.7 253.348 1760.7 235.64 1704.42 264.603C1694.81 269.572 1685.71 274.535 1677.08 279.379C1624.51 308.15 1583.03 330.9 1515.73 297.676C1480.31 280.202 1447.54 253.936 1415.86 228.525C1345.76 172.317 1279.52 119.082 1187.15 153.556C1150.95 167.04 1117.4 187.681 1084.98 207.655C1046.23 231.499 1006.2 256.16 961.285 268.79C929.394 277.16 897.16 283.868 864.582 288.92C831.301 294.076 798.374 300.956 765.806 309.555C722.536 321.755 676.995 332.151 628.839 332.151Z" fill="#0C60DD"/>
        <path d="M629.422 338.953C606.068 339.015 583 336.479 560.214 331.328C518.23 321.755 476.204 304.437 435.547 287.708C360.912 256.984 283.656 225.166 202.495 239.161C168.828 244.947 137.391 255.968 107.005 266.52C68.2602 280.125 28.1882 294.198 -16.5308 297.286V295.328C27.9532 292.281 67.8702 278.25 106.495 264.687C137 253.973 168.479 242.911 202.302 237.322C284.125 223.405 361.38 255.067 436.448 285.947C477.026 302.64 518.974 319.916 560.802 329.452C636.766 346.77 707.146 331.327 765.963 313.817C799.562 304.567 833.567 297.197 867.979 291.692C898.719 286.223 930.474 280.515 961.015 272.15C1005.5 259.718 1045.73 235.134 1084.2 211.681C1116.77 191.822 1150.59 171.264 1186.84 157.853C1280.57 123.301 1347.32 177.046 1417.94 233.962C1449.65 259.525 1482.42 285.946 1517.77 303.457C1584.86 336.764 1626.03 313.467 1678.13 283.915C1686.49 279.186 1695.12 274.3 1704.22 269.451C1761.13 238.961 1809.4 256.904 1860.45 275.941C1884.43 284.852 1909.23 294.076 1936.33 299.082L1935.98 300.999C1908.64 295.994 1883.8 286.728 1859.74 277.78C1808.97 258.9 1761.24 241.113 1705.12 271.171C1696.02 276.02 1687.39 280.905 1679.07 285.635C1626.46 315.38 1584.9 338.911 1516.86 305.182C1481.32 287.552 1448.44 261.088 1416.69 235.448C1346.39 178.886 1280.22 125.49 1187.51 159.656C1151.3 173.021 1117.67 193.505 1085.18 213.286C1046.39 236.974 1006.24 261.442 961.328 273.947C930.745 282.468 898.833 288.176 868.135 293.494C833.796 298.994 799.854 306.353 766.317 315.577C725.464 327.854 679.297 338.953 629.422 338.953Z" fill="#0C60DD"/>
        <path d="M630.792 345.948C607.209 345.948 583.917 343.339 560.917 338.13C519.089 328.672 477.141 311.864 436.563 295.562C361.261 265.39 283.459 234.156 201.948 247.838C168.479 253.427 137.078 264.135 106.693 274.536C67.9481 287.864 27.8751 301.583 -16.6089 304.557V302.599C27.5631 299.589 67.5161 285.99 106.146 272.776C136.568 262.417 168.089 251.667 201.714 246C283.735 232.24 361.849 263.589 437.344 293.885C477.844 310.145 519.755 326.953 561.427 336.333C639.187 353.885 708.828 338.13 766.667 320.385C801.115 310.515 836.016 302.697 871.381 296.932C900.985 291.536 931.605 285.911 961.209 277.703C1005.89 265.349 1046 241.156 1084.79 217.703C1117.4 198.156 1151.18 177.635 1187.54 164.307C1281.63 129.906 1348.34 183.849 1418.99 241.156C1450.78 266.911 1483.63 293.531 1519.13 311.198C1586.93 344.974 1626.15 322.146 1680.4 290.563C1688.21 285.948 1696.45 281.219 1705.04 276.454C1761.87 244.949 1809.99 263.006 1860.92 282.121C1884.74 291.069 1909.39 300.335 1936.41 305.34L1936.06 307.293C1908.73 302.21 1884.16 292.949 1860.25 283.84C1809.72 264.882 1761.99 246.981 1705.98 278.054C1697.43 282.783 1689.26 287.554 1681.38 292.127C1628.65 322.809 1587.01 346.851 1518.27 312.846C1482.58 295.06 1449.61 268.362 1417.74 242.487C1347.44 185.612 1281.24 131.904 1188.21 165.951C1152 179.201 1118.34 199.529 1085.81 219.191C1046.75 242.644 1006.68 266.993 961.758 279.425C931.998 287.633 901.336 293.264 871.696 298.696C836.394 304.456 801.555 312.274 767.18 322.149C726.948 334.573 681.094 345.948 630.792 345.948Z" fill="#0C60DD"/>
        <path d="M631.729 353.062C608.005 353.067 584.568 350.463 561.427 345.244C519.833 335.905 477.963 319.525 437.5 303.692C361.615 273.989 283.146 243.265 201.401 256.791C168.047 262.26 136.646 272.697 106.26 282.822C67.5571 295.681 27.4841 308.973 -16.6509 311.983V310.025C27.2871 307.056 67.2031 293.765 105.792 280.947C136.256 270.822 167.735 260.385 201.245 254.874C283.5 241.348 362.24 272.15 438.36 301.78C478.782 317.608 520.381 333.947 562.011 343.249C625.245 357.4 686.641 352.556 767.292 326.952C802.912 315.655 839.235 308.895 874.349 302.363C902.974 297.009 932.62 291.498 961.484 283.561C1006.16 271.29 1046.35 247.212 1085.26 223.952C1117.91 204.41 1151.65 184.16 1188.09 170.91C1282.45 136.592 1349.16 190.884 1419.81 248.342C1451.68 274.3 1484.65 301.113 1520.27 318.899C1588.77 353.06 1628.06 329.607 1682.47 297.128C1689.93 292.711 1697.62 288.097 1705.9 283.446C1762.65 251.04 1810.61 269.18 1861.46 288.41C1885.17 297.363 1909.66 306.665 1936.61 311.863L1936.25 313.78C1908.92 308.697 1884.55 299.395 1860.76 290.327C1808.19 270.431 1762.81 253.27 1706.87 285.244C1698.79 289.859 1691.25 294.468 1683.44 298.885C1630.6 330.468 1588.81 355.369 1519.41 320.739C1483.55 302.833 1450.51 275.942 1418.56 249.947C1348.26 192.838 1282.1 138.895 1188.76 172.827C1152.55 185.999 1118.84 206.171 1086.27 225.676C1047.21 249.124 1006.94 273.166 962.031 285.52C933.052 293.338 903.442 299.004 874.698 304.359C839.547 310.885 803.38 317.651 767.88 328.906C716.521 345.13 672.932 353.062 631.729 353.062Z" fill="#0C60DD"/>
        <path d="M633.37 360.219C609.308 360.25 585.537 357.646 562.052 352.401C520.729 343.172 479.094 327.266 438.828 311.828C362.318 282.588 283.187 252.333 201.13 265.583C167.89 270.979 136.489 281.218 106.104 291.031C67.4012 303.578 27.3642 316.557 -16.5308 319.562V317.609C27.1302 314.64 67.0472 301.703 105.636 289.156C136.1 279.302 167.579 269.062 200.975 263.666C283.579 250.301 362.902 280.671 439.689 310.025C479.877 325.39 521.475 341.296 562.637 350.483C627.199 364.868 688.637 359.941 767.96 334.103C804.361 322.379 841.231 315.264 876.929 308.541C904.773 303.301 933.559 297.869 961.835 290.171C1006.52 277.937 1046.83 254.015 1085.76 230.874C1118.49 211.327 1152.16 191.317 1188.64 178.181C1283.27 143.941 1349.98 198.389 1420.55 256.046C1452.5 282.155 1485.54 309.166 1521.36 327.067C1590.45 361.583 1629.9 337.546 1684.5 304.281C1691.53 299.984 1698.79 295.562 1706.41 291.067C1763.08 257.807 1810.97 276.057 1861.66 295.369C1885.1 304.359 1909.66 313.661 1936.57 318.822L1936.18 320.775C1909.12 315.619 1884.63 306.275 1860.95 297.322C1808.54 277.348 1763.31 260.072 1707.39 292.905C1699.81 297.322 1692.54 301.78 1685.52 306.04C1630.37 339.655 1590.53 363.967 1520.5 328.905C1484.49 310.926 1451.37 283.874 1419.3 257.686C1349 200.384 1282.92 146.285 1189.3 180.134C1153.14 193.228 1119.39 213.285 1086.78 232.629C1047.72 256.082 1007.3 279.889 962.344 292.165C934.026 299.983 905.162 305.337 877.276 310.613C841.656 317.295 804.828 324.254 768.583 336.061C718.005 352.167 674.693 360.219 633.37 360.219Z" fill="#0C60DD"/>
        <path d="M635.167 367.292C610.62 367.24 586.381 364.5 562.443 359.084C521.511 350.016 480.11 334.537 440.115 319.527C362.98 290.678 283.224 260.897 200.818 273.991C167.698 279.303 136.219 289.272 105.792 298.929C67.1252 311.24 27.0942 323.943 -16.5308 326.99V325.037C26.8962 321.99 66.7762 309.402 105.365 297.089C135.865 287.396 167.386 277.547 200.698 272.073C283.537 258.781 363.568 288.766 440.938 317.729C480.891 332.661 522.214 348.14 563.027 357.167C628.918 371.828 690.355 366.938 768.428 340.948C805.412 328.636 842.636 321.401 878.803 314.719C906.142 309.558 934.22 304.203 961.991 296.662C1006.71 284.506 1047.1 260.662 1086.12 237.6C1118.85 218.288 1152.51 198.511 1188.99 185.22C1283.9 151.017 1350.49 205.626 1420.99 263.397C1453.01 289.663 1486.13 316.829 1522.1 334.808C1591.82 369.678 1631.46 345.131 1686.14 311.084C1692.74 306.98 1699.62 302.719 1706.72 298.459C1763.36 264.449 1811.16 282.824 1861.7 302.131C1885.13 311.162 1909.5 320.464 1936.41 325.584L1936.02 327.501C1909 322.34 1884.59 312.959 1861.03 304.048C1808.74 283.996 1763.39 266.678 1707.74 300.142C1700.63 304.402 1693.76 308.663 1687.15 312.767C1631.77 347.121 1591.74 371.944 1521.09 336.767C1484.92 318.668 1451.72 291.46 1419.54 265.116C1349.47 207.694 1283.31 153.439 1189.46 187.251C1153.33 200.308 1119.59 220.241 1086.93 239.511C1047.88 262.615 1007.3 286.417 962.345 298.73C934.454 306.313 906.22 311.668 878.96 316.829C842.95 323.673 805.689 330.704 768.856 342.98C719.448 359.281 676.641 367.292 635.167 367.292Z" fill="#0C60DD"/>
        <path d="M636.495 374.286C611.599 374.25 587.005 371.5 562.714 366.041C522.214 357.051 481.204 341.999 441.641 327.421C363.839 298.885 283.381 269.374 200.698 282.546C167.578 287.786 136.063 297.635 105.599 307.135C66.9319 319.171 26.9379 331.645 -16.4531 334.77V332.853C26.7399 329.728 66.6199 317.218 105.167 305.259C135.474 295.717 166.953 285.947 200.308 280.592C283.501 267.378 364.35 296.972 442.225 325.623C481.829 340.123 522.761 355.17 563.303 364.123C630.48 379.019 691.954 374.284 768.819 348.217C806.194 335.592 843.767 328.477 880.131 321.597C906.923 316.514 934.808 311.238 962.147 303.811C1006.87 291.691 1047.33 267.926 1086.46 244.983C1119.19 225.754 1152.86 205.894 1189.3 192.837C1284.37 158.639 1350.84 213.285 1421.26 271.014C1453.36 297.399 1486.56 324.686 1522.8 342.78C1593.1 377.962 1632.94 352.869 1688.05 318.197C1694.3 314.233 1700.81 310.223 1707.58 306.155C1764.17 271.525 1809.67 289.077 1862.36 309.363C1885.8 318.389 1910.01 327.733 1936.88 332.816L1936.49 334.727C1909.46 329.493 1885.17 320.112 1861.66 311.081C1809.48 290.951 1764.41 273.597 1708.59 307.68C1701.91 311.8 1695.4 315.81 1689.07 319.722C1633.38 354.899 1593.15 380.034 1521.91 344.425C1485.54 326.248 1452.27 298.847 1420.08 272.383C1350.14 214.883 1284.05 160.55 1190.04 194.206C1153.68 207.768 1119.94 227.315 1087.25 246.857C1048.19 269.883 1007.45 293.763 962.46 305.883C934.924 313.347 907.158 318.623 880.444 323.706C844.158 330.545 806.663 337.659 769.402 350.284C721.323 366.312 678.359 374.286 636.495 374.286Z" fill="#0C60DD"/>
        <path d="M639.266 381.677C613.464 381.594 587.985 378.677 562.834 372.922C522.917 364.047 482.339 349.469 443.126 335.276C364.621 307.016 283.459 277.781 200.465 290.99C167.387 296.23 135.788 305.964 105.246 315.344C66.6202 327.068 26.6612 339.5 -16.5308 342.703V340.75C26.4272 337.469 66.3082 325.115 104.854 313.391C135.437 303.969 167.073 294.276 200.307 289C283.812 275.745 365.208 305.026 443.942 333.365C482.999 347.474 523.619 362.094 563.416 370.927C631.843 386.172 693.359 381.599 769.051 355.682C806.624 342.823 844.311 335.708 880.754 328.87C907.348 323.865 934.806 318.703 962.145 311.318C1006.91 299.24 1047.45 275.511 1086.66 252.688C1119.39 233.573 1153.06 213.599 1189.42 200.777C1284.68 166.537 1350.99 221.183 1421.22 278.954C1453.36 305.454 1486.64 332.897 1523 351.032C1593.81 386.407 1633.92 360.923 1689.38 325.704C1695.24 321.99 1701.1 318.157 1707.5 314.287C1764.17 279.11 1809.56 296.777 1862.17 317.141C1885.6 326.172 1909.7 335.516 1936.37 340.594L1935.98 342.511C1908.96 337.235 1884.7 327.855 1861.26 318.782C1809.17 298.615 1764.17 281.22 1708.32 315.813C1702.11 319.724 1696.1 323.631 1690.24 327.188C1634.19 362.756 1593.73 388.48 1521.91 352.636C1485.38 334.381 1452.03 306.902 1419.77 280.282C1350.02 223.058 1283.97 168.683 1189.93 202.615C1153.87 215.589 1120.13 235.292 1087.48 254.365C1048.15 277.349 1007.49 301.271 962.499 313.271C935.155 320.698 907.582 325.86 880.947 330.86C844.588 337.704 806.973 344.777 769.52 357.6C722.302 373.781 680.547 381.677 639.266 381.677Z" fill="#0C60DD"/>
        <path d="M639.542 389.182C613.62 389.083 588.026 386.151 562.756 380.385C523.032 371.552 482.61 356.932 443.516 343.093C364.698 314.874 283.381 285.713 200.115 298.963C167.073 304.244 135.553 313.973 105.052 323.395C66.4631 335.317 26.5471 347.671 -16.6509 350.754V348.801C26.3131 345.556 66.1511 333.166 104.62 321.442C135.162 312.02 166.761 302.249 199.959 296.973C283.501 283.64 365.287 312.879 444.334 341.181C483.391 355.134 523.735 369.598 563.339 378.389C631.886 393.675 693.36 389.139 768.896 363.342C806.271 350.561 843.807 343.483 880.089 336.644C906.959 331.561 934.766 326.326 962.11 318.821C1006.71 306.665 1047.37 283.326 1086.66 260.738C1119.27 241.972 1153.06 222.545 1188.99 209.608C1284.13 175.29 1351.03 229.816 1421.92 287.587C1453.91 313.66 1486.99 340.634 1522.92 358.649C1593.73 394.222 1634.12 368.774 1689.96 333.597C1695.63 330.04 1701.45 326.363 1707.46 322.649C1764.21 287.706 1809.64 305.217 1862.2 325.467C1885.64 334.415 1909.54 343.681 1936.41 348.92L1936.02 350.831C1909.12 345.555 1884.97 336.253 1861.81 327.378C1809.67 307.326 1764.68 290.013 1708.79 324.451C1702.74 328.357 1697.07 331.8 1691.26 335.394C1634.9 370.884 1594.12 396.566 1522.33 360.529C1486.21 342.388 1453.01 315.378 1420.79 289.232C1350.37 231.768 1283.98 177.591 1189.77 211.68C1154 224.576 1120.29 243.925 1087.75 262.493C1048.34 285.128 1007.61 308.54 962.771 320.774C935.156 328.321 907.349 333.555 880.479 338.639C844.234 345.478 806.739 352.514 769.521 365.259C722.495 381.323 680.901 389.182 639.542 389.182Z" fill="#0C60DD"/>
        <path d="M638.094 396.297C612.672 396.162 587.573 393.255 562.792 387.578C522.953 378.703 482.261 364.125 442.891 349.896C363.839 321.443 282.136 292.005 199.214 305.573C166.25 310.964 135.006 321.011 104.776 330.745C66.4642 343.094 26.6612 355.839 -16.5308 359.084V357.131C26.4272 353.886 66.1102 341.183 104.542 328.871C134.813 319.137 166.136 309.09 199.256 303.657C282.678 289.975 364.621 319.485 443.907 348.063C483.199 362.209 523.855 376.829 563.574 385.662C631.22 400.672 692.777 396.021 769.324 370.027C806.86 357.324 844.59 350.131 881.105 343.173C908.131 338.017 936.016 332.699 963.709 325.194C1007.8 313.236 1048.42 290.876 1087.67 269.262C1120.13 251.397 1153.68 232.908 1189.23 220.319C1283.74 186.783 1351.97 240.215 1424.19 296.855C1455.94 321.756 1488.82 347.673 1524.05 365.063C1594.36 400.245 1635.17 375.501 1691.57 341.61C1697.15 338.209 1702.9 334.73 1708.87 331.214C1765.5 297.714 1810.89 314.756 1863.42 334.459C1887.24 344.152 1911.72 351.735 1936.85 357.209L1936.46 359.12C1911.24 353.61 1886.67 346 1862.75 336.297C1810.69 316.75 1765.7 299.901 1709.85 332.896C1703.91 336.412 1698.13 339.891 1692.59 343.25C1635.68 377.651 1594.56 402.51 1523.2 366.979C1487.77 349.349 1454.85 323.51 1422.98 298.536C1351.19 242.25 1283.35 189.088 1189.85 222.312C1154.7 234.859 1121.07 253.312 1088.69 271.135C1049.33 292.791 1008.63 315.224 964.299 327.224C936.565 334.771 908.601 340.089 881.575 345.245C845.137 352.203 807.367 359.396 770.028 372.063C721.557 388.359 679.495 396.297 638.094 396.297Z" fill="#0C60DD"/>
        <path d="M636.417 402.63C611.49 402.573 586.87 399.781 562.558 394.26C522.641 385.427 481.673 370.536 442.068 356.114C362.511 327.187 280.297 297.244 197.459 311.588C164.61 317.26 133.756 327.812 103.725 337.973C65.84 350.911 26.626 364.322 -16.728 367.681V365.728C26.236 362.363 65.293 349.035 103.256 336.139C133.173 325.936 164.063 315.379 196.99 309.675C280.375 295.248 362.823 325.31 442.615 354.274C482.183 368.659 523.073 383.55 562.87 392.347C629.698 407.159 691.448 402.352 769.401 376.243C807.911 363.305 846.62 355.915 883.995 348.878C910.474 343.836 937.854 338.597 965.078 331.446C1008.47 320.035 1048.89 299.118 1087.95 278.873C1120.13 262.18 1153.45 244.946 1188.32 233.061C1282.06 201.123 1351.39 252.603 1424.85 306.858C1456.64 330.311 1489.53 354.743 1524.44 371.551C1594.43 405.244 1635.71 381.947 1692.9 349.66C1698.31 346.587 1703.91 343.446 1709.69 340.243C1766.05 308.972 1813.42 326.092 1863.57 344.149C1887.22 353.378 1911.46 360.607 1936.3 365.842L1935.91 367.759C1910.98 362.499 1886.65 355.254 1862.91 346.025C1811 327.301 1766.2 311.197 1710.59 342.119C1704.85 345.286 1699.26 348.452 1693.83 351.536C1636.15 384.062 1594.47 407.593 1523.55 373.468C1488.4 356.583 1455.51 332.192 1423.64 308.583C1350.64 254.521 1281.63 203.474 1188.91 235.093C1154.15 246.822 1120.95 264.135 1088.81 280.786C1049.75 301.078 1009.13 322.026 965.548 333.479C938.204 340.672 910.866 345.87 884.345 350.953C847.012 358.068 808.381 365.453 769.949 378.312C720.932 394.578 678.125 402.589 636.417 402.63Z" fill="#0C60DD"/>
        <path d="M634.656 408.297C610.192 408.261 586.031 405.547 562.166 400.167C522.249 391.334 481.01 376.167 441.093 361.469C360.833 331.917 277.796 301.349 195.036 316.714C162.348 322.808 131.958 333.948 102.588 344.74C65.4061 358.459 26.8171 372.646 -16.6099 376.323V374.365C26.3481 370.693 64.9001 356.584 102.083 342.901C131.531 332.115 161.994 320.896 194.843 314.797C278.109 299.162 361.379 329.964 441.874 359.63C481.713 374.286 522.874 389.453 562.634 398.25C628.717 412.906 690.858 407.865 770.457 381.479C810.999 368.036 851.457 360.375 890.592 352.948C915.707 348.177 941.681 343.25 967.727 336.802C1010.26 326.328 1050.3 307.172 1089.04 288.646C1120.95 273.401 1153.92 257.688 1188.13 246.745C1280.85 217.235 1351.26 265.584 1425.83 316.792C1457.85 338.797 1490.93 361.506 1525.81 377.375C1593.88 408.297 1634.11 388.125 1689.85 360.177C1696.88 356.62 1704.14 352.984 1711.76 349.271C1768.23 321.912 1812.6 336.844 1864.08 354.156C1887.61 362.734 1911.66 369.484 1936.22 374.406L1935.91 376.323C1911.1 371.406 1886.83 364.63 1863.06 355.995C1812.09 338.834 1768.08 324.021 1712.34 351.031C1704.53 354.937 1697.46 358.38 1690.43 361.896C1634.27 390.12 1593.69 410.485 1524.8 379.177C1489.65 363.229 1456.56 340.437 1424.5 318.432C1350.29 267.614 1280.26 219.38 1188.52 248.619C1154.39 259.484 1121.49 275.197 1089.67 290.405C1050.84 308.973 1010.69 328.165 967.963 338.717C941.874 345.165 915.864 350.092 890.713 354.858C851.656 362.249 811.234 369.91 770.807 383.316C720.349 400.125 676.682 408.297 634.656 408.297Z" fill="#0C60DD"/>
        <path d="M633.328 413.688C609.062 413.646 585.094 410.948 561.427 405.599C521.63 396.766 480.109 381.287 439.958 366.276C358.76 335.984 274.791 304.635 192.187 321.365C159.692 327.933 129.692 339.813 100.989 351.308C64.432 365.922 26.781 381.01 -16.688 385.115V383.162C26.27 379.058 64 364.047 100.479 349.506C129.38 337.975 159.302 326.053 191.989 319.449C275.182 302.642 359.385 334.069 440.859 364.48C482.765 380.115 522.369 394.891 561.932 403.569C628.093 418.225 688.791 413.142 771.396 386.017C815.334 371.595 856.891 363.892 900.906 355.684C923.521 351.502 946.916 347.122 970.541 341.809C1012.02 332.465 1051.62 315.382 1089.94 298.809C1121.46 285.247 1154.07 271.215 1187.58 261.481C1279.09 234.981 1350.45 279.658 1425.83 326.913C1458.2 347.199 1491.68 368.153 1526.79 382.892C1594.24 411.231 1635.41 392.975 1692.39 367.725C1699.18 364.715 1706.17 361.584 1713.48 358.459C1769.06 334.574 1815.22 349.037 1864.12 364.324C1887.7 372.35 1911.73 378.642 1936.22 383.204L1935.91 385.115C1911.39 380.61 1887.31 374.37 1863.69 366.391C1812.92 350.563 1769.29 336.844 1714.38 360.453C1707.11 363.578 1700.12 366.703 1693.37 369.677C1635.91 395.161 1594.43 413.531 1526.2 384.88C1491.05 370.104 1457.39 349.078 1424.93 328.791C1349.75 281.885 1278.74 237.286 1188.09 263.551C1154.66 273.244 1122.12 287.239 1090.64 300.801C1052.25 317.337 1012.53 334.457 970.856 343.801C947.231 349.113 923.991 353.494 901.179 357.676C857.241 365.843 815.762 373.582 771.903 387.968C719.292 405.323 675.432 413.688 633.328 413.688Z" fill="#0C60DD"/>
        <path d="M631.729 418.458C607.771 418.468 584.104 415.864 560.724 410.64C521.042 401.843 481.167 386.76 438.906 370.77C356.651 339.499 271.625 307.484 189.218 325.661C156.879 332.817 127.624 345.52 99.3848 357.791C63.6088 373.426 26.6248 389.416 -16.6102 394.067L-16.8442 392.15C26.1138 387.499 62.9478 371.515 98.6038 355.994C126.963 343.682 156.255 330.937 188.786 323.749C271.744 305.452 357.083 337.739 439.609 368.973C481.791 384.921 521.63 399.968 561.114 408.723C642.156 426.707 710.619 410.562 772.567 390.431C825.411 373.27 874.817 364.556 927.15 355.254C942.306 352.556 957.968 349.78 973.822 346.806C1014.64 338.988 1054.08 324.061 1092.24 309.556C1123.29 297.072 1154.94 286.389 1187.19 277.504C1277.37 254.561 1349.55 294.936 1425.94 337.738C1458.83 356.149 1492.85 375.186 1528.39 388.556C1594.98 413.806 1637.27 397.816 1695.79 375.655C1702.31 373.191 1709.03 370.65 1715.98 368.113C1770.34 348.097 1816.16 361.155 1864.62 375.03C1888.11 382.332 1911.97 388.04 1936.22 392.15L1935.91 394.067C1911.58 390.005 1887.64 384.338 1864.08 377.062C1815.89 363.307 1770.34 350.286 1716.6 370.067L1696.41 377.65C1637.51 399.931 1594.86 416.072 1527.65 390.546C1491.99 377.025 1457.89 357.947 1424.93 339.457C1348.88 296.895 1277.06 256.707 1187.62 279.457C1155.44 288.311 1123.87 298.967 1092.91 311.431C1054.67 325.936 1015.15 340.983 974.135 348.764C958.281 351.774 942.578 354.509 927.463 357.207C875.208 366.467 825.916 375.186 773.151 392.384C730.031 406.339 683.557 418.458 631.729 418.458Z" fill="#0C60DD"/>
        <path d="M630.167 423.307C606.443 423.286 583.011 420.682 559.865 415.489C520.417 406.77 480.308 391.411 437.813 375.109C354.464 343.171 268.23 310.145 186.131 329.885C153.99 337.703 125.402 351.187 97.7461 364.281C62.7931 380.854 26.6631 397.974 -16.5299 403.177L-16.6079 401.26C26.3501 396.062 62.2461 379.02 97.0431 362.52C124.814 349.39 153.522 335.786 185.861 328.01C268.543 308.072 355.012 341.218 438.673 373.312C481.09 389.531 521.163 404.895 560.413 413.609C636.106 430.343 700.585 418.067 774.09 394.494C838.455 373.817 895.83 364.671 962.304 354.077L977.616 351.655C1017.22 345.322 1056 332.853 1093.5 320.853C1123.88 311.082 1155.28 301.035 1187 294.197C1275.74 275.197 1348.53 310.926 1425.63 348.723C1459.18 365.218 1493.9 382.259 1529.99 394.301C1595.37 416.192 1641.07 402.119 1698.91 384.098C1705.31 382.119 1711.89 380.098 1718.64 378.041C1771.44 362.093 1816.75 373.702 1864.7 385.859C1888.23 392.453 1912.07 397.583 1936.22 401.26V403.213C1911.91 399.624 1887.91 394.546 1864.24 387.968C1816.51 375.734 1771.48 364.166 1719.18 380.15L1699.65 386.171C1641.46 404.228 1595.49 418.499 1529.52 396.411C1493.32 384.296 1458.56 367.213 1424.93 350.718C1348.14 313.036 1275.62 277.468 1187.59 296.348C1155.94 303.145 1124.59 313.192 1094.24 322.926C1056.66 335.004 1017.85 347.436 978.085 353.806L962.736 356.27C896.34 366.822 839.08 375.812 774.871 396.567C724.411 412.438 678.359 423.307 630.167 423.307Z" fill="#0C60DD"/>
        <path d="M627.823 427.88C604.568 427.88 581.589 425.354 558.885 420.297C519.833 411.656 479.406 396.021 436.718 379.49C352.239 346.73 264.869 313.037 183.202 334.224C151.212 342.589 123.249 356.974 96.2231 370.927C62.1241 388.479 26.8581 406.615 -16.3759 412.479L-16.6099 410.526C26.3481 404.74 61.4991 386.682 95.3221 369.167C122.468 355.214 150.51 340.75 182.733 332.349C264.988 310.807 352.665 344.818 437.421 377.651C480.03 394.182 520.301 409.781 559.317 418.38C634.187 434.953 699.921 422.291 775.379 398.448C844.04 376.714 905.082 366.276 981.285 356.542C1019.63 351.62 1057.64 341.886 1094.55 332.427C1124.58 324.609 1155.63 316.792 1186.72 311.432C1273.82 296.62 1347.09 327.422 1424.69 360.062C1459.06 374.484 1494.57 389.416 1531.36 400.01C1594.86 418.302 1641.61 407.046 1700.79 392.817L1721.17 387.968C1771.95 376.244 1816.59 386.249 1863.84 396.958C1887.71 402.838 1911.84 407.364 1936.22 410.526L1935.98 412.479C1911.41 409.307 1887.09 404.771 1863.03 398.875C1816.16 388.203 1771.56 378.12 1721.21 389.885C1714.26 391.489 1707.5 393.13 1700.86 394.734C1641.38 409.036 1594.43 420.333 1530.46 401.885C1493.51 391.255 1457.97 376.323 1423.56 361.859C1346.23 329.338 1273.19 298.614 1186.65 313.39C1155.64 318.666 1124.62 326.64 1094.67 334.338C1057.83 343.76 1019.76 353.531 981.4 358.458C905.28 368.192 844.353 378.588 775.806 400.323C723.865 416.776 676.562 427.88 627.823 427.88Z" fill="#0C60DD"/>
        <path d="M623.917 432.219C601.526 432.297 579.396 429.953 557.521 425.183C518.464 416.621 478.12 400.792 435.235 384.022C349.782 350.6 261.433 316.012 180.235 338.876C148.402 347.829 121.063 363.074 94.62 377.767C61.308 396.298 26.86 415.491 -16.416 421.902L-16.729 419.944C26.235 413.574 60.526 394.501 93.646 376.048C120.203 361.272 147.662 346.027 179.573 336.959C261.354 313.938 350.052 348.688 435.823 382.147C478.781 398.918 519.052 414.709 557.792 423.23C642.115 441.798 722.183 420.1 806.974 397.115C863.609 381.792 922.193 365.844 984.76 361.547C1023.39 358.849 1061.97 351.266 1099.28 343.958C1127.55 338.364 1156.77 332.619 1185.86 329.026C1271.05 318.51 1344.62 344.307 1422.51 371.594C1458.38 384.849 1494.83 396.266 1531.86 405.834C1592.48 420.454 1642.01 411.891 1699.34 401.923L1722.77 398.017C1771.12 390.199 1814.75 398.642 1860.92 407.788C1885.73 413.137 1910.75 417.173 1935.98 419.908V421.861C1910.68 419.132 1885.59 415.08 1860.72 409.705C1814.71 400.596 1771.24 391.997 1723.24 399.934L1699.81 403.84C1642.24 413.809 1592.56 422.371 1531.52 407.751C1494.39 398.178 1457.85 386.751 1421.88 373.47C1344.2 346.105 1270.85 320.506 1186.1 330.98C1157.08 334.574 1127.9 340.324 1099.67 345.871C1062.29 353.22 1023.62 360.803 984.918 363.501C922.428 367.84 864.038 383.709 807.486 399.032C744.99 415.995 685.12 432.219 623.917 432.219Z" fill="#0C60DD"/>
        <path d="M623.604 437.339C600.812 437.438 578.281 435.094 556 430.303C517.37 421.86 476.714 405.871 433.714 388.949C347.438 354.98 258.23 319.84 177.698 344.038C145.943 353.574 119.109 369.522 93.2549 385.002C60.6819 404.544 26.8589 424.518 -16.4531 431.476L-16.7651 429.559C26.1929 422.642 59.8239 402.632 92.2819 383.319C118.251 367.684 145.162 351.777 177.11 342.158C258.308 317.767 347.865 353.028 434.417 387.111C477.375 404.038 517.917 419.986 556.427 428.387C643.521 447.423 731.516 423.814 816.661 401.028C872.822 385.939 930.901 370.34 988.51 367.023C1024.17 364.95 1060.22 360.612 1095.09 356.429C1124.7 352.908 1155.28 349.236 1185.55 346.971C1268.43 340.716 1342.01 361.507 1419.89 383.518C1456.41 393.836 1494.1 404.508 1532.84 412.091C1589.24 423.112 1640.09 417.482 1693.95 411.581C1704.07 410.487 1714.53 409.315 1725.19 408.258C1770.54 403.763 1814.51 411.31 1857.05 418.617C1882.83 423.034 1909.46 427.607 1936.49 429.56V431.518C1909.38 429.56 1882.67 424.987 1856.89 420.534C1812.52 412.951 1770.62 405.758 1725.55 410.216C1715 411.268 1704.54 412.404 1694.3 413.534C1640.28 419.477 1589.27 425.065 1532.57 414.003C1493.86 406.425 1456.06 395.753 1419.3 385.394C1341.58 363.425 1268.23 342.706 1185.67 348.925C1155.44 351.191 1124.85 354.826 1095.29 358.383C1060.37 362.565 1024.32 366.904 988.588 368.977C931.213 372.3 873.213 387.857 817.166 402.904C753.74 419.865 688.75 437.339 623.604 437.339Z" fill="#0C60DD"/>
        <path d="M620.792 442.656C598.417 442.745 576.287 440.463 554.396 435.812C515.964 427.526 475.266 411.421 432.151 394.38C345.286 360.219 255.615 324.609 175.667 349.896C143.99 359.943 117.703 376.557 92.2818 392.662C60.2918 412.87 27.2088 433.818 -16.4522 441.209L-16.7642 439.292C26.5068 431.943 59.3968 411.151 91.2258 391.021C116.768 374.833 143.174 358.146 175.08 348.021C255.653 322.495 345.721 358.104 432.856 392.505C475.814 409.505 516.554 425.609 554.83 433.859C640.95 452.505 726.403 429.323 809.085 406.927C868.528 390.823 930.163 374.172 991.871 372.766C1025.54 371.985 1059.71 370.302 1092.75 368.62C1122.98 367.136 1154.27 365.531 1185.08 364.714C1265.03 362.521 1341.31 379.256 1415.2 395.396C1453.44 403.761 1492.96 412.401 1533.04 418.5C1583.81 426.318 1631.27 423.542 1681.65 420.688C1696.29 419.865 1711.45 419.047 1726.56 418.459C1768.35 416.933 1809.59 423.074 1849.51 429.011C1877.79 433.235 1907.04 437.61 1936.33 439.214V441.167C1906.93 439.568 1877.75 435.188 1849.32 430.969C1809.48 425.026 1768.23 418.849 1726.72 420.412C1711.6 421.001 1696.49 421.818 1681.84 422.641C1631.34 425.495 1583.66 428.151 1532.84 420.412C1492.69 414.318 1453.12 405.678 1414.85 397.313C1337.75 380.428 1264.91 364.516 1185.2 366.667C1154.42 367.49 1123.14 369.052 1092.91 370.573C1059.86 372.255 1025.69 373.938 991.984 374.719C930.354 376.089 868.994 392.74 809.672 408.802C747.88 425.531 684.729 442.656 620.792 442.656Z" fill="#0C60DD"/>
        <path d="M1936.22 451.099C1912.39 450.161 1888.1 449.339 1864.63 448.516C1766.98 445.157 1665.83 441.714 1567.8 428.698C1355.6 400.479 1178.52 379.099 994.953 381.167C931.177 381.87 868.489 398.797 807.833 415.177C725.307 437.453 639.89 460.479 552.599 441.87C514.365 433.703 473.589 417.558 430.391 400.516C343.532 366.157 253.74 330.667 174.495 356.74C142.818 367.136 116.922 384.297 91.8491 400.907C60.1721 421.782 27.5211 443.397 -16.6089 451.1L-16.9209 449.183C26.6261 441.558 59.0841 420.063 90.4851 399.266C115.636 382.615 141.646 365.375 173.558 354.86C253.464 328.594 343.647 364.245 430.824 398.683C473.782 415.725 514.6 431.829 552.678 439.959C639.621 458.485 724.527 435.501 807.017 413.298C867.746 396.881 930.59 379.918 994.486 379.215C1178.52 377.142 1355.53 398.527 1567.88 426.746C1665.52 439.762 1766.67 443.204 1864.36 446.564C1887.79 447.387 1912.16 448.205 1935.99 449.142L1936.22 451.099Z" fill="#0C60DD"/>
        <path d="M1936.22 461.182C1772.18 456.567 1606.03 439.994 1445.24 424.01C1298.54 409.39 1146.84 394.302 997.261 388.281C928.834 385.505 862.126 403.916 797.563 421.661C717.886 443.63 635.48 466.343 550.412 448.557C512.214 440.739 471.438 424.515 428.282 407.515C341.85 373.468 252.527 338.249 173.871 364.515C142.116 375.187 116.454 392.739 91.657 409.661C60.407 431.046 27.99 453.166 -16.416 460.984L-16.729 459.073C27.25 451.255 59.432 429.323 90.563 408.063C115.48 391.021 141.334 373.428 173.245 362.678C252.49 335.985 342.24 371.36 428.985 405.678C471.949 422.642 512.803 438.668 550.803 446.605C635.438 464.272 717.615 441.636 796.86 419.751C861.537 401.923 928.443 383.553 997.141 386.287C1146.81 392.308 1298.5 407.396 1445.24 422.016C1605.99 438.006 1772.26 454.578 1936.1 459.188L1936.22 461.182Z" fill="#0C60DD"/>
        <path d="M1936.22 471.344C1749.99 467.438 1560.3 448.36 1376.85 429.792C1252.92 417.245 1124.78 404.308 999.135 396.219C928.323 391.683 859.505 410.683 792.994 429.011C714.135 450.787 632.588 473.261 548.145 456.1C509.911 448.282 469.176 432.412 426.093 415.569C340.64 382.147 252.254 347.631 174.338 373.975C142.427 384.725 116.885 402.433 92.3168 419.553C61.0728 441.208 28.6928 463.646 -16.2602 471.344L-16.5732 469.427C27.9528 461.615 58.6928 440.505 91.2238 417.948C116.026 400.75 141.724 382.969 173.87 372.099C252.49 345.557 341.188 380.229 426.953 413.729C469.917 430.536 510.614 446.448 548.693 454.187C632.667 471.265 713.979 448.828 792.604 427.135C859.312 408.724 928.323 389.729 999.406 394.26C1125.09 402.354 1253.28 415.291 1377.2 427.838C1560.76 446.406 1750.27 465.598 1936.41 469.39L1936.22 471.344Z" fill="#0C60DD"/>
        <path d="M1936.22 481.703C1864.55 480.411 1792.06 473.338 1721.95 466.536C1658.37 460.359 1592.64 453.953 1527.53 451.838C1502.84 451.02 1477.46 450.395 1452.93 449.765C1363.49 447.541 1271.01 445.234 1182.31 434.369C1155.36 431.083 1128.26 425.885 1102.05 420.879C1068.42 413.811 1034.51 408.603 1000.31 405.244C927.776 399.385 857.281 418.692 789.125 437.374C710.703 458.874 629.62 481.114 545.646 464.739C507.255 457.192 466.636 441.557 423.672 424.984C339.896 392.661 253.229 359.239 175.979 384.958C143.833 395.63 118.172 413.297 93.375 430.338C61.813 452.072 29.203 474.552 -16.417 481.859L-16.73 479.906C28.458 472.672 59.431 451.333 92.28 428.739C117.197 411.578 143.051 393.869 175.353 383.083C253.462 357.166 340.249 390.703 424.374 423.151C467.338 439.682 507.759 455.318 546.035 462.823C629.54 479.203 710.389 457.037 788.577 435.464C856.926 416.74 927.582 397.349 1000.46 403.256C1034.72 406.621 1068.7 411.834 1102.4 418.891C1128.6 423.933 1155.67 429.131 1182.54 432.412C1271.12 443.24 1363.57 445.547 1453.01 447.777C1477.54 448.402 1502.89 449.027 1527.61 449.845C1592.76 451.96 1658.53 458.371 1722.15 464.543C1792.21 471.387 1864.67 478.423 1936.25 479.71L1936.22 481.703Z" fill="#0C60DD"/>
        <path d="M1936.22 492.219C1867.4 490.735 1798.11 483.813 1731.13 477.13C1663.33 470.37 1593.18 463.411 1523.39 462.041C1496.05 461.494 1467.54 461.296 1440.12 461.14C1354.74 460.635 1266.44 460.124 1182.35 448.593C1155.36 444.879 1128.29 439.057 1102.09 433.426C1068.97 426.317 1034.68 418.968 1000.31 415.837C926.838 409.191 855.052 428.269 785.495 446.717C707.11 467.592 625.948 489.207 542.485 473.571C504.287 466.342 464.37 451.446 422.074 435.696C340.288 405.206 255.694 373.701 179.22 398.014C146.803 408.332 120.637 425.571 95.0529 442.264C62.7139 463.49 29.2399 485.26 -16.4531 492.375L-16.7651 490.458C28.5369 483.578 60.3289 462.708 93.9949 440.619C119.542 423.89 145.943 406.536 178.636 396.14C255.73 371.63 340.641 403.255 422.777 433.859C464.959 449.494 504.793 464.463 542.834 471.656C625.87 487.291 706.876 465.833 784.985 445.036C854.584 426.552 926.568 407.437 1000.39 414.078C1034.87 417.208 1069.2 424.594 1102.4 431.75C1128.53 437.339 1155.59 443.161 1182.51 446.839C1266.47 458.37 1354.7 458.875 1440.04 459.386C1467.38 459.386 1495.82 459.735 1523.31 460.282C1593.18 461.652 1663.37 468.647 1731.21 475.412C1798.15 482.094 1867.4 488.974 1936.14 490.459L1936.22 492.219Z" fill="#0C60DD"/>
        <path d="M1936.22 502.849C1866.85 501.208 1796.98 494.682 1729.22 488.385C1659.58 481.859 1587.56 475.135 1516.01 473.729C1498.2 473.364 1480.31 473.062 1462.34 472.828C1371.38 471.463 1277.29 470.016 1187.35 458.797C1160.01 455.359 1132.67 450.432 1105.99 445.662C1070.84 439.37 1034.83 432.844 998.823 429.792C925.63 423.542 853.021 440.115 782.839 456.141C703.36 474.318 621.183 493.079 538.032 478.615C501.006 472.204 462.772 459.5 422.308 446.058C342.709 419.631 260.693 392.308 185.235 414.318C152.464 423.891 124.579 440.115 97.5891 455.787C63.6101 475.605 28.4221 496.047 -16.4529 502.693L-16.6089 500.933C27.9121 494.214 62.9481 473.85 96.6511 454.032C123.719 438.397 151.724 422.016 184.724 412.36C260.615 390.199 343.219 417.6 422.969 444.141C463.354 457.547 501.516 470.214 538.422 476.62C621.182 491.005 703.162 472.281 782.406 454.188C852.708 438.12 925.51 421.506 999.057 427.761C1035.1 430.85 1071.35 437.339 1106.38 443.631C1132.94 448.438 1160.4 453.365 1187.62 456.766C1277.45 467.985 1371.5 469.427 1462.42 470.797C1480.39 471.057 1498.28 471.359 1516.08 471.698C1587.71 473.104 1659.78 479.828 1729.45 486.354C1797.02 492.646 1866.85 499.177 1936.18 500.818L1936.22 502.849Z" fill="#0C60DD"/>
        <path d="M1936.22 513.641C1742.96 509.146 1546.4 491.672 1356.27 474.745C1238.43 464.271 1116.62 453.401 996.948 445.818C924.849 441.209 852.438 453.636 782.136 465.558C701.016 479.397 617.084 493.704 533.579 481.704C497.881 476.584 461.6 466.813 423.204 456.412C346.345 435.657 266.98 414.198 193.006 433.313C159.652 441.912 129.97 456.766 101.303 470.917C65.4071 488.855 28.1101 507.386 -16.6079 513.641L-16.9199 511.724C27.3661 505.51 64.5121 487.021 100.445 469.193C129.19 454.891 159.028 440.073 192.502 431.396C266.705 412.167 346.617 433.703 423.716 454.537C462.07 464.896 498.273 474.667 533.857 479.787C617.086 491.751 700.821 477.443 781.784 463.605C852.086 451.647 924.617 439.256 996.951 443.865C1116.58 451.448 1238.4 462.318 1356.27 472.792C1546.36 489.719 1742.93 507.188 1936.14 511.683L1936.22 513.641Z" fill="#0C60DD"/>
        <path d="M1936.22 524.583C1770.19 521.104 1601.85 506.994 1439.07 493.312C1293.42 481.114 1142.82 468.489 994.214 463.489C924.615 461.14 853.922 468.453 785.573 475.489C701.677 484.124 614.932 493.078 529.479 484.244C495.693 480.801 460.307 473.963 426.094 467.359C351.886 453.01 274.792 438.161 202.459 454.109C168.438 461.651 136.923 474.588 106.417 487.057C68.026 502.692 28.302 519.109 -16.453 524.541L-16.687 522.588C27.797 517.234 67.36 500.932 105.636 485.302C136.219 472.75 167.813 459.812 201.99 452.271C274.714 436.203 351.849 451.057 426.448 465.479C460.62 472.088 495.969 478.89 529.636 482.37C614.896 491.125 701.485 482.37 785.339 473.573C853.766 466.537 924.459 459.266 994.25 461.573C1142.86 466.578 1293.54 479.203 1439.22 491.396C1601.97 505.042 1770.27 519.151 1936.22 522.667V524.583Z" fill="#0C60DD"/>
        <path d="M1936.22 535.682C1795.81 533.224 1633.41 529.156 1483.16 511.37C1453.36 507.854 1423.99 503.281 1395.56 498.901C1334.51 489.484 1276.82 480.568 1214.18 480.568H1212.97C1177.82 480.568 1142.47 481.115 1108.06 481.625C1069.55 482.135 1029.68 482.719 990.543 482.641H987.142C928.559 482.641 868.684 484.75 810.882 486.787C717.148 490.068 620.366 493.469 525.34 488.037C494.876 486.318 463.241 482.876 432.621 479.553C359.506 471.735 283.892 463.412 212.496 476.308C177.62 482.641 144.266 493.51 112 504.062C71.1091 517.39 28.8491 531.187 -16.6509 535.682V533.729C28.6151 529.234 70.7601 515.474 111.531 502.187C143.875 491.63 177.307 480.723 212.302 474.395C284.005 461.416 359.74 469.666 433.01 477.598C463.588 480.921 495.187 484.358 525.609 486.082C620.52 491.514 717.338 488.113 811 484.827C868.802 482.796 928.557 480.686 987.297 480.686H995.542C1033.07 480.686 1071.12 480.139 1107.99 479.629C1142.36 479.124 1177.93 478.613 1212.89 478.577H1214.1C1276.9 478.577 1334.67 487.488 1395.75 496.947C1424.19 501.327 1453.56 505.858 1483.32 509.379C1633.61 527.16 1795.77 531.228 1936.38 533.692L1936.22 535.682Z" fill="#0C60DD"/>
        <path d="M1936.22 546.901C1906.89 546.51 1877.63 546.432 1846.39 546.318C1719.26 545.886 1587.83 545.417 1468.36 525.13C1442.43 520.713 1417.58 515.359 1393.76 510.161C1335.65 497.572 1280.81 485.692 1216.29 488.583C1181.49 490.145 1145.99 492.765 1111.97 495.265C1070.57 498.317 1027.76 501.484 985.542 502.812C887.469 505.901 787.683 502.458 691.172 499.177C635.714 497.26 578.339 495.266 522.021 494.604C499.13 494.328 475.5 493.666 452.656 493.036C376.531 490.89 297.797 488.697 223.12 499.213C187.771 504.77 152.813 512.187 118.25 521.458C74.9011 532.203 30.2551 543.422 -16.6089 546.901V544.948C29.8291 541.51 74.5891 530.328 117.901 519.542C152.531 510.276 187.552 502.849 222.963 497.261C297.796 486.745 376.609 488.933 452.848 491.084C475.655 491.709 499.286 492.376 522.134 492.646C578.493 493.354 635.868 495.307 691.368 497.224C787.837 500.505 887.587 503.943 985.576 500.854C1027.76 499.526 1070.57 496.359 1111.93 493.312C1146.14 490.812 1181.49 488.192 1216.33 486.63C1281.08 483.734 1336.07 495.656 1394.27 508.245C1418.17 513.443 1442.89 518.761 1468.83 523.177C1588.14 543.463 1719.49 543.932 1846.5 544.365C1877.75 544.365 1906.96 544.558 1936.33 544.948L1936.22 546.901Z" fill="#0C60DD"/>
    </g>
    <defs>
        <clipPath id="clip0_15_3668">
            <rect width="1954" height="585.641" fill="white" transform="translate(-17)"/>
        </clipPath>
    </defs>
</svg>
