<svg width="1920" height="380" viewBox="0 0 1920 380" fill="none" xmlns="http://www.w3.org/2000/svg">
    <g clip-path="url(#clip0_18_125370)">
        <path d="M-320.062 490.765C-277.173 443.594 -248.627 438.306 -201.397 429.549C-189.257 427.305 -175.549 424.746 -160.108 421.243C-87.6057 404.637 -73.6394 373.781 -45.8373 312.333L-45.3035 311.16C-35.4626 287.717 -26.9995 263.859 -19.9202 239.575C8.858 148.249 41.4017 44.7731 155.9 65.5396C236.919 80.2941 299.735 138.564 360.538 194.895C437.603 266.352 510.388 333.863 617.277 321.693C660.054 316.848 701.628 302.494 741.781 288.632C779.156 275.743 817.803 262.366 857.449 256.691C933.852 245.69 1010.98 264.12 1085.6 281.955C1174.75 303.251 1266.96 325.16 1356.33 295.727C1393.72 283.327 1432.51 261.196 1473.76 237.791C1565.14 185.69 1659.62 131.804 1750.55 178.447C1800.57 204.156 1838.35 241.133 1874.85 276.727C1927.49 328.384 1977.23 377.019 2060.33 394.283L2060.83 392.09C1978.5 374.985 1928.96 326.514 1876.56 275.205C1839.91 239.308 1802.03 202.022 1751.67 176.323C1659.57 129.049 1564.49 183.266 1472.5 235.699C1431.54 259.184 1392.83 281.129 1355.63 293.482C1266.98 322.893 1175.15 300.973 1086.34 279.671C1011.52 261.795 934.111 243.286 857.235 254.342C817.348 260.025 778.558 273.448 741.096 286.433C701.076 300.249 659.694 314.509 617.108 319.342C511.222 331.527 438.919 264.267 362.157 193.202C301.156 136.605 238.041 78.08 156.308 63.2178C39.8898 42.0219 6.9942 146.576 -22.0856 238.839C-29.1639 263.16 -37.6364 287.055 -47.5155 310.52L-48.0066 311.645C-76.3845 374.356 -89.3248 402.96 -160.651 419.263C-176.041 422.76 -189.743 425.323 -201.839 427.56C-249.593 436.379 -278.427 441.718 -321.862 489.531L-320.062 490.765Z"
              fill="#0C79DD"/>
        <path d="M-320.061 490.765C-282.62 450.912 -237.006 439.32 -192.898 428.174C-138.242 414.304 -86.6619 401.191 -55.6181 336.802C-43.9726 312.583 -34.6058 282.538 -24.9149 250.7C-3.25157 180.559 21.6506 101.083 78.2036 73.0735C105.348 59.6125 137.326 58.751 175.845 70.3847C246.916 91.8423 304.209 144.328 359.637 195.059C440.944 269.495 517.727 339.809 633.056 318.316C669.096 311.596 704.32 300.239 738.415 289.223C776.85 276.791 816.61 263.957 857.63 257.839C934.011 246.355 1010.9 264.922 1085.25 282.901C1168.92 303.123 1255.47 324.01 1339.94 300.951C1380.61 289.867 1424.15 265.367 1470.28 239.413C1561.73 187.93 1656.27 134.751 1744.02 175.766C1797.65 200.743 1837.44 239.476 1875.96 277.091C1926.13 325.982 1977.98 376.507 2060.05 394.381L2060.55 392.192C1979.25 374.513 1929.72 326.45 1877.67 275.525C1839.06 237.913 1798.98 199.012 1745.15 173.776C1656.24 132.129 1561.09 185.729 1469.08 237.495C1423.14 263.403 1379.69 287.804 1339.3 298.834C1255.44 321.702 1169.28 300.891 1085.94 280.748C1011.36 262.734 934.182 244.082 857.322 255.628C816.118 261.799 776.26 274.678 737.729 287.114C703.729 298.079 668.555 309.435 632.704 316.149C518.662 337.467 442.214 267.502 361.401 193.494C305.777 142.55 248.472 89.8829 176.685 68.2695C137.494 56.4326 104.797 57.1855 77.1865 71.1042C19.7405 99.5425 -5.28468 179.559 -26.9357 250.095C-36.8192 281.851 -46.1872 311.855 -57.6486 335.886C-88.2461 399.328 -139.306 412.289 -193.156 426.004C-237.639 437.297 -283.588 448.942 -321.489 489.299L-320.061 490.765Z"
              fill="#0C79DD"/>
        <path d="M-320.061 490.806C-282.454 451.793 -237.316 440.131 -193.687 428.865C-138.994 414.77 -87.325 401.435 -56.1014 336.545C-44.5441 312.558 -35.2253 282.597 -25.3745 251.202C-3.29594 180.74 21.7386 100.855 78.4967 73.3285C105.655 60.1321 137.498 59.63 175.887 71.7581C245.45 93.8419 302.473 145.315 357.591 195.122C431.545 261.882 501.777 325.335 598.698 322.314C610.208 321.946 621.619 320.699 632.919 318.586C668.837 311.208 704.091 301.667 738.678 289.97C777.123 277.85 816.893 265.329 857.815 259.124C933.772 247.873 1010.65 265.95 1085.08 283.573C1168.98 303.479 1255.76 324.047 1340.07 300.899C1380.32 289.874 1423.69 265.782 1469.54 240.279C1561.67 189.13 1657.08 136.189 1744.21 177.136C1797.45 202.124 1837.48 240.584 1876.12 277.8C1926.43 326.327 1978.4 376.494 2060 394.56L2060.61 392.41C1979.63 374.501 1930.21 326.789 1877.84 276.234C1839.19 238.93 1799.16 200.294 1745.39 175.144C1656.76 133.489 1560.93 186.891 1468.29 238.41C1422.53 263.817 1379.21 287.818 1339.39 298.788C1255.64 321.741 1169.2 301.246 1085.64 281.424C1011.06 263.717 933.984 245.469 857.413 256.959C816.299 263.123 776.436 275.693 737.848 287.865C703.371 299.534 668.229 309.054 632.427 316.423C518.607 337.337 441.117 267.488 359.209 193.515C303.902 143.588 246.677 91.8928 176.591 69.6952C137.618 57.3201 105.103 57.8432 77.34 71.3656C19.6891 99.3259 -5.52044 179.697 -27.731 250.61C-37.6257 282.007 -46.9473 311.88 -58.4647 335.734C-89.2368 399.672 -140.34 412.858 -194.467 426.848C-238.474 438.167 -283.988 449.933 -322.012 489.403L-320.061 490.806Z"
              fill="#0C79DD"/>
        <path d="M-320.06 490.853C-282.375 452.723 -237.668 441.074 -194.469 429.822C-139.687 415.547 -87.9721 402.074 -56.5737 336.696C-45.0611 312.888 -35.681 283.279 -25.8275 251.973C-3.50853 181.503 21.9524 101.652 78.5808 74.6135C105.796 61.6394 137.599 61.4507 175.864 74.0669C244.051 96.5058 300.805 146.924 355.648 195.625C439.041 269.683 517.77 339.624 632.691 318.857C668.681 311.607 704.052 302.272 738.8 290.856C777.298 278.995 817.127 266.784 857.952 260.495C933.909 249.243 1010.49 266.934 1084.76 284.071C1168.89 303.658 1255.89 323.552 1340.16 300.452C1380.02 289.528 1423.17 265.927 1468.89 240.923C1561.61 190.197 1657.46 137.686 1744.63 178.454C1797.87 203.443 1837.84 241.457 1876.52 278.316C1926.87 326.757 1978.83 376.48 2060.15 394.69L2060.75 392.54C1980.2 374.484 1930.65 327.176 1878.25 277.153C1839.51 240.165 1799.59 201.879 1745.82 176.86C1657.49 135.601 1561.02 188.35 1467.8 239.399C1422.21 264.315 1379.21 287.864 1339.63 298.732C1255.97 321.641 1169.3 301.643 1085.47 282.318C1010.96 265.095 933.9 247.335 857.701 258.725C816.686 264.844 776.764 277.104 738.169 289.098C703.516 300.485 668.244 309.802 632.349 317.043C518.518 337.603 440.321 268.042 357.421 194.37C302.382 145.498 245.432 94.904 176.764 72.308C137.872 59.4822 105.443 59.6955 77.6216 72.9535C19.9566 100.466 -5.53282 180.81 -28.0344 251.727C-37.9292 283.124 -47.3178 312.467 -58.7902 336.143C-89.7931 400.395 -140.981 413.762 -195.203 427.89C-238.728 439.241 -283.72 450.945 -322.06 489.58L-320.06 490.853Z"
              fill="#0C79DD"/>
        <path d="M-320.103 490.896C-282.248 453.741 -238.013 442.196 -195.244 430.999C-140.412 416.68 -88.6531 403.165 -56.9665 337.865C-45.4941 314.19 -36.0615 284.845 -26.1982 253.85C-3.58299 183.727 22.0352 104.27 78.6774 77.675C105.9 64.9248 137.667 65.0454 175.892 77.975C242.801 100.673 299.281 149.859 353.844 197.412C438.074 270.871 517.645 340.207 632.297 319.98C668.398 312.868 703.922 303.751 738.858 292.631C777.463 281.168 817.302 269.265 858.04 263.243C933.428 252.015 1010.18 269.205 1084.38 285.725C1168.77 304.548 1256 323.95 1340.22 300.982C1379.81 290.202 1422.78 267.097 1468.28 242.626C1561.59 192.507 1658.08 140.69 1744.95 181.108C1798.19 205.784 1838.04 243.493 1876.81 279.996C1927.28 327.588 1979.42 376.774 2060.16 395.002L2060.76 392.847C1980.65 374.782 1931.06 327.96 1878.54 278.609C1839.71 241.977 1799.62 204.146 1746.19 179.292C1658.15 138.333 1561.14 190.479 1467.27 240.88C1421.87 265.306 1378.99 288.314 1339.74 299.042C1256.12 321.856 1169.19 302.491 1085.09 283.748C1010.65 267.194 933.705 250.051 857.835 261.254C816.907 267.282 776.979 279.182 738.319 290.694C703.458 301.712 668.015 310.722 631.989 317.722C518.48 337.83 439.398 268.787 355.561 195.758C300.799 148.034 244.218 98.7207 176.784 75.8622C138.216 62.6721 105.539 62.627 77.7104 75.6621C20.1244 102.641 -5.66808 182.634 -28.3655 253.161C-38.3695 284.118 -47.8103 313.369 -59.1421 336.911C-90.5214 401.31 -141.617 414.716 -195.883 428.887C-238.98 440.136 -283.548 451.785 -321.821 489.355L-320.103 490.896Z"
              fill="#0C79DD"/>
        <path d="M-320.101 490.943C-282.169 454.806 -238.355 443.405 -196.01 432.403C-141.177 418.127 -89.373 404.651 -57.4489 339.256C-45.8806 315.624 -36.335 286.63 -26.2297 255.894C-3.40228 186.473 22.4758 107.81 78.8531 81.7135C106.124 69.0919 137.943 69.4349 176.133 82.6787C241.948 105.453 298.097 153.315 352.39 199.636C429.22 265.15 502.22 327.364 599.761 324.324C610.606 323.97 621.366 322.865 632.042 321.01C668.283 314.076 703.983 305.236 739.148 294.489C777.77 283.379 817.718 271.922 858.358 265.991C933.376 255.081 1009.96 271.391 1084.1 287.203C1168.75 305.216 1256.32 323.893 1340.47 301.151C1379.77 290.511 1422.66 267.945 1468.04 244.103C1561.89 194.677 1658.93 143.592 1745.55 183.663C1798.45 208.22 1838.44 245.482 1877.15 281.628C1927.69 328.685 1979.91 377.291 2060.18 395.445L2060.77 393.248C1981.14 375.298 1931.48 329.056 1878.87 280.062C1840.01 243.922 1799.88 206.534 1746.65 182.034C1658.92 141.461 1561.26 192.83 1466.89 242.492C1421.61 266.336 1378.86 288.809 1339.89 299.351C1256.26 321.94 1169.07 303.34 1084.71 285.361C1010.38 269.559 933.514 253.164 858.068 264.176C817.232 270.112 777.19 281.579 738.472 292.686C703.419 303.434 667.83 312.271 631.701 319.202C518.596 338.625 438.682 270.498 354.067 198.338C299.578 151.893 243.279 103.858 177.033 80.9158C138.172 67.4738 105.728 67.1983 77.8436 80.0571C20.5771 106.536 -5.4742 185.74 -28.483 255.61C-38.546 286.257 -48.0425 315.201 -59.5209 338.653C-90.9005 403.053 -142.284 416.384 -196.595 430.51C-239.178 441.608 -283.363 453.115 -321.763 489.661L-320.101 490.943Z"
              fill="#0C79DD"/>
        <path d="M-320.099 491.031C-282.134 455.962 -238.744 444.793 -196.776 433.891C-141.887 419.789 -90.08 406.403 -57.8623 341.264C-45.5408 314.336 -35.0324 286.812 -26.3337 258.695C-3.28746 190.199 22.9117 112.501 78.873 87.0424C106.199 74.5962 138.024 75.1161 176.267 88.4473C241.076 111.211 296.945 157.66 351.001 202.607C428.668 267.386 502.459 328.914 600.14 325.87C610.712 325.541 621.206 324.499 631.622 322.753C667.982 316.06 703.854 307.538 739.234 297.196C777.964 286.526 817.971 275.508 858.525 269.716C933.121 259.086 1009.63 274.512 1083.59 289.35C1168.55 306.509 1256.38 324.245 1340.63 301.814C1379.7 291.403 1422.47 269.416 1467.67 246.157C1562.08 197.646 1659.72 147.476 1746.04 187.114C1798.69 211.235 1838.56 248.011 1877.54 283.569C1928.07 329.961 1980.41 378.078 2060.14 395.889L2060.74 393.739C1981.59 375.91 1931.84 330.292 1879.21 281.965C1840.32 246.31 1800.11 209.414 1747.13 185.126C1659.65 144.992 1557.07 197.713 1466.52 244.192C1421.4 267.406 1378.73 289.345 1339.9 299.658C1256.31 321.94 1168.76 304.283 1084.1 287.203C1009.89 272.237 933.194 256.728 858.175 267.596C817.382 273.308 777.328 284.415 738.547 295.086C703.252 305.44 667.457 313.955 631.17 320.636C518.526 339.425 437.886 272.388 352.541 201.408C298.335 156.33 242.321 109.708 177.267 86.9535C138.398 73.2826 105.904 72.8305 78.0173 85.6014C21.07 111.539 -5.21073 189.682 -28.4331 258.626C-37.1358 286.645 -47.6182 314.079 -59.8753 340.932C-91.6472 405.119 -142.939 418.358 -197.254 432.354C-239.508 443.218 -283.181 454.485 -321.614 489.97L-320.099 491.031Z"
              fill="#0C79DD"/>
        <path d="M-320.146 491.169C-282.096 457.201 -239.127 446.316 -197.578 435.782C-142.684 421.857 -90.8182 408.735 -58.2612 343.898C-45.881 317.233 -35.2362 289.987 -26.3201 262.16C-1.85841 191.531 23.3839 118.485 78.8864 93.5722C106.263 81.3024 138.142 81.9077 176.486 95.4599C240.338 118.076 295.967 163.063 349.742 206.56C428.033 270.027 502.793 330.322 600.568 327.274C610.826 326.939 621.02 325.955 631.143 324.326C667.661 317.82 703.732 309.593 739.358 299.636C778.107 289.544 818.221 278.966 858.731 273.306C932.86 262.956 1009.2 277.501 1083.03 291.364C1168.34 307.537 1256.53 324.246 1340.92 302.159C1379.82 292.067 1422.5 270.612 1467.73 248.021C1562.65 200.646 1660.79 151.399 1746.86 190.466C1799.31 214.282 1839.35 250.473 1878.17 285.505C1928.82 331.229 1981.24 378.494 2060.39 396.194L2060.99 394.044C1982.36 376.463 1932.55 331.42 1879.84 283.899C1840.92 248.782 1800.69 212.46 1748.09 188.472C1661 148.906 1557.68 200.534 1466.77 246.097C1421.68 268.642 1379.09 289.953 1340.43 300.042C1256.79 321.97 1168.89 305.388 1083.88 289.252C1009.84 275.26 933.268 260.769 858.709 271.127C818.062 276.839 778.135 287.364 739.054 297.555C703.511 307.495 667.516 315.693 631.077 322.15C518.934 340.168 437.664 274.479 351.649 204.943C297.818 161.275 241.946 116.202 177.658 93.4234C138.693 79.6725 106.194 79.0855 78.2054 91.6354C21.7594 116.979 -3.65892 190.478 -28.2479 261.508C-37.1372 289.262 -47.751 316.434 -60.1001 343.024C-92.1618 406.871 -143.556 419.884 -197.833 433.66C-239.708 444.292 -283.012 455.235 -321.436 489.563L-320.146 491.169Z"
              fill="#0C79DD"/>
        <path d="M-320.142 491.299C-281.907 458.618 -254.591 452.129 -220.223 443.772C-207.486 440.754 -193.097 437.283 -176.798 432.247C-106.98 410.442 -85.5163 401.379 -54.9421 338.599C-44.4074 316.953 -35.1217 292.058 -25.3537 265.725C1.63159 193.51 29.5815 118.51 88.0423 96.6154C119.158 84.9845 155.697 89.5776 199.619 110.902C247.214 133.758 293.241 170.389 337.792 205.774C424.699 274.84 514.594 346.299 625.272 327.217C659.808 321.253 694.456 312.711 727.965 304.471C770.567 293.998 814.537 283.123 858.767 277.525C934.772 267.782 1011.46 279.915 1085.86 291.677C1175.44 305.851 1268 320.465 1359.05 296.086C1395.8 286.061 1435.75 267.048 1478.03 246.413C1567.31 203.168 1659.49 158.499 1740.8 191.628C1795.96 214.072 1838.48 251.656 1879.64 287.991C1930.69 333.079 1983.42 379.673 2060.22 396.955L2060.82 394.8C1984.64 377.634 1932.07 331.259 1881.3 286.386C1840.01 249.921 1797.29 212.213 1741.73 189.557C1659.6 156.01 1566.66 200.969 1476.92 244.447C1434.63 264.864 1394.93 284.177 1358.37 293.976C1267.97 318.2 1175.61 303.58 1086.36 289.483C1011.97 277.721 935.09 265.553 858.554 275.312C814.191 281.135 770.07 291.836 727.423 302.316C694.008 310.549 659.406 319.089 624.962 325.003C515.28 343.881 425.929 272.849 339.456 204.077C294.807 168.607 248.638 131.892 200.844 108.911C156.201 87.4729 118.952 82.8599 87.2659 94.6867C27.7209 116.969 -0.311023 192.373 -27.4642 265.301C-37.2831 291.589 -46.5206 316.441 -57.0131 337.997C-87.1316 399.96 -108.415 408.887 -177.419 430.578C-193.625 435.524 -208.013 439.036 -220.706 442.052C-255.501 450.333 -282.961 456.874 -321.66 489.923L-320.142 491.299Z"
              fill="#0C79DD"/>
        <path d="M-320.181 491.435C-282.007 460.043 -254.821 453.865 -220.394 445.774C-207.567 442.799 -193.029 439.413 -176.68 434.422C-107.468 413.256 -86.1374 404.415 -55.2981 342.43C-44.572 320.819 -35.1769 296.37 -25.2076 270.431C1.97381 199.853 30.0827 126.89 87.8401 105.413C119.006 93.7855 155.683 98.3273 199.877 119.201C247.172 141.577 293.012 176.88 337.385 211.03C424.47 278.09 514.482 347.366 624.71 329.142C659.167 323.628 693.774 315.442 727.254 307.693C770.157 297.743 814.525 287.429 858.95 281.958C934.544 272.677 1011.06 283.659 1085.03 294.234C1175.1 307.148 1268.24 320.545 1359.22 296.835C1395.98 287.254 1435.89 268.511 1478.2 248.715C1567.8 206.658 1660.44 163.09 1741.5 195.784C1796.42 217.834 1838.73 254.935 1880.14 290.418C1931.17 334.751 1983.73 380.459 2060.24 397.396L2060.83 395.246C1985.14 378.507 1932.6 332.929 1881.76 288.855C1840.44 253.016 1797.74 215.968 1742.49 193.799C1660.38 160.824 1567.25 204.496 1477.04 246.796C1434.73 266.592 1395.01 285.281 1358.49 294.903C1268.03 318.466 1175.13 305.062 1085.3 292.27C1011.19 281.652 934.533 270.628 858.605 279.972C813.992 285.489 769.573 295.8 726.575 305.758C693.145 313.506 658.577 321.514 624.221 327.202C515.083 345.214 425.462 276.279 338.818 209.561C294.4 175.412 248.415 139.937 200.877 117.48C156.047 96.272 118.748 91.7026 86.8786 103.576C28.0819 125.439 -0.201786 198.897 -27.5617 269.878C-37.4845 295.725 -46.8862 320.134 -57.5658 341.613C-87.9999 402.784 -109.043 411.526 -177.507 432.445C-193.758 437.392 -207.629 440.621 -221.033 443.749C-255.79 451.805 -283.255 458.169 -321.85 489.928L-320.181 491.435Z"
              fill="#0C79DD"/>
        <path d="M-320.224 491.655C-282.1 461.51 -254.911 455.421 -220.531 447.69C-206.984 444.646 -193.009 441.501 -176.61 436.639C-109.412 416.557 -86.9061 407.196 -55.6971 346.485C-44.7771 325 -35.1759 301.074 -25.0426 275.71C2.34979 207.214 30.7123 136.286 87.6737 115.282C118.931 103.688 155.698 108.098 200.175 128.695C247.262 150.499 292.914 184.432 337.106 217.254C416.74 276.375 498.908 337.371 595.969 334.346C605.402 334.047 614.771 333.166 624.076 331.693C658.437 326.182 693.025 318.794 726.47 311.536C770.298 301.307 814.562 293.189 859.261 287.19C934.195 278.278 1010.39 288.03 1084.04 297.464C1174.68 309.026 1268.35 321.032 1359.49 298.025C1396.22 288.757 1436.2 270.675 1478.48 251.504C1568.25 210.777 1661.42 168.432 1742.31 200.553C1796.88 222.13 1839.5 258.33 1880.66 293.331C1931.76 336.776 1984.58 381.679 2060.4 398.148L2060.91 395.954C1985.85 379.638 1933.23 334.954 1882.38 291.684C1841.03 256.549 1798.3 220.221 1743.34 198.302C1661.25 165.995 1567.94 208.209 1477.5 249.269C1435.17 268.352 1395.43 286.426 1358.94 295.645C1268.27 318.549 1174.8 306.58 1084.44 295.05C1010.6 285.585 934.264 275.838 859.038 284.754C814.261 290.786 769.92 298.917 726.013 309.154C692.614 316.412 658.078 323.881 623.759 329.307C515.263 346.409 425.473 279.746 338.805 215.289C294.522 182.381 248.721 148.37 201.386 126.302C156.333 105.503 118.896 100.984 86.975 112.813C29.0263 134.253 0.486287 205.583 -27.2271 274.531C-37.3563 299.854 -46.9139 323.736 -57.8355 345.17C-88.4913 405.331 -109.401 413.846 -177.259 434.126C-193.561 439.074 -207.539 442.089 -221.036 445.125C-255.756 452.918 -283.179 459.058 -321.722 489.569L-320.224 491.655Z"
              fill="#0C79DD"/>
        <path d="M-320.218 491.879C-282.2 462.978 -255.055 457.114 -220.659 449.69C-207.012 446.779 -192.941 443.719 -176.537 438.987C-109.893 419.636 -87.3233 410.668 -56.0868 350.848C-44.9222 329.49 -34.7187 304.968 -24.8676 281.3C2.73173 214.97 31.3099 146.308 87.4231 125.727C118.739 114.225 155.689 118.399 200.389 138.594C247.362 159.823 292.684 192.302 336.876 223.702C416.878 280.811 499.361 339.666 596.331 336.644C605.384 336.352 614.391 335.539 623.343 334.202C657.622 329.096 692.128 322.158 725.546 315.432C769.246 306.649 814.414 297.561 859.426 292.469C933.666 284.075 1009.38 292.506 1082.66 300.661C1173.93 310.828 1268.27 321.524 1359.62 299.09C1396.35 290.129 1436.31 272.714 1478.66 254.251C1568.96 214.883 1662.17 174.183 1743.09 205.46C1797.35 226.467 1839.95 261.96 1881.18 296.249C1932.3 338.802 1985.13 382.813 2060.28 398.725L2060.78 396.578C1986.32 380.958 1933.73 337.158 1882.8 294.776C1841.48 260.53 1798.73 224.736 1744.08 203.563C1662.39 171.957 1568.47 212.856 1477.7 252.415C1435.34 270.837 1395.58 288.198 1359.09 297.106C1268.2 319.259 1174.06 308.781 1082.97 298.65C1009.6 290.499 933.697 282.026 859.218 290.481C814.116 295.57 769.038 304.662 725.097 313.446C691.919 320.124 657.223 327.067 623.045 332.17C515.135 348.325 425.326 284.149 338.209 222.15C294.299 190.653 248.454 158.103 201.333 136.789C155.955 116.308 118.381 112.059 86.4582 123.845C29.4014 144.856 0.651334 213.927 -27.1746 280.706C-37.026 304.331 -47.2332 328.765 -58.4007 350.03C-89.3327 409.048 -110.105 417.334 -177.416 436.841C-193.768 441.791 -207.797 444.625 -221.392 447.539C-256.07 455.061 -283.456 460.932 -321.894 490.155L-320.218 491.879Z"
              fill="#0C79DD"/>
        <path d="M-320.257 492.235C-282.297 464.404 -255.133 459.117 -220.78 451.919C-207.036 449.088 -192.914 446.163 -176.454 441.653C-110.26 423.113 -87.9217 414.465 -56.4494 356.102C-45.0392 334.914 -34.6266 311.005 -24.6098 287.999C3.28962 223.75 32.1336 157.518 87.4097 137.541C118.771 126.08 155.907 130.076 200.88 149.772C247.687 170.298 293.108 201.305 336.965 231.292C424.289 290.752 514.596 352.651 622.777 337.467C656.869 332.673 691.303 326.447 724.639 320.165C768.789 311.994 814.459 303.599 859.808 298.72C933.157 290.797 1008.35 297.864 1081.11 304.705C1173.1 313.386 1268.29 322.321 1359.96 300.809C1396.66 292.162 1436.72 275.281 1479.09 257.567C1569.77 219.656 1663.57 180.492 1744.12 211.023C1798.08 231.55 1840.71 266.15 1881.91 299.732C1933.05 341.358 1985.95 384.387 2060.45 399.787L2060.96 397.593C1987.03 382.358 1934.42 339.361 1883.48 298.042C1842.13 264.376 1799.36 229.604 1745.06 209.087C1663.49 178.186 1569.23 217.584 1478.13 255.69C1435.75 273.358 1395.97 290.006 1359.46 298.563C1268.12 319.971 1173.22 311.074 1081.37 302.431C1008.52 295.598 933.085 288.486 859.59 296.419C814.147 301.301 768.433 309.739 724.231 317.87C691.036 324.011 656.512 330.37 622.464 335.163C515.285 350.233 425.468 288.808 338.43 229.381C294.566 199.348 248.907 168.26 201.91 147.698C156.307 127.708 118.548 123.648 86.5298 135.39C30.4153 155.929 1.34609 222.654 -26.7362 287.133C-36.753 310.138 -47.1244 333.958 -58.4859 355.056C-89.5078 412.602 -111.66 421.115 -177.05 439.451C-193.407 444.046 -207.534 446.972 -221.18 449.706C-255.876 456.873 -283.263 462.526 -321.602 490.458L-320.257 492.235Z"
              fill="#0C79DD"/>
        <path d="M-320.251 492.459C-282.247 466.002 -241.603 457.138 -202.376 448.547C-145.525 436.202 -92.2332 424.547 -56.9114 361.176C-45.2588 340.251 -34.6767 317.092 -24.4495 294.742C3.72402 233.016 32.8339 169.219 87.0654 149.452C118.479 138.036 155.796 141.761 201.083 160.911C247.771 180.686 293.239 210.138 337.056 238.662C424.437 295.498 514.793 354.285 622.098 340.238C655.967 335.806 690.276 330.073 723.439 324.512C768.135 316.991 814.352 309.287 860.139 304.619C932.549 297.251 1006.99 302.929 1078.99 308.413C1171.93 315.464 1268.02 322.772 1360.19 302.046C1396.9 293.842 1436.9 277.848 1479.3 260.894C1570.3 224.526 1664.48 186.902 1745.01 216.679C1798.67 236.548 1841.27 270.441 1882.49 303.225C1933.65 343.87 1986.52 385.925 2060.43 400.719L2060.94 398.525C1987.56 383.893 1934.83 342.009 1883.97 301.533C1842.64 268.622 1799.85 234.605 1745.85 214.611C1664.45 184.502 1569.86 222.316 1478.32 258.883C1435.92 275.748 1396.17 291.687 1359.65 299.932C1267.72 320.561 1171.86 313.246 1079.11 306.19C1006.96 300.706 932.428 295.035 859.588 302.411C813.707 307.088 767.446 314.834 722.749 322.313C689.533 327.789 655.328 333.607 621.458 338.038C515.102 352.009 425.139 293.481 338.14 236.85C294.327 208.279 248.856 178.744 202.167 158.923C156.25 139.479 118.357 135.73 86.3351 147.384C31.1575 167.493 1.82122 231.746 -26.5749 293.873C-36.7461 316.399 -47.2916 339.291 -58.9466 360.174C-93.7266 422.595 -146.743 433.971 -202.825 446.379C-242.386 455.027 -283.363 463.944 -321.688 490.677L-320.251 492.459Z"
              fill="#0C79DD"/>
        <path d="M-320.284 492.814C-282.528 467.741 -242.252 459.294 -203.288 451.415C-146.416 439.737 -92.9572 428.744 -57.158 366.917C-45.2608 346.291 -34.6537 323.935 -24.1626 302.331C21.5224 207.19 64.703 117.464 201.555 172.978C248.173 191.957 293.351 219.818 337.069 246.792C424.6 300.691 514.81 356.418 621.252 343.555C654.796 339.487 688.835 334.388 721.782 329.448C767.121 322.621 813.975 315.605 860.344 311.185C931.68 304.522 1005.02 308.63 1076.07 312.721C1170.1 318.143 1267.2 323.731 1360.44 303.859C1397.21 295.964 1437.23 280.726 1479.6 264.618C1571 229.832 1665.51 193.844 1745.96 222.826C1799.03 242.094 1841.89 275.135 1883.09 307.07C1934.27 346.781 1987.15 387.768 2060.42 401.92L2060.93 399.773C1988.23 385.739 1935.54 344.876 1884.61 305.381C1843.27 273.314 1800.49 240.136 1746.81 220.846C1665.48 191.537 1570.55 227.673 1478.73 262.644C1436.3 278.754 1396.47 293.945 1359.95 301.879C1267.18 321.736 1170.09 316.144 1076.19 310.722C1005.1 306.633 931.517 302.397 860.085 309.198C813.675 313.62 766.772 320.678 721.388 327.465C688.537 332.397 654.493 337.502 620.947 341.565C515.366 354.407 425.401 298.802 338.398 245.152C294.634 218.137 249.358 190.191 202.549 171.171C63.563 114.655 19.9416 205.47 -26.2824 301.643C-36.6291 323.195 -47.3329 345.513 -59.2369 366.092C-94.49 427.152 -147.616 438.047 -203.725 449.612C-242.923 457.67 -283.437 466.041 -321.666 491.348L-320.284 492.814Z"
              fill="#0C79DD"/>
        <path d="M-320.321 493.216C-280.18 468.069 -240.257 460.472 -201.757 453.145C-145.423 442.505 -92.1808 432.273 -53.5355 365.381C-43.1688 347.513 -34.328 328.229 -24.8948 307.862C-7.0349 268.751 11.7349 228.328 41.374 198.401C83.5029 155.87 123.683 165.857 179.111 179.674L182.955 180.623C246.119 196.418 302.465 229.216 357.162 261.042C435.184 306.67 515.926 353.809 615.074 347.43C660.674 344.499 706.781 337.913 751.418 331.546C787.223 326.433 824.259 321.147 860.689 317.791C929.601 311.423 1001.63 314.598 1071.26 317.623C1173.23 322.09 1278.73 326.66 1377.45 301.776C1410.8 292.518 1443.57 281.702 1475.74 269.313C1562.66 237.69 1661.13 201.798 1740.07 226.387C1796.37 243.908 1841.26 277.864 1884.69 310.709C1935.87 349.263 1988.77 389.187 2060.45 402.81L2060.96 400.616C1989.75 387.113 1937.2 347.398 1886.39 308.967C1842.82 275.99 1797.74 241.956 1741 224.267C1661.24 199.437 1562.35 235.478 1475.25 267.238C1443.14 279.598 1410.43 290.388 1377.14 299.611C1278.8 324.436 1173.54 319.854 1071.71 315.388C1001.98 312.365 929.909 309.193 860.763 315.568C824.238 318.926 787.151 324.214 751.491 329.322C706.95 335.687 660.843 342.272 615.338 345.201C516.852 351.512 440.143 306.692 358.869 259.169C304.212 227.252 247.713 194.189 184.171 178.447L180.327 177.504C123.941 163.494 83.1821 153.393 40.0372 196.888C10.1648 227.089 -8.55413 267.686 -26.6945 306.937C-36.0265 327.306 -44.9193 346.545 -55.1933 364.322C-93.3416 430.313 -143.46 439.868 -201.827 450.968C-240.565 458.35 -280.677 465.952 -321.238 491.332L-320.321 493.216Z"
              fill="#0C79DD"/>
        <path d="M-320.352 493.66C-280.588 470.212 -241.132 463.079 -202.946 456.292C-146.401 446.312 -93.0398 436.875 -53.8656 371.696C-44.1601 355.584 -35.4326 337.147 -26.2164 317.538C-7.55993 277.963 11.764 237.035 41.7553 210.65C87.2005 170.637 124.971 179.584 182.148 192.95L183.585 193.301C246.392 208.222 302.771 239.064 357.314 268.947C439.077 313.651 516.183 355.979 614.217 350.433C661.016 347.776 708.482 341.898 754.375 336.164C789.343 331.827 825.643 327.325 861.038 324.31C927.969 318.628 997.944 320.355 1065.63 322.019C1169.68 324.597 1277.32 327.234 1377.88 303.403C1408.23 296.199 1441.59 284.721 1477.08 272.553C1563.91 242.62 1662.39 208.729 1741.36 232.562C1797.26 249.428 1842.16 282.41 1885.56 314.323C1936.67 351.901 1989.53 390.716 2060.62 403.602L2061.12 401.455C1990.56 388.642 1937.94 349.996 1887.08 312.588C1843.49 280.546 1798.38 247.439 1742.1 230.449C1662.32 206.288 1563.46 240.462 1476.25 270.448C1443.83 282.401 1410.84 292.798 1377.3 301.649C1277.07 325.465 1169.62 322.822 1065.71 320.239C997.981 318.577 927.911 316.853 860.69 322.544C825.066 325.566 788.861 330.066 753.894 334.444C708.051 340.313 660.623 346.011 613.919 348.665L606.247 348.904C512.662 351.821 437.647 310.767 358.357 267.357C303.674 237.442 247.096 206.512 184.007 191.511L182.565 191.16C124.616 177.416 86.4612 168.351 40.0398 209.191C9.6799 235.942 -9.73932 277.051 -28.4832 316.852C-37.7035 336.331 -46.3807 354.767 -56.0397 370.742C-94.6816 434.882 -147.521 444.216 -203.491 454.13C-241.867 460.923 -281.567 467.934 -321.559 491.784L-320.352 493.66Z"
              fill="#0C79DD"/>
        <path d="M-320.387 494.152C-281.056 472.051 -241.957 465.679 -204.134 459.436C-147.186 450.199 -93.8957 441.524 -54.036 378.414C-44.2175 362.871 -35.3748 345.097 -26.0393 326.282C-7.10085 288.21 12.5186 248.867 42.3012 223.51C87.3687 185.196 124.787 193.624 181.371 206.43L184.159 207.057C246.597 221.098 302.969 249.898 357.586 277.689C439.545 319.548 516.939 358.843 613.426 354.101C661.999 351.79 711.298 346.611 758.977 341.483C792.544 337.952 827.291 334.248 861.407 331.627C925.453 326.702 992.426 327.059 1057.21 327.39C1164.26 328.009 1274.98 328.603 1378.29 305.66C1408.98 298.841 1442.55 287.935 1478.11 276.39C1564.94 248.233 1663.3 216.342 1742.33 239.418C1797.82 255.457 1842.76 287.631 1886.17 318.611C1937.29 355.083 1990.12 392.83 2060.57 405.027L2060.98 402.836C1991.11 390.715 1938.48 353.357 1887.6 316.877C1843.99 285.773 1798.91 253.599 1743.03 237.311C1663.23 214.035 1564.45 246.071 1477.09 274.332C1441.58 285.834 1408.05 296.691 1377.5 303.505C1274.43 326.394 1163.9 325.799 1057 325.176C992.169 324.841 925.145 324.491 861.01 329.418C826.843 332.035 792.091 335.74 758.487 339.319C710.944 344.355 661.552 349.584 613.068 351.891C517.155 356.569 440.289 317.303 358.529 275.705C303.763 247.829 247.061 218.993 184.62 204.864L181.832 204.236C124.529 191.281 86.6292 182.691 40.5843 221.968C10.381 247.645 -9.32157 287.21 -28.3542 325.467C-37.6872 344.189 -46.5312 361.921 -56.257 377.414C-95.4338 439.617 -148.442 448.241 -204.577 457.542C-242.536 463.696 -281.925 470.124 -321.634 492.278L-320.387 494.152Z"
              fill="#0C79DD"/>
        <path d="M-320.37 494.724C-281.569 474.11 -242.825 468.369 -205.366 462.809C-148.392 454.415 -94.7434 446.48 -54.4831 385.441C-42.7335 367.624 -32.4923 350.38 -22.7094 333.686C25.1378 252.829 59.7553 194.363 184.497 220.943C246.435 234.161 303.024 260.776 357.725 286.61C438.995 324.847 515.814 360.962 609.588 358.039L612.443 357.95C663.848 355.905 716.17 351.341 766.729 346.879C797.839 344.18 829.996 341.359 861.596 339.17C921.13 335.054 983.352 334.224 1043.52 333.501C1155.22 331.974 1270.69 330.418 1378.51 308.184C1409.55 301.756 1443.38 291.462 1479.19 280.576C1565.89 254.243 1664.17 224.355 1743.32 246.629C1798.46 261.872 1843.4 292.94 1886.55 322.997C1937.68 358.4 1990.57 394.948 2060.37 406.409L2060.78 404.218C1991.56 393.051 1938.91 356.408 1888.02 321.174C1844.39 291.003 1799.35 259.849 1743.87 244.257C1663.99 221.786 1565.34 251.775 1478.31 278.202C1442.54 289.092 1408.81 299.335 1377.86 305.719C1270.28 327.946 1154.91 329.498 1043.35 331.021C983.133 331.835 920.867 332.66 861.279 336.695C829.628 338.88 797.477 341.706 766.367 344.405C715.803 348.867 663.577 353.429 612.177 355.474L609.366 355.561C516.166 358.466 439.636 322.478 358.655 284.362C303.81 258.579 247.321 231.914 184.902 218.712C58.3816 191.566 23.4516 250.792 -24.9375 332.558C-34.8163 349.207 -45.0124 366.45 -56.7153 384.182C-96.3871 444.353 -149.607 452.229 -205.912 460.56C-243.609 466.175 -282.591 471.834 -321.764 492.684L-320.37 494.724Z"
              fill="#0C79DD"/>
        <path d="M-320.397 495.304C-282.115 476.347 -243.741 471.107 -206.838 466.184C-149.839 458.587 -95.8297 451.443 -54.9769 392.564C-43.3407 375.766 -33.1096 359.638 -23.1038 344.001C25.8973 266.437 61.3503 210.347 185.126 235.051C246.609 247.302 303.314 271.741 358.188 295.387C440.372 330.849 518.11 364.309 611.646 361.441L612.126 361.426C669.307 359.644 727.127 355.622 783.238 351.653C809.035 349.87 835.589 348.021 861.961 346.402C913.422 343.287 966.746 341.578 1018.73 339.958C1138.81 336.216 1262.93 332.348 1379 310.122C1410.39 304.126 1444.47 294.492 1480.5 284.266C1567.06 259.714 1665.21 231.914 1744.53 253.339C1799.18 268.113 1844.09 298.202 1887.49 327.318C1938.64 361.569 1991.54 397.006 2060.65 407.775L2061.06 405.542C1992.48 394.933 1939.82 359.619 1888.92 325.677C1845.32 296.479 1800.26 266.259 1745.23 251.409C1665.2 229.783 1566.71 257.681 1479.82 282.333C1443.84 292.333 1409.8 302.278 1378.51 308.136C1262.67 330.224 1138.6 334.138 1018.66 337.916C966.871 339.53 913.312 341.199 861.852 344.361C835.62 345.976 808.876 347.831 783.029 349.616C726.966 353.536 668.812 357.615 612.063 359.384L611.582 359.399C518.573 362.298 441.173 328.911 359.177 293.583C304.212 269.888 247.404 245.365 185.591 233.081C60.0863 208.035 24.4133 264.752 -25.1854 343.091C-35.0028 358.675 -45.1834 374.802 -56.8224 391.511C-97.0801 449.569 -150.472 456.611 -207.187 464.152C-244.518 469.135 -283.181 474.248 -321.739 493.527L-320.397 495.304Z"
              fill="#0C79DD"/>
        <path d="M-320.426 495.971C-282.82 478.322 -244.802 473.849 -207.925 469.548C-150.899 462.841 -96.5336 456.53 -55.0861 399.852C-43.5996 384.169 -33.5267 369.244 -23.7703 354.772C28.2934 277.643 62.8581 226.646 185.667 249.379C246.693 260.801 303.616 282.924 358.611 304.482C437.362 335.294 518.82 367.178 610.758 365.11C686.398 363.42 763.445 359.283 837.913 355.322L862.293 354.031C894.39 352.316 927.443 350.802 959.446 349.314C1099.28 342.866 1243.82 336.012 1379.36 312.466C1411.19 307.029 1445.68 297.92 1481.82 288.352C1568.2 265.629 1666.32 239.878 1745.66 260.542C1799.9 274.578 1844.78 303.689 1888.2 331.83C1939.36 364.924 1992.23 399.205 2060.7 409.15L2061.1 406.964C1993.16 396.998 1940.49 362.888 1889.57 329.874C1845.77 301.663 1800.93 272.456 1746.31 258.302C1666.15 237.482 1567.89 263.331 1481.18 286.11C1444.89 295.677 1410.64 304.649 1378.91 310.213C1243.56 333.884 1099.06 340.565 959.373 347.007C927.32 348.491 894.222 350.012 862.175 351.719L837.795 353.015C763.321 356.978 686.325 361.113 610.684 362.803C519.273 364.937 441.728 334.578 359.635 302.27C304.496 280.717 247.521 258.376 186.215 247.093C61.4891 224.066 26.8945 275.554 -25.7204 353.497C-35.4292 367.879 -45.5078 382.804 -56.9448 398.444C-97.7961 454.301 -151.401 460.589 -208.096 467.196C-245.066 471.547 -283.273 476.026 -321.4 493.868L-320.426 495.971Z"
              fill="#0C79DD"/>
        <path d="M-320.448 496.686C-281.905 479.982 -244.26 475.923 -207.847 471.989C-149.806 465.735 -94.9461 459.852 -51.0828 401.192C-41.928 388.958 -33.4288 376.838 -25.2081 365.118C22.1853 297.333 59.6252 243.802 162.757 259.551C230.524 269.919 293.528 291.321 354.411 311.987C444.125 342.457 528.82 371.218 628.026 368.126L630.791 368.04C661.57 367.081 692.743 366.463 723.061 365.832C768.868 364.888 816.195 363.904 862.821 361.783C1050.48 353.403 1213.49 339.042 1361.17 317.916C1398.25 312.586 1436.7 303.53 1477.41 293.955C1574.9 270.886 1676.42 246.978 1765.82 275.327C1812.98 290.293 1852.52 314.688 1890.74 338.056C1940.82 368.964 1992.86 400.921 2060.88 410.525L2061.29 408.334C1993.51 398.811 1944.24 368.414 1892.11 336.236C1853.74 312.561 1814.06 288.082 1766.66 273.035C1676.72 244.484 1575.06 268.439 1476.72 291.623C1436.1 301.195 1397.7 310.249 1360.71 315.534C1213.13 336.657 1050.17 351.016 862.607 359.394C816.076 361.511 768.694 362.321 722.891 363.436C692.668 364.07 661.399 364.691 630.621 365.65L627.856 365.736C529.32 368.807 444.82 340.347 355.342 309.74C294.316 288.99 231.212 267.591 163.21 257.189C58.6873 241.171 20.88 295.287 -27.0171 363.76C-35.2378 375.475 -43.6799 387.598 -52.8428 399.785C-96.1108 457.63 -150.401 463.496 -208.058 469.69C-244.66 473.629 -282.5 477.695 -321.419 494.54L-320.448 496.686Z"
              fill="#0C79DD"/>
        <path d="M-320.472 497.525C-281.331 481.741 -244.139 478.185 -208.188 474.709C-151.508 469.253 -97.9622 464.12 -51.362 409.104C-39.3519 394.963 -28.7646 381.132 -18.4971 367.795C29.1236 305.687 63.5444 260.822 163.279 274.681C230.34 283.962 293.847 303.034 355.086 321.469C445.03 348.509 529.959 374.069 627.199 372.101C660.183 371.432 693.949 371.401 726.187 371.371C770.976 371.309 817.332 371.287 862.875 369.596C1023.38 363.62 1187.94 342.411 1347.08 321.908L1361.33 320.088C1398.53 315.286 1437.23 306.972 1477.84 298.156C1576.09 276.929 1677.67 255.019 1766.9 282.311C1813.66 296.622 1853.12 320.087 1891.31 342.746C1941.46 372.585 1993.36 403.39 2060.99 412.298L2061.3 410.063C1994.25 401.272 1944.83 371.943 1892.59 340.883C1854.29 318.138 1814.83 294.45 1767.69 280.197C1677.78 252.709 1575.88 274.717 1477.24 296.003C1436.49 304.776 1398.02 313.082 1360.92 317.881L1346.67 319.701C1187.62 340.201 1023.12 361.409 862.71 367.382C817.311 369.063 770.906 369.092 726.167 369.153C693.688 369.185 660.113 369.21 627.127 369.884C530.269 371.84 445.53 346.321 355.785 319.359C294.445 300.885 231.038 281.809 163.538 272.454C62.3229 258.465 25.7478 306.148 -20.5404 366.531C-30.763 379.861 -41.347 393.827 -53.3138 407.744C-99.315 462.031 -152.337 467.107 -208.689 472.506C-244.779 475.981 -282.159 479.59 -321.634 495.478L-320.472 497.525Z"
              fill="#0C79DD"/>
        <path d="M-320.49 498.37C-281.975 483.845 -245.147 481.057 -209.509 478.257C-152.415 473.727 -98.7964 469.476 -51.5912 417.016C-39.7896 403.902 -29.31 391.274 -19.3874 379.063C29.3846 320.161 64.6885 277.619 163.847 289.854C230.875 298.067 294.451 314.829 356.196 331.028C442.178 353.575 531.051 376.922 626.266 375.909C660.025 375.654 694.386 376.271 727.601 376.883C771.986 377.719 817.892 378.509 863.064 377.101L865.729 377.018C978.615 373.5 1093.69 357.653 1205.05 342.327C1256.39 335.261 1309.53 327.92 1361.43 321.998C1398.7 317.727 1437.38 310.122 1478.19 302.102C1576.65 282.822 1678.48 262.818 1767.77 289.08C1814.08 302.691 1853.46 325.226 1891.58 347.044C1941.8 375.727 1993.57 405.468 2060.59 413.597L2060.91 411.41C1994.41 403.31 1944.97 375.05 1892.67 345.144C1854.41 323.289 1814.97 300.668 1768.28 286.844C1678.41 260.417 1576.25 280.438 1477.5 299.814C1436.68 307.835 1398.1 315.389 1360.93 319.658C1309.04 325.715 1255.89 332.926 1204.5 339.989C1093.23 355.316 978.204 371.157 865.464 374.67L862.799 374.753C817.722 376.158 771.811 375.234 727.43 374.532C694.024 373.926 659.853 373.308 626.045 373.559C531.209 374.384 446.426 352.108 356.645 328.658C294.855 312.466 230.945 295.714 164.003 287.405C63.4577 274.995 27.9273 317.986 -21.3433 377.571C-31.4557 389.788 -41.9353 402.418 -53.5483 415.484C-100.155 467.211 -153.445 471.446 -209.825 475.912C-245.651 478.763 -282.665 481.694 -321.517 496.182L-320.49 498.37Z"
              fill="#0C79DD"/>
        <path d="M-320.512 499.303C-282.762 486.272 -246.108 483.973 -210.789 481.762C-153.664 478.205 -99.6837 474.793 -51.8684 425.024C-40.3668 413.071 -30.1288 401.647 -20.2699 390.638C31.7259 332.698 66.0672 294.412 164.645 304.93C231.267 312.135 295.772 326.601 358.165 340.602C443.852 359.786 532.513 379.586 625.536 380.016C659.831 380.104 694.641 381.459 728.351 382.721C772.618 384.405 818.415 386.172 863.504 385.168C965.172 383.021 1068.03 366.846 1167.32 351.318C1231.06 341.338 1296.99 330.977 1362.03 324.464C1399.41 320.678 1438.02 313.878 1479.01 306.651C1577.71 289.183 1679.74 271.167 1769.15 296.41C1814.87 309.461 1854.23 331.199 1892.22 351.957C1942.54 379.564 1994.56 408.146 2061.14 415.622L2061.08 413.581C1995.16 406.173 1945.53 379.029 1893.31 350.235C1855.12 329.216 1815.67 307.57 1769.47 294.575C1679.54 269.176 1577.18 287.243 1478.23 304.72C1437.29 311.947 1398.68 318.788 1361.41 322.529C1296.5 328.991 1230.53 339.399 1166.69 349.383C1067.35 364.959 964.682 381.04 863.205 383.223C818.165 384.225 772.56 382.452 728.197 380.771C694.486 379.508 659.626 378.156 625.281 378.069C532.55 377.718 444.03 357.913 358.442 338.685C295.999 324.685 231.4 310.223 164.638 303.017C64.7586 292.227 28.2081 332.984 -22.3528 389.414C-32.217 400.425 -42.4513 411.801 -53.9093 423.706C-101.073 472.834 -154.58 476.19 -211.23 479.733C-246.695 481.947 -283.391 484.29 -321.614 497.43L-320.512 499.303Z"
              fill="#0C79DD"/>
        <path d="M-320.524 500.325C-281.841 488.109 -245.702 486.18 -210.802 484.337C-155.186 481.364 -102.664 478.528 -52.1434 433.026C-36.7842 419.223 -23.9292 406.343 -11.4882 393.83C37.9538 344.23 70.5995 311.327 165.318 320.188C232.279 326.272 297.767 338.535 361.234 350.412C446.248 366.281 534.188 382.686 624.611 384.042C659.257 384.609 694.467 386.617 728.535 388.578C772.784 391.107 818.558 393.767 863.707 393.245C960.109 391.887 1056.49 374.804 1149.84 358.216C1219.14 345.926 1290.86 333.165 1362.07 326.996C1399.5 323.739 1438.09 317.65 1479.24 311.219C1578.1 295.658 1680.34 279.543 1769.95 303.759C1815.45 316.061 1854.73 336.644 1892.7 356.784C1943.17 383.146 1995.26 410.615 2061.2 417.398L2061.51 415.168C1996.19 408.319 1946.63 382.324 1894.16 354.695C1856.05 334.607 1816.58 313.852 1770.93 301.503C1680.79 277.132 1578.32 293.249 1479.17 308.866C1438.2 315.296 1399.53 321.384 1362.19 324.637C1290.84 330.858 1219.11 343.577 1149.72 355.906C1056.51 372.447 959.986 389.535 864.02 390.884C818.964 391.533 773.336 388.869 728.988 386.208C694.919 384.247 659.709 382.239 624.969 381.675C534.635 380.316 446.796 363.914 361.879 348.083C298.412 336.205 232.734 323.948 165.721 317.819C69.8193 309.036 36.8885 342.13 -13.2048 392.195C-25.6474 404.661 -38.5076 417.542 -53.7673 431.3C-103.691 476.247 -155.782 478.892 -210.918 481.986C-246.014 483.835 -282.344 485.77 -321.264 498.087L-320.524 500.325Z"
              fill="#0C79DD"/>
        <path d="M-320.539 501.441C-282.44 490.437 -246.566 489.141 -211.884 487.836C-156.145 485.745 -103.501 483.791 -52.3693 441.026C-37.4012 428.481 -24.5024 416.84 -12.3598 405.539C38.6529 358.953 72.0806 328.157 165.976 335.221C233.958 340.299 301.426 350.41 366.686 360.059C450.164 372.559 536.512 385.5 623.969 387.839C658.911 388.793 694.429 391.505 728.76 394.167C773.081 397.58 818.881 401.082 864.183 400.827C957.695 400.221 1050.41 381.699 1140.1 363.938C1212.48 349.51 1287.37 334.607 1362.51 329.066C1400.06 326.343 1438.58 320.969 1479.79 315.286C1578.86 301.585 1681.25 287.378 1771.12 310.648C1816.17 322.302 1855.38 342.09 1893.32 361.246C1943.76 386.682 1995.95 412.991 2061.1 419.13L2061.32 416.903C1996.66 411.144 1947.03 386.042 1894.45 359.344C1856.41 340.192 1816.92 320.323 1771.77 308.631C1681.42 285.241 1578.75 299.457 1479.5 313.295C1438.51 319.017 1399.81 324.35 1362.36 327.075C1287.03 332.617 1212.08 347.526 1139.61 361.953C1050.02 379.799 957.442 398.234 864.12 398.828C818.963 399.084 773.398 395.574 728.936 392.16C694.561 389.501 659.038 386.788 623.81 385.843C536.499 383.5 450.247 370.601 366.872 358.317C301.557 348.54 234.037 338.388 165.776 333.496C70.7375 326.375 36.8387 357.456 -14.4458 404.488C-26.737 415.71 -39.4364 427.476 -54.4085 439.891C-104.842 482.103 -157.106 484.044 -212.414 486.122C-247.242 487.426 -283.255 488.772 -321.689 499.787L-320.539 501.441Z"
              fill="#0C79DD"/>
        <path d="M-320.504 502.591C-282.987 492.809 -247.382 492.054 -212.966 491.335C-157.055 490.124 -104.296 489.011 -52.6467 448.988C-38.2562 437.836 -25.8869 427.498 -13.9432 417.533C40.5394 372.09 73.407 344.683 166.63 350.084C265.303 355.888 365.179 366.766 461.762 377.347C593.229 391.815 729.202 406.764 864.481 408.723C957.481 410.046 1048.61 389.661 1136.8 369.769C1210.07 353.276 1285.9 336.254 1362.83 331.637C1400.44 329.396 1439.17 324.812 1480.18 319.804C1579.39 307.832 1681.99 295.751 1772.21 317.899C1816.86 328.899 1855.99 347.799 1893.85 366.076C1944.41 390.57 1996.61 415.593 2061.31 421.127L2061.53 418.9C1997.44 413.435 1947.76 389.445 1895.13 364.036C1857.11 345.721 1817.65 326.79 1772.95 315.698C1682.25 293.345 1579.47 305.652 1480.01 317.59C1439.05 322.467 1400.37 327.132 1362.86 329.37C1285.69 334.042 1209.76 351.107 1136.35 367.517C1048.34 387.273 957.265 407.745 864.694 406.409C729.511 404.446 593.589 389.496 462.167 375.073C365.537 364.448 265.658 353.481 166.938 347.761C72.7122 342.308 37.6587 371.554 -15.3847 415.624C-27.335 425.59 -39.6552 435.88 -53.9968 446.988C-105.228 486.556 -157.374 487.65 -212.855 488.848C-247.41 489.565 -283.205 490.326 -321.012 500.165L-320.504 502.591Z"
              fill="#0C79DD"/>
        <path d="M-320.511 503.837C-283.485 495.175 -248.147 494.964 -213.956 494.785C-157.922 494.461 -105.041 494.189 -52.9738 456.856C-40.2925 447.581 -29.1473 439.417 -18.3302 431.347C38.8551 388.441 73.3405 362.536 167.225 364.717C331.224 368.49 452.814 381.178 570.385 393.418C667.188 403.501 758.633 413.042 864.718 416.402C957.288 419.332 1047.12 396.945 1133.96 375.276C1207.94 356.848 1284.47 337.763 1363.1 334.024C1400.72 332.232 1439.23 328.322 1480.26 324.156C1579.68 314.038 1682.42 303.552 1773.13 324.888C1817.39 335.274 1856.49 353.378 1894.28 370.719C1944.9 394.06 1997.21 418.192 2061.13 423.261L2061.35 421.034C1997.86 416.171 1948.07 393.206 1895.37 368.913C1857.43 351.441 1818.23 333.388 1773.74 322.914C1682.45 301.507 1579.61 311.997 1480.06 322.118C1439.16 326.279 1400.51 330.194 1362.98 331.984C1284.12 335.728 1207.49 354.818 1133.38 373.338C1046.67 394.914 957.034 417.295 864.793 414.354C758.802 410.993 667.409 401.496 570.656 391.406C453.039 379.126 331.399 366.441 167.305 362.671C72.5149 360.476 37.7935 386.56 -19.8614 429.799C-30.623 437.862 -41.7613 446.244 -54.4059 455.258C-105.721 492.124 -158.183 492.425 -214.021 492.743C-248.358 492.927 -283.885 493.143 -321.194 501.857L-320.511 503.837Z"
              fill="#0C79DD"/>
        <path d="M-320.52 505.166C-283.981 497.545 -248.822 497.913 -214.85 498.236C-158.789 498.75 -105.788 499.278 -53.1117 464.635C-41.7546 457.174 -31.5733 450.238 -21.6691 443.536C40.3542 401.365 74.5439 378.133 167.962 379.041C419.824 381.499 534.569 394.931 635.812 406.788C707.235 415.135 768.846 422.366 865.284 423.977C955.956 425.591 1042.62 402.551 1126.59 380.3C1202.75 360.163 1281.51 339.319 1363.69 336.403C1401.29 335.231 1439.86 331.856 1480.54 328.322C1580.15 319.934 1683.14 311.257 1774.45 331.684C1818.3 341.511 1857.32 358.641 1895.04 375.23C1945.58 397.728 1998.01 420.79 2061.43 425.118L2061.65 422.891C1998.75 418.588 1948.84 396.647 1896.04 373.422C1858.17 356.838 1819.05 339.58 1774.96 329.714C1683.32 309.21 1580.09 318.024 1480.28 326.287C1439.56 329.688 1401.08 332.93 1363.59 334.364C1281.21 337.286 1202.16 358.185 1126 378.364C1042.22 400.521 955.7 423.425 865.37 422.02C769.216 420.576 707.702 413.208 636.279 404.867C534.985 393.011 420.144 379.535 167.997 377.086C73.7234 376.204 39.393 399.572 -23.0538 441.98C-32.9577 448.682 -43.1392 455.617 -54.4963 463.078C-106.515 497.298 -159.141 496.807 -214.815 496.281C-248.928 495.922 -284.187 495.598 -321.053 503.276L-320.52 505.166Z"
              fill="#0C79DD"/>
        <path d="M-165.755 501.901C-127.635 500.713 -90.5733 494.628 -53.3985 472.283C-43.0542 466.098 -33.6473 460.297 -24.5212 454.682C40.4819 414.595 76.2335 392.518 168.587 393.011C301.109 393.769 456.355 395.195 620.954 402.946C660.004 405.57 698.755 410.286 737.203 417.087C779.045 423.688 822.326 430.51 865.477 431.567C955.884 433.809 1041.5 409.293 1124.23 385.615C1199.86 364.03 1277.67 341.752 1359.97 339.187L1363.87 339.066C1401.24 338.167 1439.51 335.64 1480.01 332.914C1579.97 326.245 1683.25 319.337 1775.25 338.903C1818.46 348.123 1857.7 364.446 1895.39 380.237C1946.23 401.393 1998.66 423.385 2061.5 427.206L2061.43 424.983C1999.31 421.192 1949.15 400.28 1896.28 378.079C1858.44 362.245 1819.39 345.875 1775.74 336.579C1683.42 316.981 1579.8 323.895 1479.85 330.564C1439.39 333.29 1401.21 335.813 1363.8 336.713C1279.82 338.663 1200.36 361.394 1123.54 383.376C1040.95 407.002 955.571 431.423 865.547 429.252C822.591 428.194 779.45 421.368 737.608 414.766C699.065 407.959 660.219 403.249 621.074 400.629C456.425 392.884 301.229 391.458 168.613 390.702C75.5872 390.183 39.5572 412.493 -25.8664 452.728C-34.9434 458.337 -44.3493 464.138 -54.6487 470.322C-107.225 501.897 -159.875 500.65 -215.58 499.323C-249.466 498.513 -284.552 497.652 -320.973 504.342L-320.52 506.501C-284.387 499.867 -249.448 500.732 -215.746 501.547C-198.757 502.038 -182.145 502.412 -165.755 501.901Z"
              fill="#0C79DD"/>
        <path d="M-159.093 505.867C-123.55 504.759 -88.7219 498.969 -53.6414 479.752L-31.4641 467.555C38.1604 428.967 76.3708 407.703 169.202 406.629C210.917 406.126 253.617 404.89 294.93 403.69C401.956 400.621 512.659 397.436 620.206 406.429C656.448 409.432 692.988 415.667 728.28 421.716C773.108 429.203 819.386 437.266 865.794 438.748C956.22 441.615 1040.78 415.531 1122.56 390.507C1199.47 366.881 1278.89 342.421 1364.28 341.402C1401.47 340.958 1439.28 339.065 1479.33 337.019C1579.67 331.98 1683.43 326.792 1776.3 345.528C1819.5 354.222 1858.14 369.625 1895.96 384.747C1946.72 405.06 1999.46 426.027 2061.57 429.376L2061.5 427.158C1999.77 423.839 1949.69 403.994 1896.71 382.727C1858.94 367.694 1819.91 352.121 1776.62 343.345C1683.41 324.572 1579.5 329.764 1479.02 334.851C1438.97 336.854 1401.21 338.787 1364.07 339.236C1278.25 340.31 1198.79 364.772 1121.73 388.449C1040.15 413.555 955.818 439.454 865.672 436.402C819.505 434.954 773.282 427.02 728.544 419.399C693.157 413.352 656.618 407.117 620.228 404.077C512.535 395.084 401.787 398.27 294.667 401.342C253.356 402.63 210.71 403.959 168.983 404.28C75.7717 405.366 37.089 426.738 -32.8648 465.514L-55.0422 477.705C-108.034 506.761 -160.705 504.76 -216.43 502.636C-250.14 501.378 -284.999 500.062 -321.257 505.903L-320.86 508.063C-285.068 502.508 -250.308 503.691 -216.697 504.817C-196.824 505.709 -177.729 506.448 -159.093 505.867Z"
              fill="#0C79DD"/>
        <path d="M-152.866 509.894C-144.288 509.835 -135.741 509.313 -127.226 508.314C-118.71 507.319 -110.282 505.858 -101.953 503.93C-93.6167 502.009 -85.4304 499.633 -77.3912 496.808C-69.3517 493.983 -61.5226 490.728 -53.8965 487.045L-41.3988 480.835C33.7417 443.361 75.5937 422.646 168.609 419.748L173.705 419.589C218.737 418.185 264.766 415.375 309.283 412.701C411.299 406.459 516.84 400.058 619.543 409.738C655.991 413.043 692.651 420.117 728.108 426.787C773.013 435.293 819.268 444.065 866.112 445.894C956.843 449.418 1040.36 421.985 1121.29 395.437C1198.33 370.159 1278.04 344.05 1364.5 343.887C1401.22 343.806 1438.44 342.558 1477.84 341.2C1578.75 337.743 1683.14 334.176 1777.13 352.168C1819.84 360.342 1858.69 375.118 1896.29 389.36C1947.26 408.687 1999.92 428.812 2061.64 431.595L2061.57 429.377C2000.38 426.489 1947.86 406.585 1897.08 387.292C1859.44 373.01 1820.44 358.233 1777.5 350.025C1683.26 331.952 1578.78 335.52 1477.62 338.98C1438.27 340.207 1401.1 341.589 1364.43 341.664C1277.49 341.846 1197.65 368.006 1120.41 393.332C1039.72 419.827 956.252 447.299 866.139 443.673C819.674 441.833 773.329 433.241 728.466 424.645C692.963 417.935 656.262 410.991 619.715 407.555C516.816 397.839 411.179 404.242 309.018 410.49C264.507 413.163 218.568 415.971 173.541 417.374L168.445 417.533C74.8605 420.449 33.0617 441.251 -42.6044 478.918L-55.0957 485.128C-108.598 511.619 -161.196 508.954 -216.942 506.117C-250.382 504.403 -285.21 502.648 -320.922 507.534L-320.853 509.752C-285.329 504.914 -250.743 506.634 -217.303 508.349C-195.232 509.438 -173.972 510.552 -152.866 509.894Z"
              fill="#0C79DD"/>
        <path d="M-146.917 513.924C-130.881 513.736 -115.04 511.972 -99.3942 508.634C-83.7474 505.291 -68.651 500.453 -54.0995 494.112C28.5026 457.162 74.0347 436.822 170.383 432.309C218.722 430.047 268.136 425.489 315.932 421.066C415.422 411.838 518.293 402.327 618.927 412.91C655.618 417.42 691.953 423.693 727.927 431.722C772.956 441.022 819.517 450.586 866.422 452.767C957.175 456.999 1040.18 428.166 1120.34 400.217C1197.39 373.429 1277.04 345.721 1364.81 346.362C1400.79 346.664 1437.11 345.975 1475.53 345.267C1577.35 343.334 1682.6 341.346 1778.01 358.669C1820.36 366.229 1859.19 380.344 1896.72 393.92C1947.81 412.313 2000.58 431.365 2061.62 433.909L2061.55 431.686C2000.89 429.136 1948.26 410.168 1897.42 391.857C1859.79 378.282 1820.87 364.218 1778.27 356.483C1682.63 339.121 1577.23 341.118 1475.27 343.056C1436.9 343.761 1400.63 344.45 1364.7 344.146C1276.44 343.52 1196.56 371.282 1119.32 398.16C1039.4 426.012 956.727 454.747 866.352 450.461C819.636 448.274 773.172 438.707 728.237 429.404C692.183 421.372 655.773 415.103 619.002 410.6C518.177 399.975 415.161 409.491 315.531 418.724C267.969 423.139 218.365 427.708 170.071 429.963C73.2456 434.45 27.7602 454.877 -55.3611 492.02C-109.267 516.128 -161.884 512.839 -217.556 509.331C-251.009 507.221 -285.463 505.053 -320.966 509.094L-320.897 511.312C-285.634 507.28 -251.224 509.448 -217.917 511.568C-193.544 513.158 -170.123 514.647 -146.917 513.924Z"
              fill="#0C79DD"/>
        <path d="M-142.428 517.25C-126.438 517.006 -110.623 515.31 -94.9773 512.154C-79.3366 508.998 -64.17 504.446 -49.483 498.496C34.762 463.673 91.0649 450.59 191.592 442.528C233.415 439.181 276.169 433.811 317.505 428.656C414.333 416.535 514.48 403.998 612.427 415.604C650.057 420.069 687.698 428.088 724.145 435.837C770.478 445.674 818.345 455.907 866.664 458.888C956.407 464.439 1036.78 433.957 1114.56 404.484C1187.1 376.95 1262.14 348.494 1345.57 348.428C1370.37 348.457 1395.12 348.217 1421.34 348.02C1539.36 347.098 1661.38 346.094 1772.34 363.729C1816.25 370.756 1856.89 384.549 1896.13 397.937C1947.72 415.515 2001.13 433.658 2061.68 436.038L2061.61 433.816C2001.4 431.476 1948.22 413.369 1896.78 395.874C1857.4 382.444 1816.71 368.61 1772.56 361.55C1661.4 343.738 1539.24 344.748 1421.18 345.853C1394.95 346.045 1370.15 346.287 1345.35 346.262C1261.36 346.3 1186.23 374.801 1113.39 402.343C1035.85 431.72 955.715 462.111 866.592 456.583C818.421 453.644 770.79 443.446 724.405 433.563C687.92 425.82 650.179 417.799 612.459 413.337C514.175 401.7 413.881 414.242 317.149 426.36C275.814 431.556 233.103 436.884 191.375 440.227C90.5139 448.347 34.0209 461.431 -50.4918 496.622C-106.999 520.013 -160.768 516.358 -217.503 512.488C-250.674 510.234 -284.993 507.927 -320.76 511.261L-320.691 513.479C-285.163 510.24 -250.939 512.55 -217.865 514.719C-192.775 516.813 -167.63 517.655 -142.428 517.25Z"
              fill="#0C79DD"/>
        <path d="M-136.581 521.288C-121.717 521.018 -106.992 519.538 -92.3987 516.848C-77.8003 514.152 -63.5689 510.291 -49.7028 505.257C37.0125 473.239 97.3188 463.011 191.928 453.315C234.053 449.068 277.059 442.397 318.692 436.04C414.712 421.14 513.964 405.702 611.701 418.331C649.464 423.824 686.815 431.117 723.755 440.2C770.158 450.838 818.201 461.863 866.81 465.235C956.956 471.31 1036.91 439.679 1114.17 408.894C1186.53 379.991 1261.44 350.294 1345.68 350.779C1362.57 350.92 1379.7 350.965 1396.96 351C1523.14 351.513 1653.59 351.886 1773.02 370.061C1816.58 376.697 1857.09 389.65 1896.32 402.507C1948.02 419.238 2001.5 436.533 2061.62 438.616L2061.55 436.398C2001.77 434.353 1948.48 417.093 1896.92 400.399C1857.61 387.722 1816.99 374.554 1773.24 367.877C1653.43 349.673 1523.06 349.25 1396.8 348.787C1379.53 348.747 1362.41 348.707 1345.52 348.566C1260.75 348.055 1185.65 377.977 1113.01 406.889C1036.03 437.536 956.412 469.24 866.742 463.019C818.322 459.641 770.428 448.7 724.07 438.06C687.066 428.963 649.649 421.646 611.829 416.108C513.749 403.49 414.261 418.893 318.048 433.836C276.518 440.283 233.512 446.954 191.43 451.106C96.3371 460.734 35.9912 470.962 -50.9618 503.078C-107.967 524.129 -161.616 519.851 -218.366 515.532C-251.356 512.965 -285.301 510.292 -320.997 512.827L-320.928 515.045C-285.618 512.522 -251.572 515.191 -218.677 517.762C-191.394 520.437 -164.029 521.612 -136.581 521.288Z"
              fill="#0C79DD"/>
        <path d="M-130.873 525.331C-103.143 524.747 -76.1577 520.207 -49.9271 511.704C33.9175 484.13 97.6018 475.126 192.492 463.686C234.829 458.547 277.936 450.633 319.667 442.933C415.041 425.438 513.582 407.314 611.306 420.921C649.23 426.889 686.692 434.721 723.697 444.422C770.218 455.806 818.329 467.589 867.192 471.35C958.029 478.29 1037.32 445.22 1114.16 413.29C1186.39 383.234 1261.16 352.165 1346 353.164L1354.35 353.258C1487.94 354.827 1639.81 356.623 1773.82 376.031C1816.95 382.326 1857.55 394.786 1896.69 406.844C1948.52 422.992 2002.06 439.311 2061.74 441.141L2061.67 438.923C2002.33 437.083 1948.92 420.671 1897.3 404.735C1858.05 392.633 1817.45 380.179 1773.99 373.847C1639.84 354.401 1488.07 352.602 1354.18 351.042L1345.83 350.948C1260.33 349.929 1185.37 381.086 1112.91 411.238C1036.35 443.117 957.201 476.094 867.123 469.13C818.451 465.405 770.437 453.665 724.011 442.278C687.028 432.55 649.583 424.718 611.671 418.776C513.564 405.085 414.778 423.265 319.221 440.813C277.583 448.463 234.471 456.378 192.184 461.515C97.149 473.006 33.3293 481.968 -50.7066 509.682C-108.071 528.525 -161.732 523.887 -218.544 518.95C-252.427 515.238 -286.431 513.902 -320.551 514.938L-320.482 517.156C-286.474 516.117 -252.582 517.442 -218.813 521.137C-189.603 524.263 -160.289 525.659 -130.873 525.331Z"
              fill="#0C79DD"/>
        <path d="M-125.453 529.289C-99.8044 528.687 -74.7098 524.852 -50.1677 517.797C23.2793 496.317 86.6883 487.68 160.158 477.664L192.882 473.137C235.39 467.368 278.504 458.072 320.248 449.315C415.017 429.306 512.908 408.622 610.855 423.245C648.927 429.656 686.483 438.016 723.535 448.336C770.13 460.473 818.309 473.011 867.519 477.115C958.709 484.757 1037.73 450.534 1114.2 417.464C1186.2 386.263 1260.6 354.008 1346.41 355.461C1487.33 357.822 1636.71 362.624 1774.62 381.734C1817.74 387.675 1858.08 399.565 1897.21 411.049C1949.05 426.265 2002.68 442.05 2062.02 443.708L2061.95 441.49C2002.99 439.821 1949.51 424.119 1897.81 408.941C1858.58 397.417 1818.01 385.535 1774.84 379.554C1636.79 360.402 1487.3 355.603 1346.29 353.244C1260.01 351.806 1185.09 384.161 1113.04 415.457C1036.89 448.428 958.162 482.465 867.592 474.939C818.674 470.819 770.585 458.327 724.086 446.234C687.032 435.862 649.458 427.466 611.364 421.051C512.935 406.355 414.808 427.176 319.845 447.102C278.198 455.909 235.078 465.022 192.669 470.919C181.509 472.512 170.632 473.961 159.95 475.45C86.4261 485.47 22.8833 494.156 -50.7073 515.678C-108.469 532.537 -162.136 527.503 -218.97 522.125C-252.668 518.225 -286.508 516.544 -320.482 517.071L-320.413 519.289L-318.793 519.238C-285.537 518.848 -252.416 520.536 -219.428 524.313C-188.234 527.963 -156.91 529.623 -125.453 529.289Z"
              fill="#0C79DD"/>
        <path d="M-120.282 533.171C-96.5681 532.574 -73.2663 529.346 -50.3717 523.489C9.66782 507.934 65.3734 500.117 124.304 491.84C146.574 488.744 169.658 485.497 193.246 481.786C235.96 475.078 278.906 464.902 320.615 455.03C414.744 432.775 512.087 409.758 610.398 425.348C648.634 432.176 686.302 441.053 723.406 451.982C770.068 464.831 818.321 478.116 867.731 482.574C959.377 490.864 1038.07 455.588 1114.18 421.592C1186.01 389.375 1260 356.112 1346.62 357.898C1509.75 361.297 1653.96 371.149 1775.22 387.27C1817.94 392.952 1858.41 404.307 1897.53 415.26C1949.49 429.804 2003.38 444.826 2062 446.418L2061.93 444.247C2003.41 442.647 1949.86 427.662 1898.03 413.155C1858.82 402.163 1818.26 390.811 1775.4 385.086C1653.98 368.975 1509.68 359.08 1346.51 355.682C1259.55 353.952 1185.04 387.362 1112.97 419.586C1037.15 453.574 958.785 488.751 867.762 480.53C818.593 476.064 770.435 462.819 723.724 450.018C686.656 439.032 649.021 430.106 610.807 423.246C512.018 407.582 414.39 430.654 320.023 452.959C278.41 462.828 235.374 473.012 192.844 479.71C169.111 483.425 146.222 486.623 123.952 489.762C64.9222 498.042 9.17004 505.819 -51.0138 521.42C-109.159 536.557 -162.935 531.083 -219.873 525.396C-253.179 521.479 -286.626 519.561 -320.216 519.639L-320.147 521.857C-286.552 521.748 -253.106 523.67 -219.803 527.614C-186.778 531.617 -153.602 533.47 -120.282 533.171Z"
              fill="#0C79DD"/>
        <path d="M-115.534 536.89C-93.6032 536.316 -71.9703 533.6 -50.6373 528.735C-0.250272 517.176 49.8103 510.373 98.2541 503.757C129.266 499.544 161.275 494.998 193.774 489.541C236.472 482.171 279.426 470.973 321.017 460.172C414.649 435.8 511.494 410.621 610.216 427.173C648.559 434.384 686.275 443.75 723.365 455.272C770.055 468.829 818.328 482.78 867.941 487.628C960.083 496.752 1038.51 460.374 1114.35 425.318C1185.96 392.222 1260.11 357.974 1346.88 360.111C1490.49 363.702 1633.46 374.42 1775.76 392.272C1818.29 397.742 1858.79 408.559 1897.94 419.069C1949.93 432.992 2003.75 447.438 2062.08 448.996L2062.01 446.773C2003.87 445.214 1950.29 430.85 1898.44 416.963C1859.19 406.414 1818.6 395.555 1775.93 390.089C1633.53 372.193 1490.47 361.446 1346.77 357.853C1259.23 355.739 1184.99 390.075 1113.1 423.314C1034.11 459.844 959.487 494.326 868.012 485.453C818.642 480.639 770.464 466.727 723.921 453.211C686.673 441.652 648.793 432.244 610.292 424.997C511.042 408.367 413.958 433.601 320.043 458.023C278.502 468.822 235.543 480.02 192.991 487.391C160.776 492.835 128.765 497.339 97.8038 501.545C49.3098 508.168 -0.843739 515.015 -51.325 526.624C-109.905 540.045 -163.877 534.577 -221.019 528.406C-254.006 524.359 -287.149 522.119 -320.436 521.688L-320.367 523.905C-287.158 524.324 -254.1 526.551 -221.186 530.59C-185.345 534.355 -150.799 537.989 -115.534 536.89Z"
              fill="#0C79DD"/>
        <path d="M-111.324 540.443C-90.9537 539.897 -70.7991 537.611 -50.8673 533.582C-7.50662 524.68 36.4367 519.007 78.9543 513.55C116.578 508.647 155.486 503.661 193.842 496.421C236.52 488.385 279.452 476.301 320.914 464.614C414.108 438.392 510.513 411.271 609.701 428.966C648.071 435.81 686.582 447.356 723.327 458.561C770.031 472.738 818.327 487.397 868.138 492.551C960.775 502.144 1038.99 465.023 1114.61 429.135C1186 395.286 1259.89 360.248 1347.15 362.547C1472.6 365.881 1616.95 377.593 1776.25 397.323C1818.63 402.573 1859.16 412.993 1898.4 423.092C1950.42 436.483 2004.18 450.353 2062.18 451.922L2062.11 449.704C2004.39 448.126 1950.73 434.296 1899.05 420.941C1859.76 410.842 1819.13 400.378 1776.57 395.135C1617.22 375.36 1472.77 363.651 1347.23 360.325C1259.2 358.003 1185.18 393.18 1113.55 427.167C1034.73 464.578 960.283 499.898 868.459 490.368C818.882 485.249 770.682 470.586 724.074 456.448C687.14 445.254 648.912 433.653 610.155 426.774C510.356 409.233 413.713 436.408 320.337 462.725C278.919 474.406 236.081 486.444 193.498 494.478C155.186 501.67 116.328 506.699 78.7481 511.378C35.9917 516.89 -7.80576 522.559 -51.2672 531.464C-110.415 543.526 -164.634 537.665 -222.113 531.463C-254.635 527.427 -287.303 525.011 -320.115 524.21L-320.046 526.428C-287.379 527.218 -254.852 529.607 -222.477 533.606C-184.859 537.716 -148.583 541.604 -111.324 540.443Z"
              fill="#0C79DD"/>
        <path d="M-107.929 543.844C-88.7438 543.314 -69.7266 541.33 -50.8785 537.892C-12.6543 530.886 26.5458 526.109 64.5127 521.462C107.273 516.262 151.466 510.889 194.31 502.268C237.16 493.653 279.784 480.819 321.127 468.384C413.933 440.485 509.903 411.644 609.589 430.036C648.399 437.175 686.503 449.311 723.543 460.992C770.271 475.793 818.538 491.12 868.546 496.445C961.538 506.653 1039.64 468.91 1115.13 432.181C1186.27 397.672 1259.94 361.975 1347.54 364.445C1488.65 368.353 1637.25 384.508 1776.86 401.387C1819.13 406.463 1859.8 416.566 1899.07 426.358C1951.07 439.26 2004.82 452.598 2062.44 454.309L2062.37 452.091C2005.08 450.41 1951.39 437.071 1899.34 424.218C1859.97 414.429 1819.21 404.506 1776.79 399.169C1637.14 382.334 1488.44 366.182 1347.28 362.228C1258.92 359.745 1185.06 395.578 1113.64 430.226C1034.98 468.211 960.707 504.37 868.431 494.229C818.705 488.765 770.537 473.518 723.955 458.759C686.908 446.99 648.612 434.86 609.707 427.678C509.396 409.173 413.104 438.245 319.96 466.107C278.616 478.499 235.899 491.378 193.338 499.947C150.772 508.511 106.439 513.89 63.7248 519.129C25.7114 523.732 -13.5391 528.509 -51.8057 535.564C-111.703 546.539 -166.406 540.558 -224.316 534.192C-255.282 530.716 -287.299 527.27 -320.377 526.571L-320.308 528.789C-287.323 529.538 -255.356 533.028 -224.437 536.415C-184.905 540.917 -146.999 545.061 -107.929 543.844Z"
              fill="#0C79DD"/>
        <path d="M-105.537 546.969C-87.343 546.428 -69.2688 544.682 -51.3292 541.726C-16.8812 535.947 18.6655 531.864 53.1675 527.855C100.582 523.22 147.637 516.365 194.327 507.292C237.166 497.432 279.354 485.55 320.898 471.634C413.362 442.105 509.009 411.986 609.196 431.249C648.155 438.695 686.473 451.357 723.483 463.575C770.129 478.952 818.369 494.859 868.537 500.669C961.974 511.482 1039.96 473.118 1115.34 435.772C1186.32 400.784 1259.74 364.651 1347.62 367.066C1482.73 370.937 1623.9 387.72 1760.48 403.942L1777 405.872C1819.27 410.901 1860.02 420.736 1899.48 430.256C1951.47 442.758 2005.2 455.699 2062.49 457.598L2062.42 455.38C2005.51 453.464 1951.88 440.571 1900.08 428.106C1860.53 418.588 1819.68 408.716 1777.26 403.685L1760.75 401.715C1624.12 385.494 1483.08 368.707 1347.65 364.841C1259.1 362.317 1185.44 398.681 1114.18 433.807C1035.64 472.591 961.471 509.19 868.805 498.482C818.923 492.71 770.779 476.801 724.229 461.463C687.125 449.295 648.762 436.587 609.654 429.058C508.892 409.682 412.876 440.12 319.972 469.533C278.494 483.421 236.367 495.291 193.594 505.138C147.538 514.968 99.2506 520.511 52.582 525.92C18.128 529.881 -17.4242 533.964 -51.9159 539.75C-112.744 549.947 -168.071 543.854 -226.648 537.468C-256.804 533.962 -287.957 530.759 -320.186 529.675L-320.116 531.898C-287.932 532.979 -256.824 536.36 -226.723 539.69C-185.76 543.919 -146.373 548.242 -105.537 546.969Z"
              fill="#0C79DD"/>
        <path d="M-104.828 549.833C-87.0408 549.321 -69.3664 547.702 -51.7983 544.981C-20.1432 540.045 12.6091 536.403 44.2632 532.884C94.0268 527.336 145.457 521.601 194.246 510.8C237.067 500.534 279.178 488.149 320.575 473.639C412.775 443.143 508.046 411.613 608.828 431.656C647.94 439.321 686.269 452.561 723.345 465.266C769.964 481.223 818.175 497.838 868.488 503.821C962.278 515.202 1040.24 476.264 1115.61 438.383C1186.39 403.041 1259.56 366.432 1347.64 368.971C1468.94 372.387 1596.24 387.653 1718.99 402.389L1777.01 409.465C1819.28 414.411 1860.31 424.059 1899.95 433.392C1951.8 445.59 2005.65 458.168 2062.2 460.315L2062.13 458.097C2005.64 455.991 1951.97 443.407 1900.37 431.248C1861.01 421.86 1819.98 412.212 1777.56 407.182L1719.54 400.111C1596.54 385.331 1469.39 370.107 1347.95 366.653C1259.25 364.175 1185.8 400.888 1114.74 436.409C1036.21 475.634 962.012 512.725 869.035 501.406C819.006 495.373 770.938 478.883 724.416 463.008C687.249 450.268 648.822 437.121 609.566 429.324C508.157 409.124 412.509 440.753 319.932 471.35C278.608 485.832 236.579 498.204 193.837 508.457C145.193 519.258 93.8048 524.899 44.138 530.49C12.4387 534.01 -20.3585 537.653 -52.0189 542.59C-114.149 552.254 -170.33 546.277 -229.819 539.825C-258.867 536.692 -288.92 533.449 -320.014 532.157L-319.947 534.327C-288.901 535.673 -258.944 538.913 -229.942 542.007C-187.675 546.777 -146.954 551.146 -104.828 549.833Z"
              fill="#0C79DD"/>
        <path d="M-105.08 552.504C-87.2042 551.973 -69.4334 550.383 -51.7631 547.737C-21.5736 543.154 9.70226 539.694 39.9798 536.348C91.4111 530.66 144.555 524.783 194.893 513.266C237.364 502.756 279.117 490.158 320.156 475.476C412.709 444.12 508.434 411.866 609.764 432.606C648.741 440.63 686.978 453.961 723.915 466.843C770.546 483.158 818.811 499.908 869.144 506.333C962.565 518.257 1037.43 481.017 1116.62 441.504C1187.39 406.21 1260.52 369.732 1348.16 372.107C1471.42 375.639 1600.5 391.157 1725.31 406.147L1777.25 412.48C1818.75 418.164 1859.73 426.125 1900.19 436.36C1952.13 448.508 2005.89 461.048 2062.52 463.28L2062.46 461.062C2006.01 458.825 1952.3 446.331 1900.6 434.216C1860.05 423.953 1818.98 415.995 1777.38 410.34L1725.48 404.142C1600.62 389.112 1471.5 373.595 1348.1 370.068C1259.83 367.488 1186.37 404.153 1115.31 439.504C1036.46 478.823 962.017 515.967 869.309 504.109C819.224 497.718 771.098 480.964 724.565 464.74C687.532 451.814 649.25 438.484 610.074 430.378C508.208 409.348 412.164 441.919 319.279 473.374C278.379 488.025 236.771 500.604 194.444 511.109C144.291 522.62 91.1525 528.496 39.7718 534.183C9.53812 537.523 -21.7828 540.984 -52.0232 545.527C-115.209 555.089 -172.195 549.272 -232.593 542.713C-260.634 539.767 -289.63 536.72 -319.728 535.256L-319.659 537.479C-289.655 538.941 -260.705 541.989 -232.664 544.934C-189.79 549.46 -148.346 553.853 -105.08 552.504Z"
              fill="#0C79DD"/>
        <path d="M-106.25 554.807C-88.183 554.286 -70.2165 552.704 -52.356 550.064C-22.7823 545.635 7.83086 542.279 37.4418 539.047C89.7283 533.333 143.535 527.393 194.534 515.544C236.325 505.07 277.428 492.627 317.86 478.21C410.885 446.755 507.127 414.221 608.419 435.357C647.163 443.43 685.39 456.454 722.173 469.075C769.182 485.155 817.77 501.629 868.25 508.315C961.398 520.472 1040.66 482.203 1117.31 445.256C1188.5 410.927 1262.08 375.415 1348.62 377.737C1491.21 381.599 1644.33 398.901 1776.71 414.847C1818.23 420.587 1859.24 428.637 1899.7 438.996C1951.74 451.276 2005.42 464.174 2062.72 466.296L2062.65 464.073C2005.91 461.803 1952.15 449.133 1900.16 436.85C1860.42 427.474 1819.39 417.737 1776.97 412.666C1644.55 396.715 1491.38 379.369 1348.65 375.516C1261.49 373.168 1187.52 408.827 1116.15 443.296C1036.26 481.761 961.084 518.126 868.561 506.132C818.281 499.612 769.829 483.004 722.967 466.967C685.988 454.346 647.809 441.279 608.924 433.164C506.907 411.914 410.338 444.553 316.982 476.153C276.627 490.526 235.602 502.941 193.894 513.385C143.04 525.23 89.2321 531.128 37.2312 536.834C7.61481 540.065 -23.0422 543.465 -52.717 547.855C-116.141 557.293 -173.598 551.622 -234.418 545.389C-261.928 542.603 -290.348 539.717 -319.728 538.324L-319.659 540.542C-290.329 541.936 -261.955 544.782 -234.489 547.569C-191.284 551.949 -149.657 556.16 -106.25 554.807Z"
              fill="#0C79DD"/>
        <path d="M-108.004 556.685C-89.7032 556.146 -71.5012 554.573 -53.3929 551.961C-24.2439 547.723 5.89712 544.476 35.0353 541.342C87.3244 535.716 141.661 529.896 193.038 517.987C233.997 508.452 274.879 494.875 314.439 481.74C407.292 450.864 503.261 418.917 604.543 439.522C643.326 447.417 681.494 459.953 718.691 472.029C766.249 487.602 815.451 503.698 866.254 510.154C959.153 522.047 1039.9 485.243 1118.02 449.632C1189.78 416.927 1263.8 383.131 1349.27 384.689C1492.13 388.251 1634.34 398.905 1775.9 416.649C1817.55 422.521 1858.65 430.729 1899.2 441.278C1951.49 453.859 2005.5 466.88 2062.71 469.182L2062.65 467.006C2005.67 464.65 1951.75 451.677 1899.61 439.133C1859.77 429.578 1818.58 419.45 1776.03 414.424C1634.47 396.783 1492.28 386.202 1349.45 382.68C1263.54 380.917 1189.14 414.861 1117.15 447.662C1035.74 484.752 958.895 519.793 866.714 508.008C816.146 501.544 767.09 485.485 719.631 469.998C682.208 456.954 644.059 446.08 605.193 437.365C503.339 416.689 406.986 448.695 313.756 479.671C274.292 492.803 233.504 506.377 192.594 515.869C141.405 527.724 87.2588 533.544 34.9193 539.172C5.78096 542.3 -24.4079 545.461 -53.6044 549.789C-117.041 559.009 -174.777 553.565 -235.959 547.879C-262.891 545.342 -290.777 542.704 -319.478 541.597L-319.41 543.773C-290.753 545.1 -262.913 547.697 -235.987 550.058C-192.933 554.132 -151.27 558.034 -108.004 556.685Z"
              fill="#0C79DD"/>
        <path d="M-61.2427 551.185C23.8086 549.233 107.754 539.066 190.594 520.685C230.942 511.476 270.989 498.55 309.988 485.876C402.173 456.355 497.505 425.49 598.272 444.866C637.369 453.126 675.845 463.386 713.697 475.645C761.856 490.402 811.982 505.629 863.259 511.847C956.184 523.119 1038.99 488.206 1119.02 454.488C1191.38 423.938 1266.19 392.43 1350.11 393.234C1511.99 394.807 1654.91 403.234 1774.95 418.278C1817.71 423.61 1859.09 433.821 1899.08 443.632C1951.24 456.712 2005.6 470.03 2062.92 472.548L2062.85 470.33C2005.53 467.676 1951.65 454.567 1899.4 441.714C1859.37 431.815 1817.7 421.608 1775.03 416.232C1654.9 401.191 1511.97 392.764 1349.76 391.201C1265.36 390.365 1190.27 422.017 1117.68 452.616C1034.26 487.82 955.454 521.051 863.197 509.846C812.111 503.669 762.365 488.43 714.214 473.72C676.356 461.445 637.879 451.154 598.78 442.852C497.393 423.36 401.719 454.142 309.117 483.947C270.303 496.438 230.209 509.323 189.907 518.526C15.6231 558.25 -147.175 551.594 -319.626 544.577L-319.556 546.8C-231.968 550.378 -146.775 553.851 -61.2427 551.185Z"
              fill="#0C79DD"/>
        <path d="M-66.0455 553.2C19.4097 551.282 103.828 541.382 187.202 523.5C226.942 514.711 266.346 502.644 304.423 490.932C399.758 461.625 489.854 433.987 589.896 451.614C629.472 459.276 668.513 468.804 707.02 480.209C756.193 493.908 807.099 508.178 858.929 513.847C952.309 524.262 1037.52 491.627 1120.01 460.095C1192.97 432.193 1268.38 403.33 1350.75 403.031C1504.83 402.356 1642.98 403.157 1773.33 419.84C1816.43 425.38 1858.25 435.936 1898.63 446.137C1951.09 459.38 2005.31 473.056 2063.01 475.703L2062.94 473.48C2005.62 470.826 1951.49 457.147 1899.19 443.942C1858.71 433.703 1816.93 423.145 1773.55 417.614C1643.06 400.936 1504.81 400.096 1350.63 400.769C1267.89 401.128 1192.19 430.047 1118.99 457.996C1033.07 490.877 951.902 521.92 859.145 511.574C807.602 505.943 756.652 491.762 707.713 477.968C669.128 466.561 630.008 457.029 590.354 449.381C489.636 431.599 399.353 459.33 303.686 488.736C265.657 500.405 226.305 512.511 186.653 521.251C15.3216 559.148 -147.3 553.601 -319.433 547.684L-319.364 549.902C-233.509 552.958 -149.718 555.807 -66.0455 553.2Z"
              fill="#0C79DD"/>
    </g>
    <defs>
        <clipPath id="clip0_18_125370">
            <rect width="2384.86" height="526.923" fill="white"
                  transform="matrix(-0.999515 0.0311494 0.0311494 0.999515 2048.71 0)"/>
        </clipPath>
    </defs>
</svg>
